<?xml version="1.0" encoding="utf-8"?>
<!-- Generator: Adobe Illustrator 24.1.1, SVG Export Plug-In . SVG Version: 6.00 Build 0)  -->
<svg version="1.1" id="Camada_1" xmlns="http://www.w3.org/2000/svg" xmlns:xlink="http://www.w3.org/1999/xlink" x="0px" y="0px"
	 viewBox="0 0 700 500" style="enable-background:new 0 0 700 500;" xml:space="preserve">
<style type="text/css">
	.st0{fill:none;stroke:#D96A6E;stroke-width:0.5;stroke-miterlimit:10;}
</style>
<circle class="st0" cx="269.82" cy="206.38" r="174.42"/>
<g>
	<g>
		<path d="M180.04,113.66h4.34c2.4,0,3.37,1.25,3.37,2.63c0,1.18-0.65,1.95-1.38,2.25c0.71,0.25,1.69,0.99,1.69,2.41
			c0,1.84-1.43,3.08-3.55,3.08h-4.48V113.66z M184.12,117.83c1.22,0,1.71-0.52,1.71-1.34c0-0.81-0.6-1.3-1.59-1.3h-2.29v2.64H184.12
			z M181.95,122.51h2.21c1.24,0,1.91-0.54,1.91-1.6c0-0.94-0.6-1.54-2.01-1.54h-2.11V122.51z"/>
		<path d="M191.96,113.66v10.37h-1.95v-10.37H191.96z"/>
		<path d="M203.89,118.81c0,2.88-1.69,5.38-5.02,5.38c-3.19,0-4.89-2.36-4.89-5.34c0-3,1.83-5.34,5.03-5.34
			C202,113.51,203.89,115.66,203.89,118.81z M195.99,118.8c0,2.1,0.98,3.78,2.95,3.78c2.14,0,2.93-1.78,2.93-3.75
			c0-2.06-0.9-3.72-2.95-3.72C196.88,115.11,195.99,116.72,195.99,118.8z"/>
		<path d="M205.91,113.66h3.97c2.98,0,4.96,1.99,4.96,5.07c0,3.04-1.92,5.31-5.04,5.31h-3.9V113.66z M207.86,122.44h1.85
			c2.14,0,3.12-1.57,3.12-3.7c0-1.82-0.9-3.49-3.11-3.49h-1.86V122.44z"/>
		<path d="M218.82,113.66v10.37h-1.95v-10.37H218.82z"/>
		<path d="M223.85,124.04l-3.7-10.37h2.09l1.64,4.92c0.49,1.47,0.91,2.81,1.14,3.83h0.03c0.21-0.93,0.68-2.31,1.19-3.79l1.72-4.96
			h1.99l-3.81,10.37H223.85z"/>
		<path d="M238.21,119.43h-5.03v2.99h5.54l-0.24,1.61h-7.2v-10.37h7.15v1.61h-5.26v2.55h5.03V119.43z"/>
		<path d="M242.37,119.74v4.29h-1.91v-10.37h4.39c2.22,0,3.41,1.22,3.41,2.82c0,1.38-0.76,2.15-1.6,2.45
			c0.63,0.2,1.39,0.77,1.39,2.61v0.49c0,0.7-0.01,1.54,0.15,2h-1.86c-0.18-0.45-0.2-1.24-0.2-2.29v-0.18c0-1.25-0.33-1.82-2.07-1.82
			H242.37z M242.37,118.17h2.01c1.35,0,1.9-0.51,1.9-1.48c0-0.93-0.61-1.46-1.81-1.46h-2.1V118.17z"/>
		<path d="M251.5,121.05c0.25,1.11,1.03,1.64,2.34,1.64c1.34,0,1.9-0.57,1.9-1.41c0-0.91-0.5-1.35-2.38-1.8
			c-2.69-0.64-3.44-1.6-3.44-3.02c0-1.72,1.28-2.95,3.69-2.95c2.66,0,3.73,1.46,3.87,2.93h-1.96c-0.13-0.74-0.56-1.45-1.96-1.45
			c-1.03,0-1.64,0.44-1.64,1.27c0,0.81,0.49,1.13,2.21,1.54c3,0.71,3.61,1.85,3.61,3.26c0,1.82-1.37,3.12-4.04,3.12
			c-2.63,0-3.92-1.34-4.16-3.13H251.5z"/>
		<path d="M261.6,113.66v10.37h-1.95v-10.37H261.6z"/>
		<path d="M266.24,115.27h-3.22v-1.61h8.38v1.61h-3.21v8.76h-1.95V115.27z"/>
		<path d="M275.11,124.04v-3.71c0-0.11-0.02-0.22-0.08-0.31l-3.6-6.35h2.21c0.85,1.61,2.05,3.89,2.55,4.94
			c0.45-1.02,1.73-3.38,2.58-4.94h2.05l-3.67,6.33c-0.04,0.07-0.08,0.12-0.08,0.31v3.73H275.11z"/>
	</g>
</g>
<circle class="st0" cx="506.28" cy="171.42" r="101.29"/>
<circle class="st0" cx="162.09" cy="376.33" r="91.53"/>
<g>
	<g>
		<path d="M111.73,348.43c-0.37,1.63-1.6,2.82-3.77,2.82c-2.8,0-4.15-2.03-4.15-4.58c0-2.46,1.38-4.67,4.22-4.67
			c2.3,0,3.46,1.34,3.69,2.84h-1.69c-0.23-0.79-0.77-1.5-2.06-1.5c-1.73,0-2.42,1.57-2.42,3.26c0,1.6,0.62,3.29,2.47,3.29
			c1.31,0,1.78-0.83,2.01-1.48H111.73z"/>
		<path d="M121.54,346.59c0,2.49-1.46,4.66-4.35,4.66c-2.76,0-4.24-2.05-4.24-4.63c0-2.6,1.59-4.63,4.36-4.63
			C119.91,342,121.54,343.87,121.54,346.59z M114.7,346.59c0,1.82,0.85,3.28,2.56,3.28c1.85,0,2.54-1.54,2.54-3.25
			c0-1.78-0.78-3.22-2.56-3.22C115.47,343.39,114.7,344.78,114.7,346.59z"/>
		<path d="M123.3,351.13v-8.99h2.13c1.18,2.05,3.51,5.97,3.95,6.95h0.02c-0.1-1.01-0.09-2.52-0.09-4v-2.96h1.54v8.99h-2.01
			c-1.04-1.82-3.56-6.22-4.04-7.25h-0.02c0.06,0.87,0.08,2.6,0.08,4.22v3.03H123.3z"/>
		<path d="M134.12,348.54c0.22,0.96,0.9,1.42,2.03,1.42c1.16,0,1.64-0.5,1.64-1.22c0-0.79-0.44-1.17-2.06-1.56
			c-2.33-0.55-2.98-1.39-2.98-2.62c0-1.49,1.11-2.56,3.2-2.56c2.3,0,3.23,1.27,3.36,2.54h-1.7c-0.12-0.64-0.49-1.26-1.7-1.26
			c-0.89,0-1.42,0.38-1.42,1.1c0,0.7,0.42,0.98,1.92,1.33c2.6,0.62,3.13,1.6,3.13,2.83c0,1.58-1.18,2.71-3.5,2.71
			c-2.28,0-3.4-1.16-3.6-2.71H134.12z"/>
		<path d="M147.18,347.14h-4.36v2.59h4.8l-0.2,1.4h-6.24v-8.99h6.2v1.4h-4.56v2.21h4.36V347.14z"/>
		<path d="M150.78,347.4v3.72h-1.65v-8.99h3.8c1.92,0,2.95,1.05,2.95,2.45c0,1.19-0.66,1.87-1.38,2.12
			c0.54,0.18,1.21,0.67,1.21,2.26v0.42c0,0.61-0.01,1.33,0.13,1.74h-1.61c-0.16-0.39-0.18-1.07-0.18-1.99v-0.15
			c0-1.08-0.29-1.58-1.79-1.58H150.78z M150.78,346.04h1.74c1.17,0,1.65-0.44,1.65-1.28c0-0.81-0.53-1.26-1.57-1.26h-1.82V346.04z"
			/>
		<path d="M159.78,351.13l-3.21-8.99h1.81l1.42,4.27c0.42,1.28,0.79,2.44,0.99,3.32h0.03c0.19-0.8,0.59-2,1.03-3.29l1.49-4.3h1.72
			l-3.3,8.99H159.78z"/>
		<path d="M167.76,348.84l-0.79,2.29h-1.66l3.1-8.99h2.11l3.24,8.99h-1.78l-0.83-2.29H167.76z M170.77,347.44
			c-0.71-2.06-1.14-3.28-1.35-4.05h-0.01c-0.22,0.84-0.7,2.29-1.27,4.05H170.77z"/>
		<path d="M176.85,343.53h-2.79v-1.4h7.27v1.4h-2.79v7.59h-1.69V343.53z"/>
		<path d="M184.25,342.13v8.99h-1.69v-8.99H184.25z"/>
		<path d="M194.59,346.59c0,2.49-1.46,4.66-4.35,4.66c-2.76,0-4.24-2.05-4.24-4.63c0-2.6,1.59-4.63,4.36-4.63
			C192.95,342,194.59,343.87,194.59,346.59z M187.74,346.59c0,1.82,0.85,3.28,2.56,3.28c1.85,0,2.54-1.54,2.54-3.25
			c0-1.78-0.78-3.22-2.56-3.22C188.52,343.39,187.74,344.78,187.74,346.59z"/>
		<path d="M196.34,351.13v-8.99h2.12c1.18,2.05,3.51,5.97,3.95,6.95h0.02c-0.1-1.01-0.09-2.52-0.09-4v-2.96h1.54v8.99h-2.01
			c-1.04-1.82-3.56-6.22-4.04-7.25h-0.02c0.07,0.87,0.08,2.6,0.08,4.22v3.03H196.34z"/>
	</g>
</g>
<g>
	<g>
		<path d="M425.6,129.79h3.71c2.79,0,4.63,1.86,4.63,4.73c0,2.84-1.79,4.96-4.7,4.96h-3.64V129.79z M427.42,137.99h1.73
			c2,0,2.91-1.47,2.91-3.46c0-1.7-0.84-3.26-2.9-3.26h-1.74V137.99z"/>
		<path d="M437.66,129.79v9.69h-1.82v-9.69H437.66z"/>
		<path d="M442.35,139.48l-3.46-9.69h1.95l1.53,4.6c0.46,1.38,0.85,2.62,1.07,3.58h0.03c0.2-0.87,0.64-2.16,1.11-3.54l1.6-4.63h1.86
			l-3.56,9.69H442.35z"/>
		<path d="M455.76,135.18h-4.7v2.79h5.17l-0.22,1.51h-6.72v-9.69h6.68v1.51h-4.91v2.38h4.7V135.18z"/>
		<path d="M459.63,135.47v4.01h-1.78v-9.69h4.1c2.07,0,3.18,1.13,3.18,2.64c0,1.29-0.71,2.01-1.49,2.29c0.59,0.19,1.3,0.72,1.3,2.44
			v0.46c0,0.66-0.01,1.43,0.14,1.87h-1.73c-0.17-0.42-0.19-1.16-0.19-2.14v-0.16c0-1.17-0.31-1.7-1.93-1.7H459.63z M459.63,134h1.88
			c1.26,0,1.78-0.48,1.78-1.38c0-0.87-0.57-1.36-1.69-1.36h-1.96V134z"/>
		<path d="M468.16,136.69c0.24,1.04,0.97,1.53,2.18,1.53c1.25,0,1.77-0.53,1.77-1.31c0-0.85-0.47-1.26-2.22-1.68
			c-2.52-0.6-3.22-1.5-3.22-2.82c0-1.6,1.19-2.76,3.44-2.76c2.48,0,3.48,1.37,3.62,2.73h-1.83c-0.13-0.69-0.53-1.36-1.83-1.36
			c-0.96,0-1.53,0.41-1.53,1.18c0,0.75,0.46,1.06,2.07,1.44c2.8,0.67,3.37,1.72,3.37,3.05c0,1.7-1.28,2.92-3.77,2.92
			c-2.45,0-3.66-1.25-3.88-2.92H468.16z"/>
		<path d="M477.58,129.79v9.69h-1.82v-9.69H477.58z"/>
		<path d="M479.96,129.79h6.58v1.51h-4.8v2.64h4.5v1.51h-4.5v4.04h-1.78V129.79z"/>
		<path d="M489.9,129.79v9.69h-1.82v-9.69H489.9z"/>
		<path d="M500.32,136.58c-0.4,1.75-1.72,3.04-4.07,3.04c-3.01,0-4.47-2.18-4.47-4.93c0-2.65,1.49-5.03,4.55-5.03
			c2.48,0,3.73,1.44,3.98,3.06h-1.82c-0.25-0.85-0.83-1.61-2.22-1.61c-1.87,0-2.61,1.69-2.61,3.52c0,1.73,0.67,3.55,2.66,3.55
			c1.41,0,1.92-0.9,2.16-1.59H500.32z"/>
		<path d="M503.77,137.01l-0.85,2.47h-1.79l3.34-9.69h2.27l3.49,9.69h-1.92l-0.89-2.47H503.77z M507.02,135.51
			c-0.77-2.22-1.23-3.54-1.46-4.36h-0.01c-0.24,0.91-0.75,2.47-1.37,4.36H507.02z"/>
		<path d="M513.56,131.3h-3.01v-1.51h7.83v1.51h-3v8.18h-1.82V131.3z"/>
		<path d="M521.53,129.79v9.69h-1.82v-9.69H521.53z"/>
		<path d="M532.67,134.6c0,2.69-1.58,5.02-4.69,5.02c-2.98,0-4.57-2.21-4.57-4.98c0-2.8,1.71-4.98,4.69-4.98
			C530.9,129.65,532.67,131.66,532.67,134.6z M525.29,134.59c0,1.96,0.91,3.53,2.75,3.53c2,0,2.74-1.66,2.74-3.5
			c0-1.92-0.84-3.47-2.76-3.47C526.13,131.15,525.29,132.65,525.29,134.59z"/>
		<path d="M534.55,139.48v-9.69h2.29c1.27,2.21,3.78,6.44,4.26,7.49h0.02c-0.1-1.09-0.1-2.72-0.1-4.31v-3.18h1.66v9.69h-2.17
			c-1.12-1.96-3.83-6.7-4.36-7.81h-0.02c0.07,0.94,0.09,2.81,0.09,4.55v3.27H534.55z"/>
	</g>
</g>
<ellipse class="st0" cx="464.37" cy="302.78" rx="75.65" ry="73.52"/>
<g>
	<g>
		<path d="M403.13,271.1c-0.29,1.05-0.48,2.33-0.5,3.14h-1.38c0.06-0.97,0.44-2.34,0.85-3.14H403.13z M405.34,271.1
			c-0.32,1.07-0.48,2.26-0.5,3.14h-1.38c0.06-1.12,0.49-2.44,0.85-3.14H405.34z"/>
		<path d="M407.6,276.91c0.19,0.82,0.76,1.2,1.72,1.2c0.98,0,1.39-0.42,1.39-1.03c0-0.67-0.37-0.99-1.75-1.32
			c-1.98-0.47-2.53-1.17-2.53-2.22c0-1.26,0.94-2.17,2.7-2.17c1.95,0,2.73,1.07,2.84,2.15h-1.44c-0.1-0.54-0.42-1.06-1.44-1.06
			c-0.76,0-1.2,0.32-1.2,0.93c0,0.59,0.36,0.83,1.62,1.13c2.2,0.52,2.65,1.35,2.65,2.39c0,1.33-1,2.29-2.96,2.29
			c-1.93,0-2.88-0.98-3.05-2.3H407.6z"/>
		<path d="M413.58,271.49h1.41V275c0.52-0.59,2.21-2.37,3.26-3.51h1.73l-3.13,3.18l3.26,4.43h-1.72l-2.54-3.51l-0.86,0.81v2.7h-1.41
			V271.49z"/>
		<path d="M422.55,279.1v-2.72c0-0.08-0.01-0.16-0.06-0.23l-2.64-4.65h1.62c0.62,1.18,1.5,2.85,1.87,3.63
			c0.33-0.75,1.27-2.48,1.89-3.63h1.5l-2.69,4.64c-0.03,0.05-0.06,0.09-0.06,0.23v2.74H422.55z"/>
		<path d="M427.07,274.2c0.32-1.07,0.48-2.26,0.5-3.14h1.38c-0.06,1.12-0.49,2.44-0.85,3.14H427.07z M429.29,274.2
			c0.29-1.05,0.48-2.33,0.5-3.14h1.38c-0.06,0.97-0.44,2.34-0.85,3.14H429.29z"/>
		<path d="M436.67,271.49v7.61h-1.43v-7.61H436.67z"/>
		<path d="M439.44,276.91c0.19,0.82,0.76,1.2,1.72,1.2c0.98,0,1.39-0.42,1.39-1.03c0-0.67-0.37-0.99-1.75-1.32
			c-1.98-0.47-2.53-1.17-2.53-2.22c0-1.26,0.94-2.17,2.7-2.17c1.95,0,2.73,1.07,2.84,2.15h-1.44c-0.1-0.54-0.42-1.06-1.44-1.06
			c-0.76,0-1.2,0.32-1.2,0.93c0,0.59,0.36,0.83,1.62,1.13c2.2,0.52,2.65,1.35,2.65,2.39c0,1.33-1,2.29-2.96,2.29
			c-1.93,0-2.88-0.98-3.05-2.3H439.44z"/>
		<path d="M445.42,271.49h1.43v6.43h3.85l-0.17,1.18h-5.11V271.49z"/>
		<path d="M453.07,277.16l-0.67,1.94h-1.41l2.63-7.61h1.78l2.74,7.61h-1.5l-0.7-1.94H453.07z M455.61,275.98
			c-0.6-1.74-0.97-2.78-1.14-3.43h-0.01c-0.19,0.71-0.59,1.94-1.07,3.43H455.61z"/>
		<path d="M459.23,279.1v-7.61h1.8c1,1.73,2.97,5.05,3.34,5.88h0.02c-0.08-0.86-0.08-2.14-0.08-3.38v-2.5h1.31v7.61h-1.7
			c-0.88-1.54-3.01-5.27-3.42-6.14h-0.02c0.06,0.73,0.07,2.2,0.07,3.57v2.57H459.23z"/>
		<path d="M467.49,271.49h2.92c2.19,0,3.64,1.46,3.64,3.71c0,2.23-1.41,3.89-3.69,3.89h-2.86V271.49z M468.92,277.93h1.36
			c1.57,0,2.29-1.15,2.29-2.72c0-1.33-0.66-2.56-2.28-2.56h-1.37V277.93z"/>
		<path d="M479.13,276.91c0.18,0.82,0.76,1.2,1.72,1.2c0.98,0,1.39-0.42,1.39-1.03c0-0.67-0.37-0.99-1.75-1.32
			c-1.98-0.47-2.53-1.17-2.53-2.22c0-1.26,0.94-2.17,2.7-2.17c1.95,0,2.73,1.07,2.84,2.15h-1.44c-0.1-0.54-0.41-1.06-1.44-1.06
			c-0.76,0-1.2,0.32-1.2,0.93c0,0.59,0.36,0.83,1.63,1.13c2.2,0.52,2.65,1.35,2.65,2.39c0,1.33-1,2.29-2.96,2.29
			c-1.92,0-2.88-0.98-3.05-2.3H479.13z"/>
		<path d="M486.79,279.1v-2.72c0-0.08-0.01-0.16-0.06-0.23l-2.64-4.65h1.62c0.62,1.18,1.5,2.85,1.87,3.63
			c0.33-0.75,1.27-2.48,1.89-3.63h1.5l-2.69,4.64c-0.03,0.05-0.06,0.09-0.06,0.23v2.74H486.79z"/>
		<path d="M492.72,276.91c0.18,0.82,0.76,1.2,1.72,1.2c0.98,0,1.39-0.42,1.39-1.03c0-0.67-0.37-0.99-1.75-1.32
			c-1.98-0.47-2.53-1.17-2.53-2.22c0-1.26,0.94-2.17,2.7-2.17c1.95,0,2.73,1.07,2.84,2.15h-1.44c-0.1-0.54-0.41-1.06-1.44-1.06
			c-0.76,0-1.2,0.32-1.2,0.93c0,0.59,0.36,0.83,1.63,1.13c2.2,0.52,2.65,1.35,2.65,2.39c0,1.33-1,2.29-2.96,2.29
			c-1.92,0-2.88-0.98-3.05-2.3H492.72z"/>
		<path d="M500.23,272.67h-2.36v-1.18h6.15v1.18h-2.36v6.43h-1.43V272.67z"/>
		<path d="M510.13,275.73h-3.69v2.19h4.06l-0.17,1.18h-5.28v-7.61h5.24v1.18h-3.86v1.87h3.69V275.73z"/>
		<path d="M518.2,276.11c0-1.34,0.02-2.79,0.05-3.63h-0.05c-0.35,1.44-1.27,4.23-2.05,6.61h-1.23c-0.59-2.04-1.54-5.19-1.88-6.63
			H513c0.06,0.89,0.09,2.5,0.09,3.8v2.83h-1.31v-7.61h2.13c0.69,2.12,1.49,4.8,1.72,5.88h0.01c0.18-0.91,1.16-3.81,1.88-5.88h2.05
			v7.61h-1.38V276.11z"/>
	</g>
</g>
<g>
	<g>
		<path d="M187.47,161.12h-0.54c-0.05-0.1-0.07-0.53-0.08-1.34c-0.3,0.58-0.96,1.44-2.71,1.44c-2.41,0-3.65-1.83-3.65-4.22
			c0-2.51,1.32-4.39,3.78-4.39c1.81,0,3.01,0.95,3.27,2.49h-0.65c-0.36-1.19-1.19-1.9-2.65-1.9c-2.1,0-3.06,1.63-3.06,3.75
			c0,1.92,0.92,3.66,2.97,3.66c2.1,0,2.69-1.37,2.69-3.23v-0.1h-2.71v-0.6h3.33V161.12z"/>
		<path d="M189.49,158.19c0.01,1.55,0.79,2.51,1.94,2.51c1.13,0,1.51-0.64,1.73-1.13h0.61c-0.25,0.79-0.89,1.69-2.36,1.69
			c-1.82,0-2.53-1.57-2.53-3.09c0-1.72,0.85-3.19,2.6-3.19c1.85,0,2.43,1.6,2.43,2.72c0,0.17,0,0.34-0.01,0.49H189.49z
			 M193.29,157.66c-0.01-1.19-0.66-2.12-1.83-2.12c-1.24,0-1.8,0.86-1.93,2.12H193.29z"/>
		<path d="M200.24,158.11c0,1.67-0.92,3.15-2.71,3.15c-1.62,0-2.63-1.33-2.63-3.14c0-1.71,0.95-3.14,2.69-3.14
			C199.18,154.98,200.24,156.22,200.24,158.11z M195.54,158.12c0,1.43,0.77,2.58,2.04,2.58c1.3,0,2.03-1.07,2.03-2.58
			c0-1.42-0.72-2.58-2.05-2.58C196.18,155.54,195.54,156.68,195.54,158.12z"/>
		<path d="M206.31,160.71c0,1.92-0.85,2.93-2.59,2.93c-1.56,0-2.21-0.88-2.35-1.79h0.61c0.22,0.83,0.9,1.22,1.76,1.22
			c1.56,0,1.99-1.01,1.99-2.53v-0.62c-0.32,0.78-0.91,1.2-2,1.2c-1.4,0-2.48-1.14-2.48-3c0-2.01,1.15-3.14,2.57-3.14
			c1.22,0,1.75,0.58,1.92,1.06c0.01-0.35,0.02-0.77,0.04-0.91h0.56c0,0.22-0.02,1.16-0.02,1.74V160.71z M201.88,158.09
			c0,1.43,0.76,2.46,1.91,2.46c1.5,0,1.96-1,1.96-2.55c0-1.58-0.48-2.46-1.92-2.46C202.45,155.54,201.88,156.73,201.88,158.09z"/>
		<path d="M208.28,156.75c0-1.01-0.01-1.44-0.01-1.63h0.59c0.01,0.19,0.02,0.58,0.02,1.34c0.35-0.9,1.12-1.44,2.09-1.49v0.65
			c-1.25,0.08-2.09,0.95-2.09,2.38v3.12h-0.6V156.75z"/>
		<path d="M216.28,159.98c0,0.53,0.05,0.95,0.08,1.14h-0.58c-0.05-0.14-0.08-0.41-0.11-0.92c-0.2,0.44-0.73,1.07-1.97,1.07
			c-1.39,0-1.99-0.9-1.99-1.8c0-1.32,1.02-1.92,2.82-1.92c0.5,0,0.9,0,1.14,0v-0.61c0-0.6-0.18-1.4-1.55-1.4
			c-1.21,0-1.39,0.64-1.52,1.13h-0.6c0.07-0.66,0.48-1.68,2.13-1.68c1.37,0,2.13,0.58,2.13,1.9V159.98z M215.69,158.06
			c-0.23,0-0.78,0-1.18,0c-1.33,0-2.16,0.35-2.16,1.38c0,0.76,0.54,1.27,1.38,1.27c1.71,0,1.96-1.14,1.96-2.43V158.06z"/>
		<path d="M218.86,160.23v3.29h-0.6v-6.92c0-0.49,0-1.02-0.01-1.48h0.59c0.02,0.23,0.02,0.59,0.02,1.08
			c0.37-0.72,1.03-1.22,2.11-1.22c1.42,0,2.4,1.19,2.4,2.99c0,2.16-1.15,3.3-2.6,3.3C219.71,161.26,219.16,160.79,218.86,160.23z
			 M222.74,157.99c0-1.39-0.67-2.43-1.86-2.43c-1.45,0-2.05,0.91-2.05,2.54c0,1.61,0.47,2.6,1.97,2.6
			C222.04,160.7,222.74,159.64,222.74,157.99z"/>
		<path d="M225.48,152.28v3.85c0.34-0.62,0.92-1.15,1.98-1.15c0.85,0,2.03,0.43,2.03,2.33v3.81h-0.6v-3.69
			c0-1.19-0.54-1.86-1.54-1.86c-1.19,0-1.87,0.73-1.87,2.21v3.35h-0.6v-8.84H225.48z"/>
		<path d="M231.45,152.28h0.6v1.16h-0.6V152.28z M231.45,155.12h0.6v6h-0.6V155.12z"/>
		<path d="M238.43,159.35c-0.29,1.06-0.98,1.91-2.33,1.91c-1.5,0-2.57-1.12-2.57-3.12c0-1.64,0.88-3.17,2.64-3.17
			c1.52,0,2.15,1.08,2.25,1.92h-0.61c-0.18-0.7-0.64-1.36-1.65-1.36c-1.27,0-1.99,1.08-1.99,2.58c0,1.43,0.67,2.58,1.93,2.58
			c0.88,0,1.4-0.44,1.71-1.34H238.43z"/>
		<path d="M247.58,152.28v7.11c0,0.58,0,1.13,0.01,1.73h-0.58c-0.02-0.14-0.04-0.71-0.04-1.01c-0.3,0.73-0.97,1.15-2.01,1.15
			c-1.56,0-2.49-1.27-2.49-3.07c0-1.85,1.02-3.21,2.65-3.21c1.2,0,1.68,0.52,1.86,0.9v-3.6H247.58z M243.1,158.17
			c0,1.64,0.85,2.53,1.88,2.53c1.58,0,2.01-1.09,2.01-2.72c0-1.55-0.37-2.44-1.91-2.44C243.91,155.54,243.1,156.49,243.1,158.17z"/>
		<path d="M249.55,152.28h0.6v1.16h-0.6V152.28z M249.55,155.12h0.6v6h-0.6V155.12z"/>
		<path d="M252.11,159.46c0.2,0.78,0.76,1.25,1.7,1.25c1.07,0,1.5-0.49,1.5-1.16c0-0.68-0.29-1.02-1.63-1.34
			c-1.55-0.37-1.93-0.84-1.93-1.63c0-0.83,0.62-1.6,1.98-1.6s2,0.83,2.1,1.68h-0.6c-0.11-0.5-0.5-1.13-1.52-1.13
			c-1.04,0-1.34,0.52-1.34,1c0,0.55,0.29,0.83,1.48,1.12c1.69,0.41,2.11,0.96,2.11,1.86c0,1.09-0.89,1.76-2.15,1.76
			c-1.37,0-2.13-0.72-2.3-1.8H252.11z"/>
		<path d="M256.54,155.12h1.12v-1.87h0.6v1.87h1.43v0.56h-1.43v3.9c0,0.67,0.14,1.06,0.72,1.06c0.18,0,0.43-0.01,0.62-0.07v0.53
			c-0.2,0.08-0.49,0.11-0.74,0.11c-0.77,0-1.2-0.38-1.2-1.34v-4.17h-1.12V155.12z"/>
		<path d="M260.91,156.75c0-1.01-0.01-1.44-0.01-1.63h0.59c0.01,0.19,0.02,0.58,0.02,1.34c0.35-0.9,1.12-1.44,2.09-1.49v0.65
			c-1.25,0.08-2.09,0.95-2.09,2.38v3.12h-0.6V156.75z"/>
		<path d="M264.8,152.28h0.6v1.16h-0.6V152.28z M264.8,155.12h0.6v6h-0.6V155.12z"/>
		<path d="M267.37,152.28h0.6v3.85c0.29-0.6,0.88-1.15,2.05-1.15c1.42,0,2.46,1.16,2.46,3.01c0,1.9-0.94,3.27-2.61,3.27
			c-1.01,0-1.58-0.41-1.9-1.09c0,0.38-0.01,0.78-0.02,0.95h-0.59c0.01-0.68,0.01-1.37,0.01-2.05V152.28z M271.84,158
			c0-1.5-0.74-2.46-1.88-2.46c-1.5,0-2.03,1.02-2.03,2.59c0,1.42,0.47,2.57,1.96,2.57C271.1,160.7,271.84,159.69,271.84,158z"/>
		<path d="M278.45,159.37c0,0.59,0.01,1.52,0.01,1.75h-0.58c-0.02-0.16-0.04-0.55-0.04-1.04c-0.25,0.71-0.86,1.19-1.93,1.19
			c-0.86,0-1.97-0.34-1.97-2.17v-3.97h0.59v3.83c0,0.88,0.28,1.73,1.46,1.73c1.34,0,1.85-0.76,1.85-2.47v-3.08h0.6V159.37z"/>
		<path d="M279.52,155.12h1.12v-1.87h0.6v1.87h1.43v0.56h-1.43v3.9c0,0.67,0.14,1.06,0.72,1.06c0.18,0,0.43-0.01,0.62-0.07v0.53
			c-0.2,0.08-0.49,0.11-0.74,0.11c-0.77,0-1.2-0.38-1.2-1.34v-4.17h-1.12V155.12z"/>
		<path d="M283.89,152.28h0.6v1.16h-0.6V152.28z M283.89,155.12h0.6v6h-0.6V155.12z"/>
		<path d="M291.32,158.11c0,1.67-0.92,3.15-2.71,3.15c-1.62,0-2.63-1.33-2.63-3.14c0-1.71,0.95-3.14,2.69-3.14
			C290.26,154.98,291.32,156.22,291.32,158.11z M286.61,158.12c0,1.43,0.77,2.58,2.04,2.58c1.29,0,2.03-1.07,2.03-2.58
			c0-1.42-0.72-2.58-2.05-2.58C287.26,155.54,286.61,156.68,286.61,158.12z"/>
		<path d="M292.81,156.63c0-0.53,0-1.03-0.01-1.51h0.59c0.02,0.19,0.04,0.97,0.02,1.14c0.26-0.61,0.76-1.28,1.99-1.28
			c1.07,0,2.01,0.6,2.01,2.25v3.89h-0.6v-3.79c0-1.07-0.44-1.76-1.49-1.76c-1.43,0-1.92,1.19-1.92,2.49v3.06h-0.6V156.63z"/>
		<path d="M181.05,173.26c0.25,1.12,1,1.77,2.37,1.77c1.54,0,2.12-0.77,2.12-1.68c0-0.95-0.42-1.54-2.27-1.99
			c-1.78-0.44-2.54-1.02-2.54-2.23c0-1.1,0.8-2.13,2.6-2.13c1.85,0,2.63,1.13,2.73,2.15h-0.67c-0.19-0.9-0.78-1.55-2.1-1.55
			c-1.21,0-1.87,0.56-1.87,1.5c0,0.92,0.55,1.28,2.1,1.67c2.36,0.59,2.71,1.54,2.71,2.54c0,1.23-0.9,2.3-2.84,2.3
			c-2.1,0-2.87-1.22-3.02-2.35H181.05z"/>
		<path d="M188.44,174.63v3.29h-0.6v-6.92c0-0.49,0-1.02-0.01-1.48h0.59c0.02,0.23,0.02,0.59,0.02,1.08
			c0.37-0.72,1.03-1.22,2.11-1.22c1.42,0,2.4,1.19,2.4,2.99c0,2.16-1.15,3.3-2.6,3.3C189.3,175.66,188.74,175.19,188.44,174.63z
			 M192.32,172.39c0-1.39-0.67-2.43-1.86-2.43c-1.45,0-2.05,0.91-2.05,2.54c0,1.61,0.47,2.6,1.97,2.6
			C191.62,175.1,192.32,174.04,192.32,172.39z"/>
		<path d="M194.59,172.59c0.01,1.55,0.79,2.51,1.94,2.51c1.13,0,1.51-0.64,1.73-1.13h0.61c-0.25,0.79-0.89,1.69-2.36,1.69
			c-1.82,0-2.53-1.57-2.53-3.09c0-1.72,0.85-3.19,2.6-3.19c1.85,0,2.43,1.6,2.43,2.72c0,0.17,0,0.34-0.01,0.49H194.59z
			 M198.39,172.06c-0.01-1.19-0.66-2.12-1.83-2.12c-1.24,0-1.8,0.86-1.93,2.12H198.39z"/>
		<path d="M204.89,173.75c-0.29,1.06-0.98,1.91-2.33,1.91c-1.5,0-2.57-1.12-2.57-3.12c0-1.64,0.88-3.17,2.64-3.17
			c1.52,0,2.15,1.08,2.25,1.92h-0.61c-0.18-0.7-0.64-1.36-1.65-1.36c-1.27,0-1.99,1.08-1.99,2.58c0,1.43,0.67,2.58,1.93,2.58
			c0.88,0,1.4-0.44,1.71-1.34H204.89z"/>
		<path d="M206.29,166.68h0.6v1.16h-0.6V166.68z M206.29,169.52h0.6v6h-0.6V169.52z"/>
		<path d="M208.99,172.59c0.01,1.55,0.79,2.51,1.94,2.51c1.13,0,1.51-0.64,1.73-1.13h0.61c-0.25,0.79-0.89,1.69-2.36,1.69
			c-1.82,0-2.53-1.57-2.53-3.09c0-1.72,0.85-3.19,2.6-3.19c1.85,0,2.43,1.6,2.43,2.72c0,0.17,0,0.34-0.01,0.49H208.99z
			 M212.79,172.06c-0.01-1.19-0.66-2.12-1.83-2.12c-1.24,0-1.8,0.86-1.93,2.12H212.79z"/>
		<path d="M214.88,173.86c0.2,0.78,0.76,1.25,1.7,1.25c1.07,0,1.5-0.49,1.5-1.16c0-0.68-0.29-1.02-1.63-1.34
			c-1.55-0.37-1.93-0.84-1.93-1.63c0-0.83,0.62-1.6,1.98-1.6s2,0.83,2.1,1.68H218c-0.11-0.5-0.5-1.13-1.52-1.13
			c-1.04,0-1.34,0.52-1.34,1c0,0.55,0.29,0.83,1.48,1.12c1.69,0.41,2.11,0.96,2.11,1.86c0,1.09-0.89,1.76-2.15,1.76
			c-1.37,0-2.13-0.72-2.3-1.8H214.88z"/>
		<path d="M223.33,171.15c0-1.01-0.01-1.44-0.01-1.63h0.59c0.01,0.19,0.02,0.58,0.02,1.34c0.35-0.9,1.12-1.44,2.09-1.49v0.65
			c-1.25,0.08-2.09,0.95-2.09,2.38v3.12h-0.6V171.15z"/>
		<path d="M227.22,166.68h0.6v1.16h-0.6V166.68z M227.22,169.52h0.6v6h-0.6V169.52z"/>
		<path d="M234.2,173.75c-0.29,1.06-0.98,1.91-2.33,1.91c-1.5,0-2.57-1.12-2.57-3.12c0-1.64,0.88-3.17,2.64-3.17
			c1.52,0,2.15,1.08,2.25,1.92h-0.61c-0.18-0.7-0.64-1.36-1.65-1.36c-1.27,0-1.99,1.08-1.99,2.58c0,1.43,0.67,2.58,1.93,2.58
			c0.88,0,1.4-0.44,1.71-1.34H234.2z"/>
		<path d="M236.19,166.68v3.85c0.34-0.62,0.92-1.15,1.98-1.15c0.85,0,2.03,0.43,2.03,2.33v3.81h-0.6v-3.69
			c0-1.19-0.54-1.86-1.54-1.86c-1.19,0-1.87,0.73-1.87,2.21v3.35h-0.6v-8.84H236.19z"/>
		<path d="M242.17,171.03c0-0.53,0-1.03-0.01-1.51h0.59c0.02,0.19,0.04,0.97,0.02,1.14c0.26-0.61,0.76-1.28,1.99-1.28
			c1.07,0,2.01,0.6,2.01,2.25v3.89h-0.6v-3.79c0-1.07-0.44-1.76-1.49-1.76c-1.43,0-1.92,1.19-1.92,2.49v3.06h-0.6V171.03z"/>
		<path d="M248.88,172.59c0.01,1.55,0.79,2.51,1.94,2.51c1.13,0,1.51-0.64,1.73-1.13h0.61c-0.25,0.79-0.89,1.69-2.36,1.69
			c-1.82,0-2.53-1.57-2.53-3.09c0-1.72,0.85-3.19,2.6-3.19c1.85,0,2.43,1.6,2.43,2.72c0,0.17,0,0.34-0.01,0.49H248.88z
			 M252.68,172.06c-0.01-1.19-0.66-2.12-1.83-2.12c-1.24,0-1.8,0.86-1.93,2.12H252.68z"/>
		<path d="M254.77,173.86c0.2,0.78,0.76,1.25,1.7,1.25c1.07,0,1.5-0.49,1.5-1.16c0-0.68-0.29-1.02-1.63-1.34
			c-1.55-0.37-1.93-0.84-1.93-1.63c0-0.83,0.62-1.6,1.98-1.6s2,0.83,2.1,1.68h-0.6c-0.11-0.5-0.5-1.13-1.52-1.13
			c-1.04,0-1.34,0.52-1.34,1c0,0.55,0.29,0.83,1.48,1.12c1.69,0.41,2.11,0.96,2.11,1.86c0,1.09-0.89,1.76-2.15,1.76
			c-1.37,0-2.13-0.72-2.3-1.8H254.77z"/>
		<path d="M260.09,173.86c0.2,0.78,0.76,1.25,1.7,1.25c1.07,0,1.5-0.49,1.5-1.16c0-0.68-0.29-1.02-1.63-1.34
			c-1.55-0.37-1.93-0.84-1.93-1.63c0-0.83,0.62-1.6,1.98-1.6s2,0.83,2.1,1.68h-0.6c-0.11-0.5-0.5-1.13-1.52-1.13
			c-1.04,0-1.34,0.52-1.34,1c0,0.55,0.29,0.83,1.48,1.12c1.69,0.41,2.11,0.96,2.11,1.86c0,1.09-0.89,1.76-2.15,1.76
			c-1.37,0-2.13-0.72-2.3-1.8H260.09z"/>
		<path d="M185.92,185.79h-4.28v3.53h4.69l-0.1,0.6h-5.24v-8.4h5.15v0.6h-4.5v3.07h4.28V185.79z"/>
		<path d="M187.8,185.43c0-0.53,0-1.03-0.01-1.51h0.59c0.02,0.19,0.04,0.97,0.02,1.14c0.26-0.61,0.76-1.28,1.99-1.28
			c1.07,0,2.01,0.6,2.01,2.25v3.89h-0.6v-3.79c0-1.07-0.44-1.76-1.49-1.76c-1.43,0-1.92,1.19-1.92,2.49v3.06h-0.6V185.43z"/>
		<path d="M199,181.08v7.11c0,0.58,0,1.13,0.01,1.73h-0.58c-0.02-0.14-0.04-0.71-0.04-1.01c-0.3,0.73-0.97,1.15-2.01,1.15
			c-1.56,0-2.49-1.27-2.49-3.07c0-1.85,1.02-3.21,2.65-3.21c1.2,0,1.68,0.52,1.86,0.9v-3.6H199z M194.53,186.97
			c0,1.64,0.85,2.53,1.88,2.53c1.58,0,2.01-1.09,2.01-2.72c0-1.55-0.37-2.44-1.91-2.44C195.33,184.34,194.53,185.29,194.53,186.97z"
			/>
		<path d="M201.1,186.99c0.01,1.55,0.79,2.51,1.94,2.51c1.13,0,1.51-0.64,1.73-1.13h0.61c-0.25,0.79-0.89,1.69-2.36,1.69
			c-1.82,0-2.53-1.57-2.53-3.09c0-1.72,0.85-3.19,2.6-3.19c1.85,0,2.43,1.6,2.43,2.72c0,0.17,0,0.34-0.01,0.49H201.1z
			 M204.91,186.46c-0.01-1.19-0.66-2.12-1.83-2.12c-1.24,0-1.8,0.86-1.93,2.12H204.91z"/>
		<path d="M207,185.47c0-0.52,0-1.08-0.01-1.55h0.59c0.01,0.2,0.04,0.72,0.02,1.07c0.25-0.6,0.8-1.21,1.8-1.21
			c0.84,0,1.5,0.42,1.74,1.19c0.3-0.62,0.9-1.19,1.96-1.19c0.92,0,1.88,0.53,1.88,2.19v3.95h-0.6v-3.87c0-0.8-0.29-1.68-1.4-1.68
			c-1.16,0-1.69,0.94-1.69,2.1v3.45h-0.59v-3.86c0-0.88-0.26-1.69-1.37-1.69c-1.16,0-1.73,1.03-1.73,2.25v3.3H207V185.47z"/>
		<path d="M216.94,181.08h0.6v1.16h-0.6V181.08z M216.94,183.92h0.6v6h-0.6V183.92z"/>
		<path d="M219.51,188.26c0.2,0.78,0.76,1.25,1.7,1.25c1.07,0,1.5-0.49,1.5-1.16c0-0.68-0.29-1.02-1.63-1.34
			c-1.55-0.37-1.93-0.84-1.93-1.63c0-0.83,0.62-1.6,1.98-1.6c1.36,0,2,0.83,2.1,1.68h-0.6c-0.11-0.5-0.5-1.13-1.52-1.13
			c-1.04,0-1.34,0.52-1.34,1c0,0.55,0.29,0.83,1.48,1.12c1.69,0.41,2.11,0.96,2.11,1.86c0,1.09-0.89,1.76-2.15,1.76
			c-1.37,0-2.13-0.72-2.3-1.8H219.51z"/>
		<path d="M224.84,185.47c0-0.52,0-1.08-0.01-1.55h0.59c0.01,0.2,0.04,0.72,0.02,1.07c0.25-0.6,0.8-1.21,1.8-1.21
			c0.84,0,1.5,0.42,1.74,1.19c0.3-0.62,0.9-1.19,1.96-1.19c0.92,0,1.88,0.53,1.88,2.19v3.95h-0.6v-3.87c0-0.8-0.29-1.68-1.4-1.68
			c-1.16,0-1.69,0.94-1.69,2.1v3.45h-0.59v-3.86c0-0.88-0.26-1.69-1.37-1.69c-1.16,0-1.73,1.03-1.73,2.25v3.3h-0.6V185.47z"/>
	</g>
</g>
<g>
	<g>
		<path d="M462.5,162.33v3.92h-0.66v-8.4h3.01c1.66,0,2.53,0.89,2.53,2.21c0,1.07-0.64,1.76-1.57,1.97c0.86,0.2,1.44,0.77,1.44,2.19
			v0.32c0,0.59-0.05,1.38,0.11,1.7h-0.66c-0.16-0.36-0.12-1.03-0.12-1.75v-0.22c0-1.38-0.41-1.96-2.01-1.96H462.5z M462.5,161.73
			h2.03c1.48,0,2.16-0.55,2.16-1.66c0-1.03-0.67-1.62-1.98-1.62h-2.21V161.73z"/>
		<path d="M473.3,165.11c0,0.53,0.05,0.95,0.08,1.14h-0.58c-0.05-0.14-0.08-0.41-0.11-0.92c-0.2,0.44-0.73,1.07-1.97,1.07
			c-1.39,0-1.99-0.9-1.99-1.8c0-1.32,1.02-1.92,2.82-1.92c0.5,0,0.9,0,1.14,0v-0.61c0-0.6-0.18-1.4-1.55-1.4
			c-1.21,0-1.39,0.64-1.52,1.13h-0.6c0.07-0.66,0.48-1.68,2.13-1.68c1.37,0,2.13,0.58,2.13,1.9V165.11z M472.71,163.19
			c-0.23,0-0.78,0-1.18,0c-1.33,0-2.16,0.35-2.16,1.38c0,0.76,0.54,1.27,1.38,1.27c1.71,0,1.96-1.14,1.96-2.43V163.19z"/>
		<path d="M479.91,157.41v7.11c0,0.58,0,1.13,0.01,1.73h-0.58c-0.02-0.14-0.04-0.71-0.04-1.01c-0.3,0.73-0.97,1.15-2.01,1.15
			c-1.56,0-2.49-1.27-2.49-3.07c0-1.85,1.02-3.21,2.65-3.21c1.2,0,1.68,0.52,1.86,0.9v-3.6H479.91z M475.44,163.3
			c0,1.64,0.85,2.53,1.88,2.53c1.58,0,2.01-1.09,2.01-2.72c0-1.55-0.37-2.44-1.91-2.44C476.24,160.67,475.44,161.62,475.44,163.3z"
			/>
		<path d="M481.88,157.41h0.6v1.16h-0.6V157.41z M481.88,160.25h0.6v6h-0.6V160.25z"/>
		<path d="M488.56,165.11c0,0.53,0.05,0.95,0.08,1.14h-0.58c-0.05-0.14-0.08-0.41-0.11-0.92c-0.2,0.44-0.73,1.07-1.97,1.07
			c-1.39,0-1.99-0.9-1.99-1.8c0-1.32,1.02-1.92,2.82-1.92c0.5,0,0.9,0,1.14,0v-0.61c0-0.6-0.18-1.4-1.55-1.4
			c-1.21,0-1.39,0.64-1.52,1.13h-0.6c0.07-0.66,0.48-1.68,2.13-1.68c1.37,0,2.13,0.58,2.13,1.9V165.11z M487.98,163.19
			c-0.23,0-0.78,0-1.18,0c-1.33,0-2.16,0.35-2.16,1.38c0,0.76,0.54,1.27,1.38,1.27c1.71,0,1.96-1.14,1.96-2.43V163.19z"/>
		<path d="M489.65,160.25h1.12v-1.87h0.6v1.87h1.43v0.56h-1.43v3.9c0,0.67,0.14,1.06,0.72,1.06c0.18,0,0.43-0.01,0.62-0.07v0.53
			c-0.2,0.08-0.49,0.11-0.74,0.11c-0.77,0-1.2-0.38-1.2-1.34v-4.17h-1.12V160.25z"/>
		<path d="M494.01,157.41h0.6v1.16h-0.6V157.41z M494.01,160.25h0.6v6h-0.6V160.25z"/>
		<path d="M501.44,163.24c0,1.67-0.92,3.15-2.71,3.15c-1.62,0-2.63-1.33-2.63-3.14c0-1.71,0.95-3.14,2.69-3.14
			C500.38,160.11,501.44,161.36,501.44,163.24z M496.74,163.25c0,1.43,0.77,2.58,2.04,2.58c1.29,0,2.03-1.07,2.03-2.58
			c0-1.42-0.72-2.58-2.05-2.58C497.38,160.67,496.74,161.81,496.74,163.25z"/>
		<path d="M502.93,161.77c0-0.53,0-1.03-0.01-1.51h0.59c0.02,0.19,0.04,0.97,0.02,1.14c0.26-0.61,0.76-1.28,1.99-1.28
			c1.07,0,2.01,0.6,2.01,2.25v3.89h-0.6v-3.79c0-1.07-0.44-1.76-1.49-1.76c-1.43,0-1.92,1.19-1.92,2.49v3.06h-0.6V161.77z"/>
		<path d="M509.5,164.6c0.2,0.78,0.76,1.25,1.7,1.25c1.07,0,1.5-0.49,1.5-1.16c0-0.68-0.29-1.02-1.63-1.34
			c-1.55-0.37-1.93-0.84-1.93-1.63c0-0.83,0.62-1.6,1.98-1.6c1.36,0,2,0.83,2.1,1.68h-0.6c-0.11-0.5-0.5-1.13-1.52-1.13
			c-1.04,0-1.34,0.52-1.34,1c0,0.55,0.29,0.83,1.48,1.12c1.69,0.41,2.11,0.96,2.11,1.86c0,1.09-0.89,1.76-2.15,1.76
			c-1.37,0-2.13-0.72-2.3-1.8H509.5z"/>
		<path d="M461.84,172.26h3c1.54,0,2.59,0.85,2.59,2.34c0,1.51-1.04,2.4-2.67,2.4h-2.25v3.66h-0.66V172.26z M462.5,176.39h2.31
			c1.36,0,1.92-0.72,1.92-1.77c0-1.13-0.74-1.76-1.87-1.76h-2.36V176.39z"/>
		<path d="M469.59,171.81v3.85c0.34-0.62,0.92-1.15,1.98-1.15c0.85,0,2.03,0.43,2.03,2.33v3.81H473v-3.69
			c0-1.19-0.54-1.86-1.54-1.86c-1.19,0-1.87,0.73-1.87,2.21v3.35h-0.6v-8.84H469.59z"/>
		<path d="M475.41,174.65c1.21,3.43,1.74,4.85,1.94,5.49h0.01c0.24-0.73,0.72-2.12,1.88-5.49h0.62l-2.25,6.34
			c-0.63,1.78-1.07,2.17-2.15,2.17c-0.22,0-0.36-0.01-0.55-0.04v-0.6c0.18,0.02,0.35,0.04,0.54,0.04c0.86,0,1.14-0.42,1.58-1.66
			l-2.29-6.26H475.41z"/>
		<path d="M481.03,180.65v-8.84h0.6v8.84H481.03z"/>
		<path d="M488.46,177.64c0,1.67-0.92,3.15-2.71,3.15c-1.62,0-2.63-1.33-2.63-3.14c0-1.71,0.95-3.14,2.69-3.14
			C487.4,174.51,488.46,175.76,488.46,177.64z M483.75,177.65c0,1.43,0.77,2.58,2.04,2.58c1.3,0,2.03-1.07,2.03-2.58
			c0-1.42-0.72-2.58-2.05-2.58C484.4,175.07,483.75,176.21,483.75,177.65z"/>
		<path d="M494.53,180.24c0,1.92-0.85,2.93-2.59,2.93c-1.56,0-2.21-0.88-2.35-1.79h0.61c0.22,0.83,0.9,1.22,1.76,1.22
			c1.56,0,1.99-1.01,1.99-2.53v-0.62c-0.32,0.78-0.91,1.2-2,1.2c-1.4,0-2.48-1.14-2.48-3c0-2.01,1.15-3.14,2.57-3.14
			c1.22,0,1.75,0.58,1.92,1.06c0.01-0.35,0.02-0.77,0.04-0.91h0.56c0,0.22-0.02,1.16-0.02,1.74V180.24z M490.1,177.63
			c0,1.43,0.76,2.46,1.91,2.46c1.5,0,1.96-1,1.96-2.55c0-1.58-0.48-2.46-1.92-2.46C490.67,175.07,490.1,176.26,490.1,177.63z"/>
		<path d="M496.63,177.72c0.01,1.55,0.79,2.51,1.94,2.51c1.13,0,1.51-0.64,1.73-1.13h0.61c-0.25,0.79-0.89,1.69-2.36,1.69
			c-1.82,0-2.53-1.57-2.53-3.09c0-1.72,0.85-3.19,2.6-3.19c1.85,0,2.43,1.6,2.43,2.72c0,0.17,0,0.34-0.01,0.49H496.63z
			 M500.43,177.2c-0.01-1.19-0.66-2.12-1.83-2.12c-1.24,0-1.8,0.86-1.93,2.12H500.43z"/>
		<path d="M502.52,176.17c0-0.53,0-1.03-0.01-1.51h0.59c0.02,0.19,0.04,0.97,0.02,1.14c0.26-0.61,0.76-1.28,1.99-1.28
			c1.07,0,2.01,0.6,2.01,2.25v3.89h-0.6v-3.79c0-1.07-0.44-1.76-1.49-1.76c-1.43,0-1.92,1.19-1.92,2.49v3.06h-0.6V176.17z"/>
		<path d="M509.23,177.72c0.01,1.55,0.79,2.51,1.94,2.51c1.13,0,1.51-0.64,1.73-1.13h0.61c-0.25,0.79-0.89,1.69-2.36,1.69
			c-1.82,0-2.53-1.57-2.53-3.09c0-1.72,0.85-3.19,2.6-3.19c1.85,0,2.43,1.6,2.43,2.72c0,0.17,0,0.34-0.01,0.49H509.23z
			 M513.03,177.2c-0.01-1.19-0.66-2.12-1.83-2.12c-1.24,0-1.8,0.86-1.93,2.12H513.03z"/>
		<path d="M514.22,174.65h1.12v-1.87h0.6v1.87h1.43v0.56h-1.43v3.9c0,0.67,0.14,1.06,0.72,1.06c0.18,0,0.43-0.01,0.62-0.07v0.53
			c-0.2,0.08-0.49,0.11-0.74,0.11c-0.77,0-1.2-0.38-1.2-1.34v-4.17h-1.12V174.65z"/>
		<path d="M518.59,171.81h0.6v1.16h-0.6V171.81z M518.59,174.65h0.6v6h-0.6V174.65z"/>
		<path d="M525.57,178.89c-0.29,1.06-0.98,1.91-2.33,1.91c-1.5,0-2.57-1.12-2.57-3.12c0-1.64,0.88-3.17,2.64-3.17
			c1.52,0,2.15,1.08,2.25,1.92h-0.61c-0.18-0.7-0.64-1.36-1.66-1.36c-1.27,0-1.99,1.08-1.99,2.58c0,1.43,0.67,2.58,1.93,2.58
			c0.88,0,1.4-0.44,1.71-1.34H525.57z"/>
		<path d="M534.71,171.81v7.11c0,0.58,0,1.13,0.01,1.73h-0.58c-0.02-0.14-0.04-0.71-0.04-1.01c-0.3,0.73-0.97,1.15-2.01,1.15
			c-1.56,0-2.5-1.27-2.5-3.07c0-1.85,1.02-3.21,2.65-3.21c1.2,0,1.68,0.52,1.86,0.9v-3.6H534.71z M530.24,177.7
			c0,1.64,0.85,2.53,1.88,2.53c1.58,0,2.02-1.09,2.02-2.72c0-1.55-0.37-2.44-1.91-2.44C531.04,175.07,530.24,176.02,530.24,177.7z"
			/>
		<path d="M536.68,171.81h0.6v1.16h-0.6V171.81z M536.68,174.65h0.6v6h-0.6V174.65z"/>
		<path d="M539.1,174.65c0.97,2.75,1.64,4.62,1.87,5.38h0.01c0.13-0.44,0.8-2.23,1.97-5.38h0.64l-2.27,6h-0.72l-2.14-6H539.1z"/>
		<path d="M544.89,177.72c0.01,1.55,0.79,2.51,1.94,2.51c1.13,0,1.51-0.64,1.73-1.13h0.61c-0.25,0.79-0.89,1.69-2.36,1.69
			c-1.82,0-2.53-1.57-2.53-3.09c0-1.72,0.85-3.19,2.6-3.19c1.85,0,2.43,1.6,2.43,2.72c0,0.17,0,0.34-0.01,0.49H544.89z
			 M548.69,177.2c-0.01-1.19-0.66-2.12-1.83-2.12c-1.24,0-1.8,0.86-1.93,2.12H548.69z"/>
		<path d="M550.78,176.29c0-1.01-0.01-1.44-0.01-1.63h0.59c0.01,0.19,0.02,0.58,0.02,1.34c0.35-0.9,1.12-1.44,2.09-1.49v0.65
			c-1.25,0.08-2.09,0.95-2.09,2.38v3.12h-0.6V176.29z"/>
		<path d="M554.67,171.81h0.6v1.16h-0.6V171.81z M554.67,174.65h0.6v6h-0.6V174.65z"/>
		<path d="M557.24,179c0.2,0.78,0.76,1.25,1.7,1.25c1.07,0,1.5-0.49,1.5-1.16c0-0.68-0.29-1.02-1.63-1.34
			c-1.55-0.37-1.93-0.84-1.93-1.63c0-0.83,0.62-1.6,1.98-1.6s2,0.83,2.1,1.68h-0.6c-0.11-0.5-0.5-1.13-1.52-1.13
			c-1.04,0-1.34,0.52-1.34,1c0,0.55,0.29,0.83,1.48,1.12c1.69,0.41,2.11,0.96,2.11,1.86c0,1.09-0.89,1.76-2.15,1.76
			c-1.37,0-2.13-0.72-2.3-1.8H557.24z"/>
		<path d="M562.57,171.81h0.6v1.16h-0.6V171.81z M562.57,174.65h0.6v6h-0.6V174.65z"/>
		<path d="M564.24,174.65h1.12v-1.87h0.6v1.87h1.43v0.56h-1.43v3.9c0,0.67,0.14,1.06,0.72,1.06c0.18,0,0.43-0.01,0.62-0.07v0.53
			c-0.2,0.08-0.49,0.11-0.74,0.11c-0.77,0-1.2-0.38-1.2-1.34v-4.17h-1.12V174.65z"/>
		<path d="M568.45,174.65c1.21,3.43,1.74,4.85,1.94,5.49h0.01c0.24-0.73,0.72-2.12,1.88-5.49h0.62l-2.25,6.34
			c-0.64,1.78-1.07,2.17-2.15,2.17c-0.22,0-0.36-0.01-0.55-0.04v-0.6c0.18,0.02,0.35,0.04,0.54,0.04c0.86,0,1.14-0.42,1.58-1.66
			l-2.29-6.26H568.45z"/>
		<path d="M466.77,190.92h-4.28v3.53h4.69l-0.1,0.6h-5.24v-8.4h5.15v0.6h-4.5v3.07h4.28V190.92z"/>
		<path d="M468.49,189.05c0.97,2.75,1.64,4.62,1.87,5.38h0.01c0.13-0.44,0.8-2.23,1.97-5.38h0.64l-2.27,6h-0.72l-2.13-6H468.49z"/>
		<path d="M479.01,192.04c0,1.67-0.92,3.15-2.71,3.15c-1.62,0-2.63-1.33-2.63-3.14c0-1.71,0.95-3.14,2.69-3.14
			C477.96,188.91,479.01,190.16,479.01,192.04z M474.31,192.05c0,1.43,0.77,2.58,2.04,2.58c1.3,0,2.03-1.07,2.03-2.58
			c0-1.42-0.72-2.58-2.05-2.58C474.96,189.47,474.31,190.61,474.31,192.05z"/>
		<path d="M480.5,195.05v-8.84h0.6v8.84H480.5z"/>
		<path d="M487.56,193.3c0,0.59,0.01,1.52,0.01,1.75h-0.58c-0.02-0.16-0.04-0.55-0.04-1.04c-0.25,0.71-0.86,1.19-1.93,1.19
			c-0.86,0-1.97-0.34-1.97-2.17v-3.97h0.59v3.83c0,0.88,0.28,1.73,1.46,1.73c1.34,0,1.85-0.76,1.85-2.47v-3.08h0.6V193.3z"/>
		<path d="M488.63,189.05h1.12v-1.87h0.6v1.87h1.43v0.56h-1.43v3.9c0,0.67,0.14,1.06,0.72,1.06c0.18,0,0.43-0.01,0.62-0.07v0.53
			c-0.2,0.08-0.49,0.11-0.74,0.11c-0.77,0-1.2-0.38-1.2-1.34v-4.17h-1.12V189.05z"/>
		<path d="M492.99,186.21h0.6v1.16h-0.6V186.21z M492.99,189.05h0.6v6h-0.6V189.05z"/>
		<path d="M500.42,192.04c0,1.67-0.92,3.15-2.71,3.15c-1.62,0-2.63-1.33-2.63-3.14c0-1.71,0.95-3.14,2.69-3.14
			C499.36,188.91,500.42,190.16,500.42,192.04z M495.72,192.05c0,1.43,0.77,2.58,2.04,2.58c1.3,0,2.03-1.07,2.03-2.58
			c0-1.42-0.72-2.58-2.05-2.58C496.37,189.47,495.72,190.61,495.72,192.05z"/>
		<path d="M501.91,190.57c0-0.53,0-1.03-0.01-1.51h0.59c0.02,0.19,0.04,0.97,0.02,1.14c0.26-0.61,0.76-1.28,1.99-1.28
			c1.07,0,2.01,0.6,2.01,2.25v3.89h-0.6v-3.79c0-1.07-0.44-1.76-1.49-1.76c-1.43,0-1.92,1.19-1.92,2.49v3.06h-0.6V190.57z"/>
		<path d="M512.6,193.91c0,0.53,0.05,0.95,0.08,1.14h-0.58c-0.05-0.14-0.08-0.41-0.11-0.92c-0.2,0.44-0.73,1.07-1.97,1.07
			c-1.39,0-1.99-0.9-1.99-1.8c0-1.32,1.02-1.92,2.82-1.92c0.5,0,0.9,0,1.14,0v-0.61c0-0.6-0.18-1.4-1.55-1.4
			c-1.21,0-1.39,0.64-1.52,1.13h-0.6c0.07-0.66,0.48-1.68,2.13-1.68c1.37,0,2.13,0.58,2.13,1.9V193.91z M512.01,191.99
			c-0.23,0-0.78,0-1.18,0c-1.33,0-2.16,0.35-2.16,1.38c0,0.76,0.54,1.27,1.38,1.27c1.71,0,1.96-1.14,1.96-2.43V191.99z"/>
		<path d="M514.58,190.69c0-1.01-0.01-1.44-0.01-1.63h0.59c0.01,0.19,0.02,0.58,0.02,1.34c0.35-0.9,1.12-1.44,2.09-1.49v0.65
			c-1.25,0.08-2.09,0.95-2.09,2.38v3.12h-0.6V190.69z"/>
		<path d="M518.31,189.05c1.21,3.43,1.74,4.85,1.94,5.49h0.01c0.24-0.73,0.72-2.12,1.88-5.49h0.62l-2.25,6.34
			c-0.64,1.78-1.07,2.17-2.15,2.17c-0.22,0-0.36-0.01-0.55-0.04v-0.6c0.18,0.02,0.35,0.04,0.54,0.04c0.86,0,1.14-0.42,1.58-1.66
			l-2.29-6.26H518.31z"/>
		<path d="M531.68,186.21v7.11c0,0.58,0,1.13,0.01,1.73h-0.58c-0.02-0.14-0.04-0.71-0.04-1.01c-0.3,0.73-0.97,1.15-2.02,1.15
			c-1.56,0-2.49-1.27-2.49-3.07c0-1.85,1.02-3.21,2.65-3.21c1.2,0,1.68,0.52,1.86,0.9v-3.6H531.68z M527.2,192.1
			c0,1.64,0.85,2.53,1.88,2.53c1.58,0,2.01-1.09,2.01-2.72c0-1.55-0.37-2.44-1.91-2.44C528.01,189.47,527.2,190.42,527.2,192.1z"/>
		<path d="M533.65,186.21h0.6v1.16h-0.6V186.21z M533.65,189.05h0.6v6h-0.6V189.05z"/>
		<path d="M536.22,193.4c0.2,0.78,0.76,1.25,1.7,1.25c1.07,0,1.5-0.49,1.5-1.16c0-0.68-0.29-1.02-1.63-1.34
			c-1.55-0.37-1.93-0.84-1.93-1.63c0-0.83,0.62-1.6,1.98-1.6s2,0.83,2.1,1.68h-0.6c-0.11-0.5-0.5-1.13-1.52-1.13
			c-1.04,0-1.34,0.52-1.34,1c0,0.55,0.29,0.83,1.48,1.12c1.69,0.41,2.11,0.96,2.11,1.86c0,1.09-0.89,1.76-2.15,1.76
			c-1.37,0-2.13-0.72-2.3-1.8H536.22z"/>
		<path d="M540.65,189.05h1.12v-1.87h0.6v1.87h1.43v0.56h-1.43v3.9c0,0.67,0.14,1.06,0.72,1.06c0.18,0,0.43-0.01,0.62-0.07v0.53
			c-0.2,0.08-0.49,0.11-0.74,0.11c-0.77,0-1.2-0.38-1.2-1.34v-4.17h-1.12V189.05z"/>
		<path d="M545.01,186.21h0.6v1.16h-0.6V186.21z M545.01,189.05h0.6v6h-0.6V189.05z"/>
		<path d="M547.58,190.57c0-0.53,0-1.03-0.01-1.51h0.59c0.02,0.19,0.04,0.97,0.02,1.14c0.26-0.61,0.76-1.28,1.99-1.28
			c1.07,0,2.01,0.6,2.01,2.25v3.89h-0.6v-3.79c0-1.07-0.44-1.76-1.49-1.76c-1.43,0-1.92,1.19-1.92,2.49v3.06h-0.6V190.57z"/>
		<path d="M558.57,193.29c-0.29,1.06-0.98,1.91-2.33,1.91c-1.5,0-2.57-1.12-2.57-3.12c0-1.64,0.88-3.17,2.64-3.17
			c1.52,0,2.15,1.08,2.25,1.92h-0.61c-0.18-0.7-0.64-1.36-1.66-1.36c-1.27,0-1.99,1.08-1.99,2.58c0,1.43,0.67,2.58,1.93,2.58
			c0.88,0,1.4-0.44,1.71-1.34H558.57z"/>
		<path d="M559.06,189.05h1.12v-1.87h0.6v1.87h1.43v0.56h-1.43v3.9c0,0.67,0.14,1.06,0.72,1.06c0.18,0,0.43-0.01,0.62-0.07v0.53
			c-0.2,0.08-0.49,0.11-0.74,0.11c-0.77,0-1.2-0.38-1.2-1.34v-4.17h-1.12V189.05z"/>
		<path d="M563.43,186.21h0.6v1.16h-0.6V186.21z M563.43,189.05h0.6v6h-0.6V189.05z"/>
		<path d="M565.84,189.05c0.97,2.75,1.64,4.62,1.87,5.38h0.01c0.13-0.44,0.8-2.23,1.97-5.38h0.64l-2.27,6h-0.72l-2.14-6H565.84z"/>
		<path d="M571.64,192.12c0.01,1.55,0.79,2.51,1.94,2.51c1.13,0,1.51-0.64,1.73-1.13h0.61c-0.25,0.79-0.89,1.69-2.36,1.69
			c-1.82,0-2.53-1.57-2.53-3.09c0-1.72,0.85-3.19,2.6-3.19c1.85,0,2.43,1.6,2.43,2.72c0,0.17,0,0.34-0.01,0.49H571.64z
			 M575.44,191.6c-0.01-1.19-0.66-2.12-1.83-2.12c-1.24,0-1.8,0.86-1.93,2.12H575.44z"/>
		<path d="M577.53,190.57c0-0.53,0-1.03-0.01-1.51h0.59c0.02,0.19,0.04,0.97,0.02,1.14c0.26-0.61,0.76-1.28,1.99-1.28
			c1.07,0,2.01,0.6,2.01,2.25v3.89h-0.6v-3.79c0-1.07-0.44-1.76-1.49-1.76c-1.43,0-1.92,1.19-1.92,2.49v3.06h-0.6V190.57z"/>
		<path d="M584.24,192.12c0.01,1.55,0.79,2.51,1.94,2.51c1.13,0,1.51-0.64,1.73-1.13h0.61c-0.25,0.79-0.89,1.69-2.36,1.69
			c-1.82,0-2.53-1.57-2.53-3.09c0-1.72,0.85-3.19,2.6-3.19c1.85,0,2.43,1.6,2.43,2.72c0,0.17,0,0.34-0.01,0.49H584.24z
			 M588.04,191.6c-0.01-1.19-0.66-2.12-1.83-2.12c-1.24,0-1.8,0.86-1.93,2.12H588.04z"/>
		<path d="M590.13,193.4c0.2,0.78,0.76,1.25,1.7,1.25c1.07,0,1.5-0.49,1.5-1.16c0-0.68-0.29-1.02-1.63-1.34
			c-1.55-0.37-1.93-0.84-1.93-1.63c0-0.83,0.62-1.6,1.98-1.6s2,0.83,2.1,1.68h-0.6c-0.11-0.5-0.5-1.13-1.52-1.13
			c-1.04,0-1.34,0.52-1.34,1c0,0.55,0.29,0.83,1.48,1.12c1.69,0.41,2.11,0.96,2.11,1.86c0,1.09-0.89,1.76-2.15,1.76
			c-1.37,0-2.13-0.72-2.3-1.8H590.13z"/>
		<path d="M595.46,193.4c0.2,0.78,0.76,1.25,1.7,1.25c1.07,0,1.5-0.49,1.5-1.16c0-0.68-0.29-1.02-1.63-1.34
			c-1.55-0.37-1.93-0.84-1.93-1.63c0-0.83,0.62-1.6,1.98-1.6s2,0.83,2.1,1.68h-0.6c-0.11-0.5-0.5-1.13-1.52-1.13
			c-1.04,0-1.34,0.52-1.34,1c0,0.55,0.29,0.83,1.48,1.12c1.69,0.41,2.11,0.96,2.11,1.86c0,1.09-0.89,1.76-2.15,1.76
			c-1.37,0-2.13-0.72-2.3-1.8H595.46z"/>
	</g>
</g>
<g>
	<g>
		<path d="M437.69,323.02c0-1.64,0.01-3.21,0.05-4.05h-0.04c-0.34,1.13-2.04,5.27-3.11,7.92h-0.64c-0.8-2.05-2.57-6.66-2.95-7.93
			h-0.02c0.06,0.96,0.08,2.91,0.08,4.35v3.57h-0.65v-8.4h0.97c1.15,2.88,2.6,6.64,2.91,7.59h0.02c0.19-0.61,1.87-4.8,3.05-7.59h0.96
			v8.4h-0.65V323.02z"/>
		<path d="M445.36,323.87c0,1.67-0.92,3.15-2.71,3.15c-1.62,0-2.63-1.33-2.63-3.14c0-1.71,0.95-3.14,2.69-3.14
			C444.3,320.74,445.36,321.99,445.36,323.87z M440.66,323.89c0,1.43,0.77,2.58,2.04,2.58c1.29,0,2.03-1.07,2.03-2.58
			c0-1.42-0.72-2.58-2.05-2.58C441.31,321.31,440.66,322.45,440.66,323.89z"/>
		<path d="M451.34,325.13c0,0.59,0.01,1.52,0.01,1.75h-0.58c-0.02-0.16-0.04-0.55-0.04-1.04c-0.25,0.71-0.86,1.19-1.93,1.19
			c-0.86,0-1.97-0.34-1.97-2.17v-3.97h0.59v3.83c0,0.88,0.28,1.73,1.46,1.73c1.34,0,1.85-0.75,1.85-2.47v-3.08h0.6V325.13z"/>
		<path d="M453.31,322.4c0-0.53,0-1.03-0.01-1.51h0.59c0.02,0.19,0.04,0.97,0.02,1.14c0.26-0.61,0.76-1.28,1.99-1.28
			c1.07,0,2.01,0.6,2.01,2.25v3.89h-0.6v-3.79c0-1.07-0.44-1.76-1.49-1.76c-1.43,0-1.92,1.19-1.92,2.49v3.06h-0.6V322.4z"/>
		<path d="M458.98,320.89h1.12v-1.87h0.6v1.87h1.43v0.56h-1.43v3.9c0,0.67,0.14,1.06,0.72,1.06c0.18,0,0.43-0.01,0.62-0.07v0.53
			c-0.2,0.08-0.49,0.11-0.74,0.11c-0.77,0-1.2-0.38-1.2-1.34v-4.17h-1.12V320.89z"/>
		<path d="M467.46,325.75c0,0.53,0.05,0.95,0.08,1.14h-0.58c-0.05-0.14-0.08-0.41-0.11-0.92c-0.2,0.44-0.73,1.07-1.97,1.07
			c-1.39,0-1.99-0.9-1.99-1.8c0-1.32,1.02-1.92,2.82-1.92c0.5,0,0.9,0,1.14,0v-0.61c0-0.6-0.18-1.4-1.55-1.4
			c-1.21,0-1.39,0.64-1.52,1.13h-0.6c0.07-0.66,0.48-1.68,2.13-1.68c1.37,0,2.13,0.58,2.13,1.89V325.75z M466.88,323.83
			c-0.23,0-0.78,0-1.18,0c-1.33,0-2.16,0.35-2.16,1.38c0,0.76,0.54,1.27,1.38,1.27c1.71,0,1.96-1.14,1.96-2.43V323.83z"/>
		<path d="M469.45,318.04h0.6v1.16h-0.6V318.04z M469.45,320.89h0.6v6h-0.6V320.89z"/>
		<path d="M472.01,322.4c0-0.53,0-1.03-0.01-1.51h0.59c0.02,0.19,0.04,0.97,0.02,1.14c0.26-0.61,0.76-1.28,1.99-1.28
			c1.07,0,2.01,0.6,2.01,2.25v3.89h-0.6v-3.79c0-1.07-0.44-1.76-1.49-1.76c-1.43,0-1.92,1.19-1.92,2.49v3.06h-0.6V322.4z"/>
		<path d="M486.12,325.12c-0.29,1.06-0.98,1.91-2.33,1.91c-1.5,0-2.57-1.12-2.57-3.12c0-1.64,0.88-3.17,2.64-3.17
			c1.52,0,2.15,1.08,2.25,1.92h-0.61c-0.18-0.7-0.64-1.36-1.66-1.36c-1.27,0-1.99,1.08-1.99,2.58c0,1.43,0.67,2.58,1.93,2.58
			c0.88,0,1.4-0.44,1.71-1.34H486.12z"/>
		<path d="M488.12,318.04v3.85c0.34-0.62,0.92-1.15,1.98-1.15c0.85,0,2.03,0.43,2.03,2.33v3.81h-0.6v-3.69
			c0-1.19-0.54-1.86-1.54-1.86c-1.19,0-1.87,0.73-1.87,2.21v3.35h-0.6v-8.84H488.12z"/>
		<path d="M498.21,325.75c0,0.53,0.05,0.95,0.08,1.14h-0.58c-0.05-0.14-0.08-0.41-0.11-0.92c-0.2,0.44-0.73,1.07-1.97,1.07
			c-1.39,0-1.99-0.9-1.99-1.8c0-1.32,1.02-1.92,2.82-1.92c0.5,0,0.9,0,1.14,0v-0.61c0-0.6-0.18-1.4-1.55-1.4
			c-1.21,0-1.39,0.64-1.52,1.13h-0.6c0.07-0.66,0.48-1.68,2.13-1.68c1.37,0,2.14,0.58,2.14,1.89V325.75z M497.62,323.83
			c-0.23,0-0.78,0-1.18,0c-1.33,0-2.16,0.35-2.16,1.38c0,0.76,0.54,1.27,1.38,1.27c1.71,0,1.96-1.14,1.96-2.43V323.83z"/>
		<path d="M500.19,318.04h0.6v1.16h-0.6V318.04z M500.19,320.89h0.6v6h-0.6V320.89z"/>
		<path d="M502.76,322.4c0-0.53,0-1.03-0.01-1.51h0.59c0.02,0.19,0.04,0.97,0.02,1.14c0.26-0.61,0.76-1.28,1.99-1.28
			c1.07,0,2.01,0.6,2.01,2.25v3.89h-0.6v-3.79c0-1.07-0.44-1.76-1.49-1.76c-1.43,0-1.92,1.19-1.92,2.49v3.06h-0.6V322.4z"/>
		<path d="M430.42,341.28v-8.4h0.96c1.31,2.02,4.38,6.71,4.91,7.62h0.01c-0.07-1.21-0.06-2.45-0.06-3.81v-3.8h0.66v8.4h-0.89
			c-1.25-1.94-4.37-6.82-4.96-7.75h-0.01c0.06,1.1,0.05,2.33,0.05,3.85v3.9H430.42z"/>
		<path d="M439.2,338.36c0.01,1.55,0.79,2.51,1.94,2.51c1.13,0,1.51-0.63,1.73-1.13h0.61c-0.25,0.79-0.89,1.69-2.36,1.69
			c-1.82,0-2.53-1.57-2.53-3.09c0-1.71,0.85-3.19,2.6-3.19c1.85,0,2.43,1.6,2.43,2.72c0,0.17,0,0.34-0.01,0.49H439.2z M443,337.83
			c-0.01-1.19-0.66-2.12-1.83-2.12c-1.24,0-1.8,0.86-1.93,2.12H443z"/>
		<path d="M449.94,338.27c0,1.67-0.92,3.15-2.71,3.15c-1.62,0-2.63-1.33-2.63-3.14c0-1.71,0.95-3.14,2.69-3.14
			C448.89,335.14,449.94,336.39,449.94,338.27z M445.24,338.29c0,1.43,0.77,2.58,2.04,2.58c1.29,0,2.03-1.07,2.03-2.58
			c0-1.42-0.72-2.58-2.05-2.58C445.89,335.71,445.24,336.85,445.24,338.29z"/>
		<path d="M450.54,335.29h1.12v-1.87h0.6v1.87h1.43v0.56h-1.43v3.9c0,0.67,0.14,1.06,0.72,1.06c0.18,0,0.43-0.01,0.62-0.07v0.53
			c-0.2,0.08-0.49,0.11-0.74,0.11c-0.77,0-1.2-0.38-1.2-1.34v-4.17h-1.12V335.29z"/>
		<path d="M454.9,336.92c0-1.01-0.01-1.44-0.01-1.63h0.59c0.01,0.19,0.02,0.58,0.02,1.34c0.35-0.9,1.12-1.44,2.09-1.49v0.65
			c-1.25,0.08-2.09,0.95-2.09,2.38v3.12h-0.6V336.92z"/>
		<path d="M463.65,338.27c0,1.67-0.92,3.15-2.71,3.15c-1.62,0-2.63-1.33-2.63-3.14c0-1.71,0.95-3.14,2.69-3.14
			C462.59,335.14,463.65,336.39,463.65,338.27z M458.95,338.29c0,1.43,0.77,2.58,2.04,2.58c1.3,0,2.03-1.07,2.03-2.58
			c0-1.42-0.72-2.58-2.05-2.58C459.59,335.71,458.95,336.85,458.95,338.29z"/>
		<path d="M465.74,340.4v3.29h-0.6v-6.92c0-0.49,0-1.02-0.01-1.47h0.59c0.02,0.23,0.02,0.59,0.02,1.08
			c0.37-0.72,1.03-1.22,2.11-1.22c1.42,0,2.4,1.19,2.4,2.99c0,2.16-1.15,3.3-2.6,3.3C466.59,341.43,466.04,340.96,465.74,340.4z
			 M469.61,338.15c0-1.39-0.67-2.43-1.86-2.43c-1.45,0-2.05,0.91-2.05,2.54c0,1.61,0.47,2.6,1.97,2.6
			C468.92,340.86,469.61,339.81,469.61,338.15z"/>
		<path d="M471.75,332.45h0.6v1.16h-0.6V332.45z M471.75,335.29h0.6v6h-0.6V335.29z"/>
		<path d="M478.73,339.52c-0.29,1.06-0.98,1.91-2.33,1.91c-1.5,0-2.57-1.12-2.57-3.12c0-1.64,0.88-3.17,2.64-3.17
			c1.52,0,2.15,1.08,2.25,1.92h-0.61c-0.18-0.7-0.64-1.36-1.66-1.36c-1.27,0-1.99,1.08-1.99,2.58c0,1.43,0.67,2.58,1.93,2.58
			c0.88,0,1.4-0.44,1.71-1.34H478.73z"/>
		<path d="M480.13,339.63c0.2,0.78,0.76,1.25,1.7,1.25c1.07,0,1.5-0.49,1.5-1.16c0-0.68-0.29-1.02-1.63-1.34
			c-1.55-0.37-1.93-0.84-1.93-1.63c0-0.83,0.62-1.6,1.98-1.6c1.36,0,2,0.83,2.1,1.68h-0.6c-0.11-0.5-0.5-1.13-1.52-1.13
			c-1.04,0-1.34,0.52-1.34,1c0,0.55,0.29,0.83,1.48,1.12c1.69,0.41,2.11,0.96,2.11,1.86c0,1.09-0.89,1.76-2.15,1.76
			c-1.37,0-2.13-0.72-2.3-1.8H480.13z"/>
	</g>
</g>
<g>
	<g>
		<path d="M112.24,374.79l-1.07,2.9h-0.66l3.08-8.4h0.77l3.21,8.4h-0.71l-1.09-2.9H112.24z M115.57,374.19
			c-0.94-2.5-1.42-3.69-1.58-4.26h-0.01c-0.2,0.64-0.74,2.12-1.5,4.26H115.57z"/>
		<path d="M118.88,376.04c0.2,0.78,0.76,1.25,1.7,1.25c1.07,0,1.5-0.49,1.5-1.16c0-0.68-0.29-1.02-1.63-1.34
			c-1.55-0.37-1.93-0.84-1.93-1.63c0-0.83,0.62-1.59,1.98-1.59c1.36,0,2,0.83,2.1,1.68H122c-0.11-0.5-0.5-1.13-1.52-1.13
			c-1.04,0-1.34,0.52-1.34,1c0,0.55,0.29,0.83,1.48,1.12c1.69,0.41,2.11,0.96,2.11,1.86c0,1.09-0.89,1.76-2.15,1.76
			c-1.37,0-2.13-0.72-2.3-1.8H118.88z"/>
		<path d="M124.21,376.04c0.2,0.78,0.76,1.25,1.7,1.25c1.07,0,1.5-0.49,1.5-1.16c0-0.68-0.29-1.02-1.63-1.34
			c-1.55-0.37-1.93-0.84-1.93-1.63c0-0.83,0.62-1.59,1.98-1.59s2,0.83,2.1,1.68h-0.6c-0.11-0.5-0.5-1.13-1.52-1.13
			c-1.04,0-1.34,0.52-1.34,1c0,0.55,0.29,0.83,1.48,1.12c1.69,0.41,2.11,0.96,2.11,1.86c0,1.09-0.89,1.76-2.15,1.76
			c-1.37,0-2.13-0.72-2.3-1.8H124.21z"/>
		<path d="M129.67,374.77c0.01,1.55,0.79,2.51,1.94,2.51c1.13,0,1.51-0.64,1.73-1.13h0.61c-0.25,0.79-0.89,1.69-2.36,1.69
			c-1.82,0-2.53-1.57-2.53-3.09c0-1.72,0.85-3.19,2.6-3.19c1.85,0,2.43,1.59,2.43,2.72c0,0.17,0,0.33-0.01,0.49H129.67z
			 M133.47,374.24c-0.01-1.19-0.66-2.12-1.83-2.12c-1.24,0-1.8,0.86-1.93,2.12H133.47z"/>
		<path d="M135.56,376.04c0.2,0.78,0.76,1.25,1.7,1.25c1.07,0,1.5-0.49,1.5-1.16c0-0.68-0.29-1.02-1.63-1.34
			c-1.55-0.37-1.93-0.84-1.93-1.63c0-0.83,0.62-1.59,1.98-1.59s2,0.83,2.1,1.68h-0.6c-0.11-0.5-0.5-1.13-1.52-1.13
			c-1.04,0-1.34,0.52-1.34,1c0,0.55,0.29,0.83,1.48,1.12c1.69,0.41,2.11,0.96,2.11,1.86c0,1.09-0.89,1.76-2.15,1.76
			c-1.37,0-2.13-0.72-2.3-1.8H135.56z"/>
		<path d="M140.89,376.04c0.2,0.78,0.76,1.25,1.7,1.25c1.07,0,1.5-0.49,1.5-1.16c0-0.68-0.29-1.02-1.63-1.34
			c-1.55-0.37-1.93-0.84-1.93-1.63c0-0.83,0.62-1.59,1.98-1.59c1.36,0,2,0.83,2.1,1.68h-0.6c-0.11-0.5-0.5-1.13-1.52-1.13
			c-1.04,0-1.34,0.52-1.34,1c0,0.55,0.29,0.83,1.48,1.12c1.69,0.41,2.11,0.96,2.11,1.86c0,1.09-0.89,1.76-2.15,1.76
			c-1.37,0-2.13-0.72-2.3-1.8H140.89z"/>
		<path d="M146.22,373.24c0-0.52,0-1.08-0.01-1.55h0.59c0.01,0.2,0.04,0.72,0.02,1.07c0.25-0.6,0.8-1.21,1.8-1.21
			c0.84,0,1.5,0.42,1.74,1.19c0.3-0.62,0.9-1.19,1.96-1.19c0.92,0,1.88,0.53,1.88,2.19v3.95h-0.6v-3.87c0-0.8-0.29-1.68-1.4-1.68
			c-1.16,0-1.69,0.93-1.69,2.1v3.45h-0.59v-3.86c0-0.88-0.26-1.69-1.37-1.69c-1.16,0-1.73,1.03-1.73,2.25v3.3h-0.6V373.24z"/>
		<path d="M156.29,374.77c0.01,1.55,0.79,2.51,1.94,2.51c1.13,0,1.51-0.64,1.73-1.13h0.61c-0.25,0.79-0.89,1.69-2.36,1.69
			c-1.82,0-2.53-1.57-2.53-3.09c0-1.72,0.85-3.19,2.6-3.19c1.85,0,2.43,1.59,2.43,2.72c0,0.17,0,0.33-0.01,0.49H156.29z
			 M160.1,374.24c-0.01-1.19-0.66-2.12-1.83-2.12c-1.24,0-1.8,0.86-1.93,2.12H160.1z"/>
		<path d="M162.19,373.21c0-0.53,0-1.03-0.01-1.51h0.59c0.02,0.19,0.04,0.97,0.02,1.14c0.26-0.61,0.76-1.28,1.99-1.28
			c1.07,0,2.01,0.6,2.01,2.25v3.89h-0.6v-3.79c0-1.07-0.44-1.76-1.49-1.76c-1.43,0-1.92,1.19-1.92,2.49v3.06h-0.6V373.21z"/>
		<path d="M167.86,371.7h1.12v-1.87h0.6v1.87h1.43v0.56h-1.43v3.9c0,0.67,0.14,1.06,0.72,1.06c0.18,0,0.43-0.01,0.62-0.07v0.53
			c-0.2,0.08-0.49,0.11-0.74,0.11c-0.77,0-1.2-0.38-1.2-1.34v-4.17h-1.12V371.7z"/>
		<path d="M112.24,389.19l-1.07,2.9h-0.66l3.08-8.4h0.77l3.21,8.4h-0.71l-1.09-2.9H112.24z M115.57,388.59
			c-0.94-2.49-1.42-3.69-1.58-4.26h-0.01c-0.2,0.64-0.74,2.12-1.5,4.26H115.57z"/>
		<path d="M118.88,387.73c0-1.01-0.01-1.44-0.01-1.63h0.59c0.01,0.19,0.02,0.58,0.02,1.34c0.35-0.9,1.12-1.44,2.09-1.49v0.65
			c-1.25,0.08-2.09,0.95-2.09,2.38v3.12h-0.6V387.73z"/>
		<path d="M122.9,389.17c0.01,1.55,0.79,2.51,1.94,2.51c1.13,0,1.51-0.63,1.73-1.13h0.61c-0.25,0.79-0.89,1.69-2.36,1.69
			c-1.82,0-2.53-1.57-2.53-3.09c0-1.71,0.85-3.19,2.6-3.19c1.85,0,2.43,1.6,2.43,2.72c0,0.17,0,0.34-0.01,0.49H122.9z M126.7,388.64
			c-0.01-1.19-0.66-2.12-1.83-2.12c-1.24,0-1.8,0.86-1.93,2.12H126.7z"/>
		<path d="M132.91,390.96c0,0.53,0.05,0.95,0.08,1.14h-0.58c-0.05-0.14-0.08-0.41-0.11-0.92c-0.2,0.44-0.73,1.07-1.97,1.07
			c-1.39,0-1.99-0.9-1.99-1.8c0-1.32,1.02-1.92,2.82-1.92c0.5,0,0.9,0,1.14,0v-0.61c0-0.6-0.18-1.4-1.55-1.4
			c-1.21,0-1.39,0.64-1.52,1.13h-0.6c0.07-0.66,0.48-1.68,2.13-1.68c1.37,0,2.13,0.58,2.13,1.9V390.96z M132.32,389.04
			c-0.23,0-0.78,0-1.18,0c-1.33,0-2.16,0.35-2.16,1.38c0,0.76,0.54,1.27,1.38,1.27c1.71,0,1.96-1.14,1.96-2.43V389.04z"/>
		<path d="M138.61,391.21v3.29h-0.6v-6.92c0-0.49,0-1.02-0.01-1.47h0.59c0.02,0.23,0.02,0.59,0.02,1.08
			c0.37-0.72,1.03-1.22,2.11-1.22c1.42,0,2.4,1.19,2.4,2.99c0,2.16-1.15,3.3-2.6,3.3C139.46,392.24,138.91,391.77,138.61,391.21z
			 M142.48,388.96c0-1.39-0.67-2.43-1.86-2.43c-1.45,0-2.05,0.91-2.05,2.54c0,1.61,0.47,2.6,1.97,2.6
			C141.79,391.67,142.48,390.62,142.48,388.96z"/>
		<path d="M144.62,387.73c0-1.01-0.01-1.44-0.01-1.63h0.59c0.01,0.19,0.02,0.58,0.02,1.34c0.35-0.9,1.12-1.44,2.09-1.49v0.65
			c-1.25,0.08-2.09,0.95-2.09,2.38v3.12h-0.6V387.73z"/>
		<path d="M148.51,383.25h0.6v1.16h-0.6V383.25z M148.51,386.1h0.6v6h-0.6V386.1z"/>
		<path d="M155.93,389.08c0,1.67-0.92,3.15-2.71,3.15c-1.62,0-2.63-1.33-2.63-3.14c0-1.71,0.95-3.14,2.69-3.14
			C154.88,385.95,155.93,387.2,155.93,389.08z M151.23,389.1c0,1.43,0.77,2.58,2.04,2.58c1.3,0,2.03-1.07,2.03-2.58
			c0-1.42-0.72-2.58-2.05-2.58C151.88,386.52,151.23,387.66,151.23,389.1z"/>
		<path d="M157.42,387.73c0-1.01-0.01-1.44-0.01-1.63H158c0.01,0.19,0.02,0.58,0.02,1.34c0.35-0.9,1.12-1.44,2.09-1.49v0.65
			c-1.25,0.08-2.09,0.95-2.09,2.38v3.12h-0.6V387.73z"/>
		<path d="M161.31,383.25h0.6v1.16h-0.6V383.25z M161.31,386.1h0.6v6h-0.6V386.1z"/>
		<path d="M163.16,391.54l3.79-4.88h-3.6v-0.56h4.29v0.58l-3.74,4.86h3.87l-0.14,0.56h-4.47V391.54z"/>
		<path d="M173.09,390.96c0,0.53,0.05,0.95,0.08,1.14h-0.58c-0.05-0.14-0.08-0.41-0.11-0.92c-0.2,0.44-0.73,1.07-1.97,1.07
			c-1.39,0-1.99-0.9-1.99-1.8c0-1.32,1.02-1.92,2.82-1.92c0.5,0,0.9,0,1.14,0v-0.61c0-0.6-0.18-1.4-1.55-1.4
			c-1.21,0-1.39,0.64-1.52,1.13h-0.6c0.07-0.66,0.48-1.68,2.13-1.68c1.37,0,2.13,0.58,2.13,1.9V390.96z M172.51,389.04
			c-0.23,0-0.78,0-1.18,0c-1.33,0-2.16,0.35-2.16,1.38c0,0.76,0.54,1.27,1.38,1.27c1.71,0,1.96-1.14,1.96-2.43V389.04z"/>
		<path d="M174.18,386.1h1.12v-1.87h0.6v1.87h1.43v0.56h-1.43v3.9c0,0.67,0.14,1.06,0.72,1.06c0.18,0,0.43-0.01,0.62-0.07v0.53
			c-0.2,0.08-0.49,0.11-0.74,0.11c-0.77,0-1.2-0.38-1.2-1.34v-4.17h-1.12V386.1z"/>
		<path d="M178.54,383.25h0.6v1.16h-0.6V383.25z M178.54,386.1h0.6v6h-0.6V386.1z"/>
		<path d="M185.97,389.08c0,1.67-0.92,3.15-2.71,3.15c-1.62,0-2.63-1.33-2.63-3.14c0-1.71,0.95-3.14,2.69-3.14
			C184.91,385.95,185.97,387.2,185.97,389.08z M181.27,389.1c0,1.43,0.77,2.58,2.04,2.58c1.29,0,2.03-1.07,2.03-2.58
			c0-1.42-0.72-2.58-2.05-2.58C181.91,386.52,181.27,387.66,181.27,389.1z"/>
		<path d="M187.46,387.61c0-0.53,0-1.03-0.01-1.51h0.59c0.02,0.19,0.04,0.97,0.02,1.14c0.26-0.61,0.76-1.28,1.99-1.28
			c1.07,0,2.01,0.6,2.01,2.25v3.89h-0.6v-3.79c0-1.07-0.44-1.76-1.49-1.76c-1.43,0-1.92,1.19-1.92,2.5v3.06h-0.6V387.61z"/>
		<path d="M111.44,404.24c0.25,1.12,1,1.78,2.37,1.78c1.54,0,2.12-0.77,2.12-1.68c0-0.95-0.42-1.54-2.27-1.99
			c-1.78-0.44-2.54-1.02-2.54-2.23c0-1.1,0.8-2.13,2.6-2.13c1.85,0,2.63,1.13,2.73,2.15h-0.67c-0.19-0.9-0.78-1.55-2.1-1.55
			c-1.21,0-1.87,0.56-1.87,1.5c0,0.92,0.55,1.28,2.1,1.67c2.36,0.59,2.71,1.54,2.71,2.54c0,1.24-0.9,2.3-2.84,2.3
			c-2.1,0-2.87-1.22-3.02-2.35H111.44z"/>
		<path d="M122.65,404.73c-0.29,1.06-0.98,1.91-2.33,1.91c-1.5,0-2.57-1.12-2.57-3.12c0-1.64,0.88-3.17,2.64-3.17
			c1.52,0,2.15,1.08,2.25,1.92h-0.61c-0.18-0.7-0.64-1.36-1.65-1.36c-1.27,0-1.99,1.08-1.99,2.58c0,1.43,0.67,2.58,1.93,2.58
			c0.88,0,1.4-0.44,1.71-1.34H122.65z"/>
		<path d="M124.04,397.65h0.6v1.16h-0.6V397.65z M124.04,400.5h0.6v6h-0.6V400.5z"/>
		<path d="M126.74,403.57c0.01,1.55,0.79,2.51,1.94,2.51c1.13,0,1.51-0.64,1.73-1.13h0.61c-0.25,0.79-0.89,1.69-2.36,1.69
			c-1.82,0-2.53-1.57-2.53-3.09c0-1.72,0.85-3.19,2.6-3.19c1.85,0,2.43,1.59,2.43,2.72c0,0.17,0,0.33-0.01,0.49H126.74z
			 M130.54,403.04c-0.01-1.19-0.66-2.12-1.83-2.12c-1.24,0-1.8,0.86-1.93,2.12H130.54z"/>
		<path d="M132.63,402.01c0-0.53,0-1.03-0.01-1.51h0.59c0.02,0.19,0.04,0.97,0.02,1.14c0.26-0.61,0.76-1.28,1.99-1.28
			c1.07,0,2.01,0.6,2.01,2.25v3.89h-0.6v-3.79c0-1.07-0.44-1.76-1.49-1.76c-1.43,0-1.92,1.19-1.92,2.49v3.06h-0.6V402.01z"/>
		<path d="M138.31,400.5h1.12v-1.87h0.6v1.87h1.43v0.56h-1.43v3.9c0,0.67,0.14,1.06,0.72,1.06c0.18,0,0.43-0.01,0.62-0.07v0.53
			c-0.2,0.08-0.49,0.11-0.74,0.11c-0.77,0-1.2-0.38-1.2-1.34v-4.17h-1.12V400.5z"/>
		<path d="M142.68,397.65h0.6v1.16h-0.6V397.65z M142.68,400.5h0.6v6h-0.6V400.5z"/>
		<path d="M145.4,406.49v-5.43h-1.03v-0.56h1.03v-0.85c0-1.01,0.29-2.11,1.63-2.11c0.18,0,0.44,0.04,0.59,0.08v0.58
			c-0.18-0.05-0.47-0.07-0.65-0.07c-0.71,0-0.97,0.5-0.97,1.55v0.83h1.31v0.56H146v5.43H145.4z"/>
		<path d="M148.26,397.65h0.6v1.16h-0.6V397.65z M148.26,400.5h0.6v6h-0.6V400.5z"/>
		<path d="M155.24,404.73c-0.29,1.06-0.98,1.91-2.33,1.91c-1.5,0-2.57-1.12-2.57-3.12c0-1.64,0.88-3.17,2.64-3.17
			c1.52,0,2.15,1.08,2.25,1.92h-0.61c-0.18-0.7-0.64-1.36-1.65-1.36c-1.27,0-1.99,1.08-1.99,2.58c0,1.43,0.67,2.58,1.93,2.58
			c0.88,0,1.4-0.44,1.71-1.34H155.24z"/>
		<path d="M164.61,403.48c0,1.67-0.92,3.15-2.71,3.15c-1.62,0-2.63-1.33-2.63-3.14c0-1.71,0.95-3.14,2.69-3.14
			C163.55,400.35,164.61,401.6,164.61,403.48z M159.91,403.5c0,1.43,0.77,2.58,2.04,2.58c1.3,0,2.03-1.07,2.03-2.58
			c0-1.42-0.72-2.58-2.05-2.58C160.56,400.92,159.91,402.06,159.91,403.5z"/>
		<path d="M170.59,404.74c0,0.59,0.01,1.52,0.01,1.75h-0.58c-0.02-0.16-0.04-0.55-0.04-1.04c-0.25,0.71-0.86,1.19-1.93,1.19
			c-0.86,0-1.97-0.34-1.97-2.17v-3.97h0.59v3.83c0,0.88,0.28,1.73,1.46,1.73c1.34,0,1.85-0.75,1.85-2.47v-3.08h0.6V404.74z"/>
		<path d="M171.66,400.5h1.12v-1.87h0.6v1.87h1.43v0.56h-1.43v3.9c0,0.67,0.14,1.06,0.72,1.06c0.18,0,0.43-0.01,0.62-0.07v0.53
			c-0.2,0.08-0.49,0.11-0.74,0.11c-0.77,0-1.2-0.38-1.2-1.34v-4.17h-1.12V400.5z"/>
		<path d="M176.02,402.13c0-1.01-0.01-1.44-0.01-1.63h0.59c0.01,0.19,0.02,0.58,0.02,1.34c0.35-0.9,1.12-1.44,2.09-1.49V401
			c-1.25,0.08-2.09,0.95-2.09,2.38v3.12h-0.6V402.13z"/>
		<path d="M180.04,403.57c0.01,1.55,0.79,2.51,1.94,2.51c1.13,0,1.51-0.64,1.73-1.13h0.61c-0.25,0.79-0.89,1.69-2.36,1.69
			c-1.82,0-2.53-1.57-2.53-3.09c0-1.72,0.85-3.19,2.6-3.19c1.85,0,2.43,1.59,2.43,2.72c0,0.17,0,0.33-0.01,0.49H180.04z
			 M183.85,403.04c-0.01-1.19-0.66-2.12-1.83-2.12c-1.24,0-1.8,0.86-1.93,2.12H183.85z"/>
		<path d="M190.05,405.35c0,0.53,0.05,0.95,0.08,1.14h-0.58c-0.05-0.14-0.08-0.41-0.11-0.92c-0.2,0.44-0.73,1.07-1.97,1.07
			c-1.39,0-1.99-0.9-1.99-1.8c0-1.32,1.02-1.92,2.82-1.92c0.5,0,0.9,0,1.14,0v-0.61c0-0.6-0.18-1.4-1.55-1.4
			c-1.21,0-1.39,0.64-1.52,1.13h-0.6c0.07-0.66,0.48-1.68,2.13-1.68c1.37,0,2.14,0.58,2.14,1.89V405.35z M189.46,403.44
			c-0.23,0-0.78,0-1.18,0c-1.33,0-2.16,0.35-2.16,1.38c0,0.76,0.54,1.27,1.38,1.27c1.71,0,1.96-1.14,1.96-2.43V403.44z"/>
		<path d="M196.45,404.73c-0.29,1.06-0.98,1.91-2.33,1.91c-1.5,0-2.57-1.12-2.57-3.12c0-1.64,0.88-3.17,2.64-3.17
			c1.52,0,2.15,1.08,2.25,1.92h-0.61c-0.18-0.7-0.64-1.36-1.66-1.36c-1.27,0-1.99,1.08-1.99,2.58c0,1.43,0.67,2.58,1.93,2.58
			c0.88,0,1.4-0.44,1.71-1.34H196.45z"/>
		<path d="M198.44,397.65v3.85c0.34-0.62,0.92-1.15,1.98-1.15c0.85,0,2.03,0.43,2.03,2.33v3.81h-0.6v-3.69
			c0-1.19-0.54-1.86-1.54-1.86c-1.19,0-1.87,0.73-1.87,2.21v3.35h-0.6v-8.84H198.44z"/>
	</g>
</g>
<g>
	<g>
		<path d="M16.1,21.59v10.37h-1.95V21.59H16.1z"/>
		<path d="M18.65,31.97V21.59h2.45c1.36,2.36,4.04,6.89,4.56,8.02h0.03c-0.11-1.17-0.11-2.91-0.11-4.61v-3.41h1.78v10.37h-2.32
			c-1.2-2.1-4.1-7.18-4.66-8.36h-0.03c0.08,1,0.09,3,0.09,4.87v3.5H18.65z"/>
		<path d="M32,23.21h-3.22v-1.61h8.38v1.61h-3.21v8.76H32V23.21z"/>
		<path d="M45.51,27.37h-5.03v2.99h5.54l-0.24,1.61h-7.2V21.59h7.15v1.61h-5.26v2.55h5.03V27.37z"/>
		<path d="M49.66,27.67v4.29h-1.91V21.59h4.38c2.22,0,3.41,1.22,3.41,2.82c0,1.38-0.76,2.15-1.6,2.45c0.63,0.2,1.39,0.77,1.39,2.61
			v0.49c0,0.7-0.01,1.54,0.15,2h-1.86c-0.18-0.45-0.2-1.24-0.2-2.29V29.5c0-1.25-0.33-1.82-2.07-1.82H49.66z M49.66,26.1h2.01
			c1.35,0,1.9-0.51,1.9-1.48c0-0.93-0.61-1.46-1.81-1.46h-2.1V26.1z"/>
		<path d="M64.5,27.37h-5.03v2.99h5.54l-0.24,1.61h-7.2V21.59h7.15v1.61h-5.26v2.55h5.03V27.37z"/>
		<path d="M67.96,28.98c0.25,1.11,1.03,1.64,2.34,1.64c1.34,0,1.9-0.57,1.9-1.41c0-0.91-0.5-1.35-2.38-1.8
			c-2.69-0.64-3.44-1.6-3.44-3.02c0-1.72,1.28-2.95,3.69-2.95c2.66,0,3.73,1.46,3.87,2.93h-1.96c-0.13-0.74-0.56-1.45-1.96-1.45
			c-1.03,0-1.64,0.44-1.64,1.27c0,0.81,0.49,1.13,2.21,1.54c3,0.71,3.61,1.85,3.61,3.26c0,1.82-1.37,3.12-4.04,3.12
			c-2.63,0-3.92-1.34-4.16-3.13H67.96z"/>
		<path d="M78.2,23.21h-3.22v-1.61h8.38v1.61h-3.21v8.76H78.2V23.21z"/>
		<path d="M86.01,28.98c0.25,1.11,1.03,1.64,2.34,1.64c1.34,0,1.9-0.57,1.9-1.41c0-0.91-0.5-1.35-2.38-1.8
			c-2.69-0.64-3.44-1.6-3.44-3.02c0-1.72,1.28-2.95,3.69-2.95c2.66,0,3.73,1.46,3.87,2.93h-1.96c-0.13-0.74-0.56-1.45-1.96-1.45
			c-1.03,0-1.64,0.44-1.64,1.27c0,0.81,0.49,1.13,2.21,1.54c3,0.71,3.61,1.85,3.61,3.26c0,1.82-1.37,3.12-4.04,3.12
			c-2.63,0-3.92-1.34-4.16-3.13H86.01z"/>
	</g>
</g>
</svg>
