<?xml version="1.0" encoding="UTF-8"?>
<svg id="Camada_1" data-name="Camada 1" xmlns="http://www.w3.org/2000/svg" viewBox="0 0 646.32 448.91">
  <defs>
    <style>
      .cls-1 {
        fill: none;
        stroke: #d96a6e;
        stroke-miterlimit: 10;
        stroke-width: .5px;
      }
    </style>
  </defs>
  <circle class="cls-1" cx="287.9" cy="187.17" r="174.42"/>
  <g>
    <path d="M197.65,94.46h4.34c2.4,0,3.37,1.25,3.37,2.63,0,1.18-.64,1.95-1.38,2.25,.71,.25,1.69,.99,1.69,2.41,0,1.84-1.43,3.08-3.55,3.08h-4.48v-10.37Zm4.08,4.17c1.22,0,1.71-.52,1.71-1.34s-.6-1.3-1.59-1.3h-2.29v2.64h2.17Zm-2.17,4.68h2.21c1.24,0,1.91-.54,1.91-1.6,0-.94-.6-1.54-2.01-1.54h-2.11v3.15Z"/>
    <path d="M209.5,94.46v10.37h-1.95v-10.37h1.95Z"/>
    <path d="M221.43,99.6c0,2.88-1.69,5.38-5.02,5.38s-4.89-2.36-4.89-5.34,1.83-5.34,5.03-5.34c3,0,4.89,2.15,4.89,5.29Zm-7.9,0c0,2.1,.98,3.78,2.95,3.78,2.14,0,2.93-1.78,2.93-3.75s-.9-3.72-2.95-3.72-2.93,1.6-2.93,3.69Z"/>
    <path d="M223.45,94.46h3.97c2.98,0,4.96,1.99,4.96,5.07s-1.92,5.31-5.04,5.31h-3.9v-10.37Zm1.95,8.78h1.85c2.14,0,3.12-1.57,3.12-3.7,0-1.82-.9-3.49-3.11-3.49h-1.86v7.19Z"/>
    <path d="M236.36,94.46v10.37h-1.95v-10.37h1.95Z"/>
    <path d="M241.45,104.83l-3.7-10.37h2.09l1.64,4.92c.49,1.47,.91,2.81,1.14,3.83h.03c.21-.93,.68-2.31,1.19-3.79l1.72-4.96h1.99l-3.81,10.37h-2.3Z"/>
    <path d="M255.84,100.23h-5.03v2.99h5.54l-.24,1.61h-7.2v-10.37h7.15v1.61h-5.26v2.55h5.03v1.61Z"/>
    <path d="M259.97,100.54v4.29h-1.91v-10.37h4.39c2.22,0,3.41,1.22,3.41,2.82,0,1.38-.76,2.15-1.6,2.45,.63,.2,1.39,.77,1.39,2.61v.49c0,.7,0,1.54,.15,2h-1.86c-.18-.45-.2-1.24-.2-2.29v-.18c0-1.25-.33-1.82-2.07-1.82h-1.7Zm0-1.57h2.01c1.35,0,1.9-.51,1.9-1.48s-.61-1.46-1.81-1.46h-2.1v2.94Z"/>
    <path d="M269.22,101.84c.25,1.11,1.03,1.64,2.34,1.64s1.9-.57,1.9-1.41c0-.91-.5-1.35-2.38-1.8-2.69-.64-3.44-1.6-3.44-3.02,0-1.72,1.28-2.95,3.69-2.95,2.66,0,3.73,1.46,3.87,2.93h-1.96c-.13-.74-.56-1.45-1.96-1.45-1.03,0-1.64,.44-1.64,1.27s.49,1.13,2.21,1.54c3,.71,3.61,1.85,3.61,3.26,0,1.82-1.37,3.12-4.04,3.12s-3.92-1.34-4.16-3.13h1.96Z"/>
    <path d="M279.19,94.46v10.37h-1.95v-10.37h1.95Z"/>
    <path d="M283.96,96.07h-3.22v-1.61h8.38v1.61h-3.21v8.76h-1.95v-8.76Z"/>
    <path d="M293.66,104.83v-3.71c0-.11-.02-.22-.08-.31l-3.6-6.35h2.21c.85,1.61,2.05,3.89,2.55,4.94,.45-1.02,1.73-3.38,2.58-4.94h2.05l-3.67,6.33c-.04,.07-.08,.12-.08,.31v3.73h-1.95Z"/>
  </g>
  <circle class="cls-1" cx="524.36" cy="152.22" r="101.29"/>
  <circle class="cls-1" cx="180.17" cy="357.12" r="91.53"/>
  <g>
    <path d="M130.76,329.23c-.38,1.63-1.6,2.82-3.78,2.82-2.79,0-4.15-2.03-4.15-4.58s1.38-4.67,4.22-4.67c2.3,0,3.46,1.34,3.69,2.84h-1.69c-.23-.79-.77-1.5-2.06-1.5-1.73,0-2.42,1.57-2.42,3.26,0,1.6,.62,3.29,2.47,3.29,1.31,0,1.78-.83,2.01-1.48h1.7Z"/>
    <path d="M140.57,327.39c0,2.49-1.46,4.66-4.35,4.66s-4.24-2.05-4.24-4.62,1.59-4.63,4.36-4.63c2.6,0,4.23,1.86,4.23,4.59Zm-6.84,0c0,1.82,.85,3.28,2.56,3.28,1.85,0,2.54-1.54,2.54-3.25s-.78-3.22-2.56-3.22-2.54,1.39-2.54,3.2Z"/>
    <path d="M142.33,331.92v-8.99h2.12c1.18,2.05,3.51,5.97,3.95,6.95h.02c-.1-1.01-.09-2.52-.09-4v-2.96h1.54v8.99h-2.01c-1.04-1.82-3.56-6.22-4.04-7.25h-.02c.07,.87,.08,2.6,.08,4.22v3.03h-1.55Z"/>
    <path d="M153.09,329.33c.22,.96,.9,1.42,2.03,1.42s1.64-.5,1.64-1.22c0-.79-.44-1.17-2.07-1.56-2.33-.55-2.98-1.39-2.98-2.62,0-1.49,1.11-2.56,3.19-2.56,2.3,0,3.23,1.27,3.36,2.54h-1.7c-.12-.64-.49-1.26-1.7-1.26-.89,0-1.42,.38-1.42,1.1s.42,.98,1.92,1.33c2.6,.62,3.13,1.6,3.13,2.83,0,1.58-1.18,2.71-3.5,2.71s-3.4-1.16-3.6-2.71h1.7Z"/>
    <path d="M166.04,327.93h-4.36v2.59h4.8l-.2,1.4h-6.24v-8.99h6.2v1.4h-4.56v2.21h4.36v1.4Z"/>
    <path d="M169.61,328.2v3.72h-1.65v-8.99h3.8c1.92,0,2.95,1.05,2.95,2.45,0,1.19-.66,1.87-1.38,2.12,.54,.18,1.21,.67,1.21,2.26v.42c0,.61,0,1.33,.13,1.74h-1.61c-.16-.39-.18-1.07-.18-1.99v-.15c0-1.08-.29-1.58-1.79-1.58h-1.47Zm0-1.36h1.74c1.17,0,1.65-.44,1.65-1.28s-.53-1.26-1.57-1.26h-1.82v2.55Z"/>
    <path d="M178.84,331.92l-3.21-8.99h1.81l1.42,4.27c.42,1.28,.79,2.44,.99,3.32h.03c.19-.8,.59-2,1.03-3.29l1.49-4.3h1.72l-3.3,8.99h-1.99Z"/>
    <path d="M185.93,329.63l-.79,2.29h-1.66l3.1-8.99h2.11l3.24,8.99h-1.78l-.83-2.29h-3.39Zm3.01-1.4c-.71-2.06-1.14-3.28-1.35-4.05h-.01c-.22,.84-.7,2.29-1.27,4.05h2.63Z"/>
    <path d="M193.98,324.33h-2.79v-1.4h7.27v1.4h-2.79v7.59h-1.69v-7.59Z"/>
    <path d="M201.38,322.93v8.99h-1.69v-8.99h1.69Z"/>
    <path d="M211.72,327.39c0,2.49-1.46,4.66-4.35,4.66s-4.24-2.05-4.24-4.62,1.59-4.63,4.36-4.63c2.6,0,4.23,1.86,4.23,4.59Zm-6.84,0c0,1.82,.85,3.28,2.56,3.28,1.85,0,2.54-1.54,2.54-3.25s-.78-3.22-2.56-3.22-2.54,1.39-2.54,3.2Z"/>
    <path d="M213.47,331.92v-8.99h2.12c1.18,2.05,3.51,5.97,3.95,6.95h.02c-.1-1.01-.09-2.52-.09-4v-2.96h1.54v8.99h-2.01c-1.04-1.82-3.56-6.22-4.04-7.25h-.02c.07,.87,.08,2.6,.08,4.22v3.03h-1.55Z"/>
  </g>
  <g>
    <path d="M444.24,110.59h3.71c2.79,0,4.63,1.86,4.63,4.73s-1.79,4.96-4.7,4.96h-3.64v-9.69Zm1.82,8.2h1.73c2,0,2.91-1.47,2.91-3.46,0-1.7-.84-3.26-2.9-3.26h-1.74v6.72Z"/>
    <path d="M456.3,110.59v9.69h-1.82v-9.69h1.82Z"/>
    <path d="M461.04,120.28l-3.46-9.69h1.95l1.53,4.6c.46,1.38,.85,2.62,1.07,3.58h.03c.2-.87,.64-2.16,1.11-3.54l1.6-4.63h1.86l-3.56,9.69h-2.14Z"/>
    <path d="M474.48,115.98h-4.7v2.79h5.17l-.22,1.51h-6.72v-9.69h6.68v1.51h-4.91v2.38h4.7v1.51Z"/>
    <path d="M478.32,116.27v4.01h-1.78v-9.69h4.1c2.07,0,3.18,1.13,3.18,2.64,0,1.29-.71,2.01-1.49,2.29,.59,.19,1.3,.72,1.3,2.44v.46c0,.66,0,1.43,.14,1.87h-1.73c-.17-.42-.19-1.16-.19-2.14v-.16c0-1.17-.31-1.7-1.93-1.7h-1.58Zm0-1.47h1.88c1.26,0,1.78-.48,1.78-1.38s-.57-1.36-1.69-1.36h-1.96v2.74Z"/>
    <path d="M486.96,117.49c.24,1.04,.97,1.53,2.18,1.53s1.77-.53,1.77-1.31c0-.85-.47-1.26-2.23-1.68-2.51-.6-3.21-1.5-3.21-2.82,0-1.6,1.19-2.76,3.44-2.76,2.48,0,3.48,1.37,3.62,2.73h-1.84c-.13-.69-.53-1.36-1.83-1.36-.96,0-1.53,.41-1.53,1.18s.46,1.06,2.07,1.44c2.8,.67,3.37,1.72,3.37,3.05,0,1.7-1.28,2.92-3.77,2.92s-3.66-1.25-3.88-2.92h1.83Z"/>
    <path d="M496.26,110.59v9.69h-1.82v-9.69h1.82Z"/>
    <path d="M498.69,110.59h6.58v1.51h-4.8v2.64h4.5v1.51h-4.5v4.04h-1.78v-9.69Z"/>
    <path d="M508.67,110.59v9.69h-1.82v-9.69h1.82Z"/>
    <path d="M519.09,117.37c-.4,1.75-1.72,3.04-4.07,3.04-3.01,0-4.47-2.18-4.47-4.93s1.49-5.03,4.55-5.03c2.48,0,3.73,1.44,3.98,3.06h-1.82c-.25-.85-.83-1.61-2.22-1.61-1.87,0-2.61,1.69-2.61,3.52,0,1.73,.67,3.55,2.66,3.55,1.41,0,1.92-.9,2.16-1.59h1.83Z"/>
    <path d="M522.41,117.81l-.85,2.47h-1.79l3.34-9.69h2.27l3.49,9.69h-1.92l-.89-2.47h-3.65Zm3.24-1.51c-.77-2.22-1.23-3.54-1.46-4.36h-.01c-.24,.91-.75,2.47-1.37,4.36h2.84Z"/>
    <path d="M531.08,112.1h-3.01v-1.51h7.83v1.51h-3v8.18h-1.82v-8.18Z"/>
    <path d="M539.05,110.59v9.69h-1.82v-9.69h1.82Z"/>
    <path d="M550.19,115.39c0,2.69-1.58,5.02-4.69,5.02s-4.57-2.21-4.57-4.98,1.71-4.98,4.69-4.98c2.8,0,4.56,2.01,4.56,4.94Zm-7.37,0c0,1.96,.91,3.53,2.75,3.53,2,0,2.74-1.66,2.74-3.5s-.84-3.47-2.76-3.47-2.73,1.5-2.73,3.45Z"/>
    <path d="M552.07,120.28v-9.69h2.29c1.27,2.21,3.78,6.44,4.26,7.49h.02c-.1-1.09-.1-2.72-.1-4.31v-3.18h1.66v9.69h-2.17c-1.12-1.96-3.83-6.7-4.36-7.81h-.02c.07,.94,.09,2.81,.09,4.55v3.27h-1.67Z"/>
  </g>
  <ellipse class="cls-1" cx="482.45" cy="283.58" rx="75.65" ry="73.52"/>
  <g>
    <path d="M443.32,256.75v3.15h-1.4v-7.61h3.22c1.63,0,2.5,.89,2.5,2.07,0,1.01-.56,1.58-1.17,1.8,.46,.15,1.02,.56,1.02,1.91v.36c0,.52,0,1.13,.11,1.47h-1.36c-.13-.33-.15-.91-.15-1.68v-.13c0-.92-.24-1.34-1.52-1.34h-1.24Zm0-1.15h1.47c.99,0,1.39-.38,1.39-1.09s-.45-1.07-1.33-1.07h-1.54v2.16Z"/>
    <path d="M450.59,257.96l-.67,1.94h-1.41l2.63-7.61h1.78l2.74,7.61h-1.5l-.7-1.94h-2.87Zm2.55-1.18c-.6-1.74-.97-2.78-1.14-3.43h-.01c-.19,.71-.59,1.94-1.07,3.43h2.23Z"/>
    <path d="M458.14,252.29v7.61h-1.43v-7.61h1.43Z"/>
    <path d="M460.05,259.9v-7.61h1.8c1,1.73,2.97,5.05,3.34,5.88h.02c-.08-.86-.08-2.14-.08-3.38v-2.5h1.31v7.61h-1.7c-.88-1.54-3.01-5.27-3.42-6.14h-.02c.05,.73,.07,2.2,.07,3.57v2.57h-1.31Z"/>
    <path d="M468.34,252.29h5.17v1.18h-3.77v2.07h3.53v1.18h-3.53v3.17h-1.4v-7.61Z"/>
    <path d="M481.73,256.06c0,2.11-1.24,3.95-3.68,3.95s-3.59-1.73-3.59-3.91,1.34-3.91,3.69-3.91c2.2,0,3.58,1.58,3.58,3.88Zm-5.79,0c0,1.54,.72,2.77,2.17,2.77,1.57,0,2.15-1.3,2.15-2.75s-.66-2.73-2.17-2.73-2.15,1.18-2.15,2.71Z"/>
    <path d="M484.61,256.75v3.15h-1.4v-7.61h3.22c1.63,0,2.5,.89,2.5,2.07,0,1.01-.56,1.58-1.17,1.8,.46,.15,1.02,.56,1.02,1.91v.36c0,.52,0,1.13,.11,1.47h-1.36c-.13-.33-.15-.91-.15-1.68v-.13c0-.92-.24-1.34-1.52-1.34h-1.24Zm0-1.15h1.47c.99,0,1.39-.38,1.39-1.09s-.45-1.07-1.33-1.07h-1.54v2.16Z"/>
    <path d="M495.55,256.52h-3.69v2.19h4.06l-.17,1.18h-5.28v-7.61h5.24v1.18h-3.86v1.87h3.69v1.18Z"/>
    <path d="M498.18,257.71c.18,.82,.76,1.2,1.72,1.2s1.39-.42,1.39-1.03c0-.67-.37-.99-1.75-1.32-1.98-.47-2.53-1.17-2.53-2.22,0-1.26,.94-2.17,2.7-2.17,1.95,0,2.73,1.07,2.84,2.15h-1.44c-.1-.54-.41-1.06-1.44-1.06-.76,0-1.2,.32-1.2,.93s.36,.83,1.62,1.13c2.2,.52,2.65,1.35,2.65,2.39,0,1.33-1,2.29-2.96,2.29s-2.88-.98-3.05-2.3h1.44Z"/>
    <path d="M505.63,253.47h-2.36v-1.18h6.15v1.18h-2.36v6.43h-1.43v-6.43Z"/>
    <path d="M511.47,257.71c.18,.82,.76,1.2,1.72,1.2s1.39-.42,1.39-1.03c0-.67-.37-.99-1.75-1.32-1.98-.47-2.53-1.17-2.53-2.22,0-1.26,.94-2.17,2.7-2.17,1.95,0,2.73,1.07,2.84,2.15h-1.44c-.1-.54-.41-1.06-1.44-1.06-.76,0-1.2,.32-1.2,.93s.36,.83,1.62,1.13c2.2,.52,2.65,1.35,2.65,2.39,0,1.33-1,2.29-2.96,2.29s-2.88-.98-3.05-2.3h1.44Z"/>
  </g>
  <g>
    <path d="M205.55,141.91h-.54c-.05-.1-.07-.53-.08-1.34-.3,.58-.96,1.44-2.71,1.44-2.41,0-3.65-1.83-3.65-4.22,0-2.51,1.32-4.39,3.78-4.39,1.81,0,3.01,.95,3.27,2.49h-.65c-.36-1.19-1.19-1.9-2.65-1.9-2.1,0-3.06,1.63-3.06,3.75,0,1.92,.92,3.66,2.97,3.66s2.69-1.37,2.69-3.23v-.1h-2.71v-.6h3.33v4.43Z"/>
    <path d="M207.68,138.99c.01,1.55,.79,2.51,1.94,2.51s1.51-.64,1.73-1.13h.61c-.25,.79-.89,1.69-2.36,1.69-1.82,0-2.53-1.57-2.53-3.09,0-1.72,.85-3.19,2.6-3.19,1.85,0,2.43,1.6,2.43,2.72,0,.17,0,.34-.01,.49h-4.41Zm3.8-.53c-.01-1.19-.66-2.12-1.83-2.12-1.24,0-1.8,.86-1.93,2.12h3.77Z"/>
    <path d="M218.49,138.9c0,1.67-.92,3.15-2.71,3.15-1.62,0-2.63-1.33-2.63-3.14,0-1.71,.95-3.14,2.69-3.14,1.59,0,2.65,1.25,2.65,3.13Zm-4.7,.01c0,1.43,.77,2.58,2.04,2.58s2.03-1.07,2.03-2.58c0-1.42-.72-2.58-2.05-2.58s-2.02,1.14-2.02,2.58Z"/>
    <path d="M224.64,141.51c0,1.92-.85,2.93-2.59,2.93-1.56,0-2.21-.88-2.35-1.79h.61c.22,.83,.9,1.22,1.76,1.22,1.56,0,1.99-1.01,1.99-2.53v-.62c-.32,.78-.91,1.2-2,1.2-1.4,0-2.48-1.14-2.48-3,0-2.01,1.15-3.14,2.57-3.14,1.22,0,1.75,.58,1.92,1.06,.01-.35,.02-.77,.04-.91h.56c0,.22-.02,1.16-.02,1.74v3.85Zm-4.43-2.61c0,1.43,.76,2.46,1.91,2.46,1.5,0,1.96-1,1.96-2.55s-.48-2.46-1.92-2.46-1.94,1.19-1.94,2.55Z"/>
    <path d="M226.61,137.55c0-1.01-.01-1.44-.01-1.63h.59c.01,.19,.02,.58,.02,1.34,.35-.9,1.12-1.44,2.09-1.49v.65c-1.25,.08-2.09,.95-2.09,2.38v3.12h-.6v-4.37Z"/>
    <path d="M234.41,140.77c0,.53,.05,.95,.08,1.14h-.58c-.05-.14-.08-.41-.11-.92-.2,.44-.73,1.07-1.97,1.07-1.39,0-1.99-.9-1.99-1.8,0-1.32,1.02-1.92,2.82-1.92h1.14v-.61c0-.6-.18-1.4-1.55-1.4-1.21,0-1.39,.64-1.52,1.13h-.6c.07-.66,.48-1.68,2.13-1.68,1.37,0,2.13,.58,2.13,1.9v3.11Zm-.59-1.92h-1.18c-1.33,0-2.16,.35-2.16,1.38,0,.76,.54,1.27,1.38,1.27,1.71,0,1.96-1.14,1.96-2.43v-.22Z"/>
    <path d="M236.99,141.03v3.29h-.6v-6.92c0-.49,0-1.02-.01-1.48h.59c.02,.23,.02,.59,.02,1.08,.37-.72,1.03-1.22,2.11-1.22,1.42,0,2.4,1.19,2.4,2.99,0,2.16-1.15,3.3-2.6,3.3-1.06,0-1.61-.47-1.91-1.03Zm3.87-2.24c0-1.39-.67-2.43-1.86-2.43-1.45,0-2.05,.91-2.05,2.54s.47,2.6,1.97,2.6c1.25,0,1.94-1.06,1.94-2.71Z"/>
    <path d="M243.6,133.07v3.85c.34-.62,.92-1.15,1.98-1.15,.85,0,2.03,.43,2.03,2.33v3.81h-.6v-3.69c0-1.19-.54-1.86-1.54-1.86-1.19,0-1.87,.73-1.87,2.21v3.35h-.6v-8.84h.6Z"/>
    <path d="M249.58,133.07h.6v1.16h-.6v-1.16Zm0,2.84h.6v6h-.6v-6Z"/>
    <path d="M256.56,140.15c-.29,1.06-.98,1.91-2.33,1.91-1.5,0-2.57-1.12-2.57-3.12,0-1.64,.88-3.17,2.64-3.17,1.52,0,2.15,1.08,2.25,1.92h-.61c-.18-.7-.64-1.36-1.65-1.36-1.27,0-1.99,1.08-1.99,2.58s.67,2.58,1.93,2.58c.88,0,1.4-.44,1.71-1.34h.61Z"/>
    <path d="M265.7,133.07v7.11c0,.58,0,1.13,.01,1.73h-.58c-.02-.14-.04-.71-.04-1.01-.3,.73-.97,1.15-2.01,1.15-1.56,0-2.49-1.27-2.49-3.07s1.02-3.21,2.65-3.21c1.2,0,1.68,.52,1.86,.9v-3.6h.6Zm-4.47,5.89c0,1.64,.85,2.53,1.88,2.53,1.58,0,2.01-1.09,2.01-2.72s-.37-2.44-1.91-2.44c-1.19,0-1.99,.95-1.99,2.63Z"/>
    <path d="M267.67,133.07h.6v1.16h-.6v-1.16Zm0,2.84h.6v6h-.6v-6Z"/>
    <path d="M270.18,140.26c.2,.78,.76,1.25,1.7,1.25,1.07,0,1.5-.49,1.5-1.16s-.29-1.02-1.63-1.34c-1.55-.37-1.93-.84-1.93-1.63s.62-1.6,1.98-1.6,2,.83,2.1,1.68h-.6c-.11-.5-.5-1.13-1.52-1.13s-1.34,.52-1.34,1c0,.55,.29,.83,1.48,1.12,1.69,.41,2.11,.96,2.11,1.86,0,1.09-.89,1.76-2.15,1.76-1.37,0-2.13-.72-2.3-1.8h.61Z"/>
    <path d="M274.58,135.92h1.12v-1.87h.6v1.87h1.43v.56h-1.43v3.9c0,.67,.14,1.06,.72,1.06,.18,0,.43-.01,.62-.07v.53c-.2,.08-.49,.11-.74,.11-.77,0-1.2-.38-1.2-1.34v-4.17h-1.12v-.56Z"/>
    <path d="M278.83,137.55c0-1.01-.01-1.44-.01-1.63h.59c.01,.19,.02,.58,.02,1.34,.35-.9,1.12-1.44,2.09-1.49v.65c-1.25,.08-2.09,.95-2.09,2.38v3.12h-.6v-4.37Z"/>
    <path d="M282.63,133.07h.6v1.16h-.6v-1.16Zm0,2.84h.6v6h-.6v-6Z"/>
    <path d="M285.19,133.07h.6v3.85c.29-.6,.88-1.15,2.05-1.15,1.42,0,2.46,1.16,2.46,3.01s-.94,3.27-2.61,3.27c-1.01,0-1.58-.41-1.9-1.09,0,.38-.01,.78-.02,.95h-.59c.01-.68,.01-1.37,.01-2.05v-6.79Zm4.47,5.72c0-1.5-.74-2.46-1.88-2.46-1.5,0-2.03,1.02-2.03,2.59,0,1.42,.47,2.57,1.96,2.57,1.21,0,1.96-1.01,1.96-2.7Z"/>
    <path d="M296.28,140.16c0,.59,.01,1.52,.01,1.75h-.58c-.02-.16-.04-.55-.04-1.04-.25,.71-.86,1.19-1.93,1.19-.86,0-1.97-.34-1.97-2.17v-3.97h.59v3.83c0,.88,.28,1.73,1.46,1.73,1.34,0,1.85-.76,1.85-2.47v-3.08h.6v4.25Z"/>
    <path d="M297.49,135.92h1.12v-1.87h.6v1.87h1.43v.56h-1.43v3.9c0,.67,.14,1.06,.72,1.06,.18,0,.43-.01,.62-.07v.53c-.2,.08-.49,.11-.74,.11-.77,0-1.2-.38-1.2-1.34v-4.17h-1.12v-.56Z"/>
    <path d="M301.86,133.07h.6v1.16h-.6v-1.16Zm0,2.84h.6v6h-.6v-6Z"/>
    <path d="M309.29,138.9c0,1.67-.92,3.15-2.71,3.15-1.62,0-2.63-1.33-2.63-3.14,0-1.71,.95-3.14,2.69-3.14,1.59,0,2.65,1.25,2.65,3.13Zm-4.7,.01c0,1.43,.77,2.58,2.04,2.58s2.03-1.07,2.03-2.58c0-1.42-.72-2.58-2.05-2.58s-2.01,1.14-2.01,2.58Z"/>
    <path d="M310.78,137.43c0-.53,0-1.03-.01-1.51h.59c.02,.19,.04,.97,.02,1.14,.26-.61,.76-1.28,1.99-1.28,1.07,0,2.01,.6,2.01,2.25v3.89h-.6v-3.79c0-1.07-.44-1.76-1.49-1.76-1.43,0-1.92,1.19-1.92,2.49v3.06h-.6v-4.49Z"/>
    <path d="M199.13,154.06c.25,1.12,1,1.77,2.37,1.77,1.54,0,2.12-.77,2.12-1.68s-.42-1.54-2.27-1.99c-1.78-.44-2.54-1.02-2.54-2.23,0-1.1,.8-2.13,2.6-2.13s2.63,1.13,2.73,2.15h-.67c-.19-.9-.78-1.55-2.1-1.55-1.21,0-1.87,.56-1.87,1.5s.55,1.28,2.1,1.67c2.36,.59,2.71,1.54,2.71,2.54,0,1.23-.9,2.3-2.84,2.3-2.1,0-2.87-1.22-3.02-2.35h.67Z"/>
    <path d="M206.38,155.43v3.29h-.6v-6.92c0-.49,0-1.02-.01-1.48h.59c.02,.23,.02,.59,.02,1.08,.37-.72,1.03-1.22,2.11-1.22,1.42,0,2.4,1.19,2.4,2.99,0,2.16-1.15,3.3-2.6,3.3-1.06,0-1.61-.47-1.91-1.03Zm3.87-2.24c0-1.39-.67-2.43-1.86-2.43-1.45,0-2.05,.91-2.05,2.54s.47,2.6,1.97,2.6c1.25,0,1.94-1.06,1.94-2.71Z"/>
    <path d="M212.6,153.39c.01,1.55,.79,2.51,1.94,2.51s1.51-.64,1.73-1.13h.61c-.25,.79-.89,1.69-2.36,1.69-1.82,0-2.53-1.57-2.53-3.09,0-1.72,.85-3.19,2.6-3.19,1.85,0,2.43,1.6,2.43,2.72,0,.17,0,.34-.01,.49h-4.41Zm3.8-.53c-.01-1.19-.66-2.12-1.83-2.12-1.24,0-1.8,.86-1.93,2.12h3.77Z"/>
    <path d="M222.96,154.55c-.29,1.06-.98,1.91-2.33,1.91-1.5,0-2.57-1.12-2.57-3.12,0-1.64,.88-3.17,2.64-3.17,1.52,0,2.15,1.08,2.25,1.92h-.61c-.18-.7-.64-1.36-1.65-1.36-1.27,0-1.99,1.08-1.99,2.58s.67,2.58,1.93,2.58c.88,0,1.4-.44,1.71-1.34h.61Z"/>
    <path d="M224.51,147.47h.6v1.16h-.6v-1.16Zm0,2.84h.6v6h-.6v-6Z"/>
    <path d="M227.21,153.39c.01,1.55,.79,2.51,1.94,2.51s1.51-.64,1.73-1.13h.61c-.25,.79-.89,1.69-2.36,1.69-1.82,0-2.53-1.57-2.53-3.09,0-1.72,.85-3.19,2.6-3.19,1.85,0,2.43,1.6,2.43,2.72,0,.17,0,.34-.01,.49h-4.41Zm3.8-.53c-.01-1.19-.66-2.12-1.83-2.12-1.24,0-1.8,.86-1.93,2.12h3.77Z"/>
    <path d="M233.25,154.66c.2,.78,.76,1.25,1.7,1.25,1.07,0,1.5-.49,1.5-1.16s-.29-1.02-1.63-1.34c-1.55-.37-1.93-.84-1.93-1.63s.62-1.6,1.98-1.6,2,.83,2.1,1.68h-.6c-.11-.5-.5-1.13-1.52-1.13s-1.34,.52-1.34,1c0,.55,.29,.83,1.48,1.12,1.69,.41,2.11,.96,2.11,1.86,0,1.09-.89,1.76-2.15,1.76-1.37,0-2.13-.72-2.3-1.8h.61Z"/>
    <path d="M241.7,151.95c0-1.01-.01-1.44-.01-1.63h.59c.01,.19,.02,.58,.02,1.34,.35-.9,1.12-1.44,2.09-1.49v.65c-1.25,.08-2.09,.95-2.09,2.38v3.12h-.6v-4.37Z"/>
    <path d="M245.49,147.47h.6v1.16h-.6v-1.16Zm0,2.84h.6v6h-.6v-6Z"/>
    <path d="M252.47,154.55c-.29,1.06-.98,1.91-2.33,1.91-1.5,0-2.57-1.12-2.57-3.12,0-1.64,.88-3.17,2.64-3.17,1.52,0,2.15,1.08,2.25,1.92h-.61c-.18-.7-.64-1.36-1.65-1.36-1.27,0-1.99,1.08-1.99,2.58s.67,2.58,1.93,2.58c.88,0,1.4-.44,1.71-1.34h.61Z"/>
    <path d="M254.46,147.47v3.85c.34-.62,.92-1.15,1.98-1.15,.85,0,2.03,.43,2.03,2.33v3.81h-.6v-3.69c0-1.19-.54-1.86-1.54-1.86-1.19,0-1.87,.73-1.87,2.21v3.35h-.6v-8.84h.6Z"/>
    <path d="M260.44,151.83c0-.53,0-1.03-.01-1.51h.59c.02,.19,.04,.97,.02,1.14,.26-.61,.76-1.28,1.99-1.28,1.07,0,2.01,.6,2.01,2.25v3.89h-.6v-3.79c0-1.07-.44-1.76-1.49-1.76-1.43,0-1.92,1.19-1.92,2.49v3.06h-.6v-4.49Z"/>
    <path d="M267.15,153.39c.01,1.55,.79,2.51,1.94,2.51s1.51-.64,1.73-1.13h.61c-.25,.79-.89,1.69-2.36,1.69-1.82,0-2.53-1.57-2.53-3.09,0-1.72,.85-3.19,2.6-3.19,1.85,0,2.43,1.6,2.43,2.72,0,.17,0,.34-.01,.49h-4.41Zm3.8-.53c-.01-1.19-.66-2.12-1.83-2.12-1.24,0-1.8,.86-1.93,2.12h3.77Z"/>
    <path d="M273.18,154.66c.2,.78,.76,1.25,1.7,1.25,1.07,0,1.5-.49,1.5-1.16s-.29-1.02-1.63-1.34c-1.55-.37-1.93-.84-1.93-1.63s.62-1.6,1.98-1.6,2,.83,2.1,1.68h-.6c-.11-.5-.5-1.13-1.52-1.13s-1.34,.52-1.34,1c0,.55,.29,.83,1.48,1.12,1.69,.41,2.11,.96,2.11,1.86,0,1.09-.89,1.76-2.15,1.76-1.37,0-2.13-.72-2.3-1.8h.61Z"/>
    <path d="M278.65,154.66c.2,.78,.76,1.25,1.7,1.25,1.07,0,1.5-.49,1.5-1.16s-.29-1.02-1.63-1.34c-1.55-.37-1.93-.84-1.93-1.63s.62-1.6,1.98-1.6,2,.83,2.1,1.68h-.6c-.11-.5-.5-1.13-1.52-1.13s-1.34,.52-1.34,1c0,.55,.29,.83,1.48,1.12,1.69,.41,2.11,.96,2.11,1.86,0,1.09-.89,1.76-2.15,1.76-1.37,0-2.13-.72-2.3-1.8h.61Z"/>
    <path d="M204,166.59h-4.28v3.53h4.69l-.1,.6h-5.24v-8.4h5.15v.6h-4.5v3.07h4.28v.6Z"/>
    <path d="M205.77,166.23c0-.53,0-1.03-.01-1.51h.59c.02,.19,.04,.97,.02,1.14,.26-.61,.76-1.28,1.99-1.28,1.07,0,2.01,.6,2.01,2.25v3.89h-.6v-3.79c0-1.07-.44-1.76-1.49-1.76-1.43,0-1.92,1.19-1.92,2.49v3.06h-.6v-4.49Z"/>
    <path d="M216.97,161.87v7.11c0,.58,0,1.13,.01,1.73h-.58c-.02-.14-.04-.71-.04-1.01-.3,.73-.97,1.15-2.01,1.15-1.56,0-2.49-1.27-2.49-3.07s1.02-3.21,2.65-3.21c1.2,0,1.68,.52,1.86,.9v-3.6h.6Zm-4.47,5.89c0,1.64,.85,2.53,1.88,2.53,1.58,0,2.01-1.09,2.01-2.72s-.37-2.44-1.91-2.44c-1.19,0-1.99,.95-1.99,2.63Z"/>
    <path d="M219.08,167.79c.01,1.55,.79,2.51,1.94,2.51s1.51-.64,1.73-1.13h.61c-.25,.79-.89,1.69-2.36,1.69-1.82,0-2.53-1.57-2.53-3.09,0-1.72,.85-3.19,2.6-3.19,1.85,0,2.43,1.6,2.43,2.72,0,.17,0,.34-.01,.49h-4.41Zm3.8-.53c-.01-1.19-.66-2.12-1.83-2.12-1.24,0-1.8,.86-1.93,2.12h3.77Z"/>
    <path d="M224.97,166.26c0-.52,0-1.08-.01-1.55h.59c.01,.2,.04,.72,.02,1.07,.25-.6,.8-1.21,1.8-1.21,.84,0,1.5,.42,1.74,1.19,.3-.62,.9-1.19,1.96-1.19,.92,0,1.88,.53,1.88,2.19v3.95h-.6v-3.87c0-.8-.29-1.68-1.4-1.68s-1.69,.94-1.69,2.1v3.45h-.59v-3.86c0-.88-.26-1.69-1.37-1.69-1.16,0-1.73,1.03-1.73,2.25v3.3h-.6v-4.45Z"/>
    <path d="M234.92,161.87h.6v1.16h-.6v-1.16Zm0,2.84h.6v6h-.6v-6Z"/>
    <path d="M237.42,169.06c.2,.78,.76,1.25,1.7,1.25,1.07,0,1.5-.49,1.5-1.16s-.29-1.02-1.63-1.34c-1.55-.37-1.93-.84-1.93-1.63s.62-1.6,1.98-1.6,2,.83,2.1,1.68h-.6c-.11-.5-.5-1.13-1.52-1.13s-1.34,.52-1.34,1c0,.55,.29,.83,1.48,1.12,1.69,.41,2.11,.96,2.11,1.86,0,1.09-.89,1.76-2.15,1.76-1.37,0-2.13-.72-2.3-1.8h.61Z"/>
    <path d="M242.67,166.26c0-.52,0-1.08-.01-1.55h.59c.01,.2,.04,.72,.02,1.07,.25-.6,.8-1.21,1.8-1.21,.84,0,1.5,.42,1.74,1.19,.3-.62,.9-1.19,1.96-1.19,.92,0,1.88,.53,1.88,2.19v3.95h-.6v-3.87c0-.8-.29-1.68-1.4-1.68s-1.69,.94-1.69,2.1v3.45h-.59v-3.86c0-.88-.26-1.69-1.37-1.69-1.16,0-1.73,1.03-1.73,2.25v3.3h-.6v-4.45Z"/>
    <path d="M199.13,182.86c.25,1.12,1,1.77,2.37,1.77,1.54,0,2.12-.77,2.12-1.68s-.42-1.54-2.27-1.99c-1.78-.44-2.54-1.02-2.54-2.23,0-1.1,.8-2.13,2.6-2.13s2.63,1.13,2.73,2.15h-.67c-.19-.9-.78-1.55-2.1-1.55-1.21,0-1.87,.56-1.87,1.5s.55,1.28,2.1,1.67c2.36,.59,2.71,1.54,2.71,2.54,0,1.23-.9,2.3-2.84,2.3-2.1,0-2.87-1.22-3.02-2.35h.67Z"/>
    <path d="M206.38,184.23v3.29h-.6v-6.92c0-.49,0-1.02-.01-1.48h.59c.02,.23,.02,.59,.02,1.08,.37-.72,1.03-1.22,2.11-1.22,1.42,0,2.4,1.19,2.4,2.99,0,2.16-1.15,3.3-2.6,3.3-1.06,0-1.61-.47-1.91-1.03Zm3.87-2.24c0-1.39-.67-2.43-1.86-2.43-1.45,0-2.05,.91-2.05,2.54s.47,2.6,1.97,2.6c1.25,0,1.94-1.06,1.94-2.71Z"/>
    <path d="M212.6,182.19c.01,1.55,.79,2.51,1.94,2.51s1.51-.64,1.73-1.13h.61c-.25,.79-.89,1.69-2.36,1.69-1.82,0-2.53-1.57-2.53-3.09,0-1.72,.85-3.19,2.6-3.19,1.85,0,2.43,1.6,2.43,2.72,0,.17,0,.34-.01,.49h-4.41Zm3.8-.53c-.01-1.19-.66-2.12-1.83-2.12-1.24,0-1.8,.86-1.93,2.12h3.77Z"/>
    <path d="M222.96,183.35c-.29,1.06-.98,1.91-2.33,1.91-1.5,0-2.57-1.12-2.57-3.12,0-1.64,.88-3.17,2.64-3.17,1.52,0,2.15,1.08,2.25,1.92h-.61c-.18-.7-.64-1.36-1.65-1.36-1.27,0-1.99,1.08-1.99,2.58s.67,2.58,1.93,2.58c.88,0,1.4-.44,1.71-1.34h.61Z"/>
    <path d="M224.51,176.27h.6v1.16h-.6v-1.16Zm0,2.84h.6v6h-.6v-6Z"/>
    <path d="M227.21,182.19c.01,1.55,.79,2.51,1.94,2.51s1.51-.64,1.73-1.13h.61c-.25,.79-.89,1.69-2.36,1.69-1.82,0-2.53-1.57-2.53-3.09,0-1.72,.85-3.19,2.6-3.19,1.85,0,2.43,1.6,2.43,2.72,0,.17,0,.34-.01,.49h-4.41Zm3.8-.53c-.01-1.19-.66-2.12-1.83-2.12-1.24,0-1.8,.86-1.93,2.12h3.77Z"/>
    <path d="M233.25,183.46c.2,.78,.76,1.25,1.7,1.25,1.07,0,1.5-.49,1.5-1.16s-.29-1.02-1.63-1.34c-1.55-.37-1.93-.84-1.93-1.63s.62-1.6,1.98-1.6,2,.83,2.1,1.68h-.6c-.11-.5-.5-1.13-1.52-1.13s-1.34,.52-1.34,1c0,.55,.29,.83,1.48,1.12,1.69,.41,2.11,.96,2.11,1.86,0,1.09-.89,1.76-2.15,1.76-1.37,0-2.13-.72-2.3-1.8h.61Z"/>
    <path d="M241.7,176.27h.6v3.85c.29-.6,.88-1.15,2.05-1.15,1.42,0,2.46,1.16,2.46,3.01s-.94,3.27-2.61,3.27c-1.01,0-1.58-.41-1.9-1.09,0,.38-.01,.78-.02,.95h-.59c.01-.68,.01-1.37,.01-2.05v-6.79Zm4.47,5.72c0-1.5-.74-2.46-1.88-2.46-1.5,0-2.03,1.02-2.03,2.59,0,1.42,.47,2.57,1.95,2.57,1.21,0,1.96-1.01,1.96-2.7Z"/>
    <path d="M253.22,182.1c0,1.67-.92,3.15-2.71,3.15-1.62,0-2.63-1.33-2.63-3.14,0-1.71,.95-3.14,2.69-3.14,1.59,0,2.65,1.25,2.65,3.13Zm-4.7,.01c0,1.43,.77,2.58,2.04,2.58s2.03-1.07,2.03-2.58c0-1.42-.72-2.58-2.05-2.58s-2.02,1.14-2.02,2.58Z"/>
    <path d="M259.2,183.36c0,.59,.01,1.52,.01,1.75h-.58c-.02-.16-.04-.55-.04-1.04-.25,.71-.86,1.19-1.93,1.19-.86,0-1.97-.34-1.97-2.17v-3.97h.59v3.83c0,.88,.28,1.73,1.46,1.73,1.34,0,1.85-.76,1.85-2.47v-3.08h.6v4.25Z"/>
    <path d="M261.17,180.63c0-.53,0-1.03-.01-1.51h.59c.02,.19,.04,.97,.02,1.14,.26-.61,.76-1.28,1.99-1.28,1.07,0,2.01,.6,2.01,2.25v3.89h-.6v-3.79c0-1.07-.44-1.76-1.49-1.76-1.43,0-1.92,1.19-1.92,2.49v3.06h-.6v-4.49Z"/>
    <path d="M272.38,176.27v7.11c0,.58,0,1.13,.01,1.73h-.58c-.02-.14-.04-.71-.04-1.01-.3,.73-.97,1.15-2.02,1.15-1.56,0-2.49-1.27-2.49-3.07s1.02-3.21,2.65-3.21c1.2,0,1.68,.52,1.86,.9v-3.6h.6Zm-4.47,5.89c0,1.64,.85,2.53,1.88,2.53,1.58,0,2.01-1.09,2.01-2.72s-.37-2.44-1.91-2.44c-1.19,0-1.99,.95-1.99,2.63Z"/>
    <path d="M278.38,183.97c0,.53,.05,.95,.08,1.14h-.58c-.05-.14-.08-.41-.11-.92-.2,.44-.73,1.07-1.97,1.07-1.39,0-1.99-.9-1.99-1.8,0-1.32,1.02-1.92,2.82-1.92h1.14v-.61c0-.6-.18-1.4-1.55-1.4-1.21,0-1.39,.64-1.52,1.13h-.6c.07-.66,.48-1.68,2.13-1.68,1.37,0,2.14,.58,2.14,1.9v3.11Zm-.59-1.92h-1.18c-1.33,0-2.16,.35-2.16,1.38,0,.76,.54,1.27,1.38,1.27,1.71,0,1.96-1.14,1.96-2.43v-.22Z"/>
    <path d="M280.36,180.75c0-1.01-.01-1.44-.01-1.63h.59c.01,.19,.02,.58,.02,1.34,.35-.9,1.12-1.44,2.09-1.49v.65c-1.25,.08-2.09,.95-2.09,2.38v3.12h-.6v-4.37Z"/>
    <path d="M284.15,176.27h.6v1.16h-.6v-1.16Zm0,2.84h.6v6h-.6v-6Z"/>
    <path d="M286.85,182.19c.01,1.55,.79,2.51,1.94,2.51s1.51-.64,1.73-1.13h.61c-.25,.79-.89,1.69-2.36,1.69-1.82,0-2.53-1.57-2.53-3.09,0-1.72,.85-3.19,2.6-3.19,1.85,0,2.43,1.6,2.43,2.72,0,.17,0,.34-.01,.49h-4.41Zm3.8-.53c-.01-1.19-.66-2.12-1.83-2.12-1.24,0-1.8,.86-1.93,2.12h3.77Z"/>
    <path d="M292.89,183.46c.2,.78,.76,1.25,1.7,1.25,1.07,0,1.5-.49,1.5-1.16s-.29-1.02-1.63-1.34c-1.55-.37-1.93-.84-1.93-1.63s.62-1.6,1.98-1.6,2,.83,2.1,1.68h-.6c-.11-.5-.5-1.13-1.52-1.13s-1.34,.52-1.34,1c0,.55,.29,.83,1.48,1.12,1.69,.41,2.11,.96,2.11,1.86,0,1.09-.89,1.76-2.15,1.76-1.37,0-2.13-.72-2.3-1.8h.61Z"/>
  </g>
  <g>
    <path d="M480.58,143.13v3.92h-.66v-8.4h3.01c1.66,0,2.53,.89,2.53,2.21,0,1.07-.64,1.76-1.57,1.97,.86,.2,1.44,.77,1.44,2.19v.32c0,.59-.05,1.38,.11,1.7h-.66c-.16-.36-.12-1.03-.12-1.75v-.22c0-1.38-.41-1.96-2.01-1.96h-2.06Zm0-.6h2.03c1.48,0,2.16-.55,2.16-1.66,0-1.03-.67-1.62-1.98-1.62h-2.21v3.27Z"/>
    <path d="M491.38,145.91c0,.53,.05,.95,.08,1.14h-.58c-.05-.14-.08-.41-.11-.92-.2,.44-.73,1.07-1.97,1.07-1.39,0-1.99-.9-1.99-1.8,0-1.32,1.02-1.92,2.82-1.92h1.14v-.61c0-.6-.18-1.4-1.55-1.4-1.21,0-1.39,.64-1.52,1.13h-.6c.07-.66,.48-1.68,2.13-1.68,1.37,0,2.13,.58,2.13,1.9v3.11Zm-.59-1.92h-1.18c-1.33,0-2.16,.35-2.16,1.38,0,.76,.54,1.27,1.38,1.27,1.71,0,1.96-1.14,1.96-2.43v-.22Z"/>
    <path d="M497.99,138.21v7.11c0,.58,0,1.13,.01,1.73h-.58c-.02-.14-.04-.71-.04-1.01-.3,.73-.97,1.15-2.01,1.15-1.56,0-2.49-1.27-2.49-3.07s1.02-3.21,2.65-3.21c1.2,0,1.68,.52,1.86,.9v-3.6h.6Zm-4.47,5.89c0,1.64,.85,2.53,1.88,2.53,1.58,0,2.01-1.09,2.01-2.72s-.37-2.44-1.91-2.44c-1.19,0-1.99,.95-1.99,2.63Z"/>
    <path d="M499.96,138.21h.6v1.16h-.6v-1.16Zm0,2.84h.6v6h-.6v-6Z"/>
    <path d="M506.56,145.91c0,.53,.05,.95,.08,1.14h-.58c-.05-.14-.08-.41-.11-.92-.2,.44-.73,1.07-1.97,1.07-1.39,0-1.99-.9-1.99-1.8,0-1.32,1.02-1.92,2.82-1.92h1.14v-.61c0-.6-.18-1.4-1.55-1.4-1.21,0-1.39,.64-1.52,1.13h-.6c.07-.66,.48-1.68,2.13-1.68,1.37,0,2.13,.58,2.13,1.9v3.11Zm-.59-1.92h-1.18c-1.33,0-2.16,.35-2.16,1.38,0,.76,.54,1.27,1.38,1.27,1.71,0,1.96-1.14,1.96-2.43v-.22Z"/>
    <path d="M507.58,141.05h1.12v-1.87h.6v1.87h1.43v.56h-1.43v3.9c0,.67,.14,1.06,.72,1.06,.18,0,.43-.01,.62-.07v.53c-.2,.08-.49,.11-.74,.11-.77,0-1.2-.38-1.2-1.34v-4.17h-1.12v-.56Z"/>
    <path d="M511.95,138.21h.6v1.16h-.6v-1.16Zm0,2.84h.6v6h-.6v-6Z"/>
    <path d="M519.38,144.04c0,1.67-.92,3.15-2.71,3.15-1.62,0-2.63-1.33-2.63-3.14,0-1.71,.95-3.14,2.69-3.14,1.59,0,2.65,1.25,2.65,3.13Zm-4.7,.01c0,1.43,.77,2.58,2.04,2.58s2.03-1.07,2.03-2.58c0-1.42-.72-2.58-2.05-2.58s-2.01,1.14-2.01,2.58Z"/>
    <path d="M520.87,142.56c0-.53,0-1.03-.01-1.51h.59c.02,.19,.04,.97,.02,1.14,.26-.61,.76-1.28,1.99-1.28,1.07,0,2.01,.6,2.01,2.25v3.89h-.6v-3.79c0-1.07-.44-1.76-1.49-1.76-1.43,0-1.92,1.19-1.92,2.49v3.06h-.6v-4.49Z"/>
    <path d="M527.41,145.39c.2,.78,.76,1.25,1.7,1.25,1.07,0,1.5-.49,1.5-1.16s-.29-1.02-1.63-1.34c-1.55-.37-1.93-.84-1.93-1.63s.62-1.6,1.98-1.6,2,.83,2.1,1.68h-.6c-.11-.5-.5-1.13-1.52-1.13s-1.34,.52-1.34,1c0,.55,.29,.83,1.48,1.12,1.69,.41,2.11,.96,2.11,1.86,0,1.09-.89,1.76-2.15,1.76-1.37,0-2.13-.72-2.3-1.8h.61Z"/>
    <path d="M479.92,153.05h3c1.54,0,2.59,.85,2.59,2.34s-1.04,2.4-2.67,2.4h-2.25v3.66h-.66v-8.4Zm.66,4.14h2.31c1.36,0,1.92-.72,1.92-1.77,0-1.13-.74-1.76-1.87-1.76h-2.36v3.54Z"/>
    <path d="M487.55,152.61v3.85c.34-.62,.92-1.15,1.98-1.15,.85,0,2.03,.43,2.03,2.33v3.81h-.6v-3.69c0-1.19-.54-1.86-1.54-1.86-1.19,0-1.87,.73-1.87,2.21v3.35h-.6v-8.84h.6Z"/>
    <path d="M493.33,155.45c1.21,3.43,1.74,4.85,1.94,5.49h.01c.24-.73,.72-2.12,1.88-5.49h.62l-2.25,6.34c-.63,1.78-1.07,2.17-2.15,2.17-.22,0-.36-.01-.55-.04v-.6c.18,.02,.35,.04,.54,.04,.86,0,1.14-.42,1.58-1.66l-2.29-6.26h.66Z"/>
    <path d="M499.04,161.45v-8.84h.6v8.84h-.6Z"/>
    <path d="M506.46,158.44c0,1.67-.92,3.15-2.71,3.15-1.62,0-2.63-1.33-2.63-3.14,0-1.71,.95-3.14,2.69-3.14,1.59,0,2.65,1.25,2.65,3.13Zm-4.7,.01c0,1.43,.77,2.58,2.04,2.58s2.03-1.07,2.03-2.58c0-1.42-.72-2.58-2.05-2.58s-2.01,1.14-2.01,2.58Z"/>
    <path d="M512.62,161.04c0,1.92-.85,2.93-2.59,2.93-1.56,0-2.21-.88-2.35-1.79h.61c.22,.83,.9,1.22,1.76,1.22,1.56,0,1.99-1.01,1.99-2.53v-.62c-.32,.78-.91,1.2-2,1.2-1.4,0-2.48-1.14-2.48-3,0-2.01,1.15-3.14,2.57-3.14,1.22,0,1.75,.58,1.92,1.06,.01-.35,.02-.77,.04-.91h.56c0,.22-.02,1.16-.02,1.74v3.85Zm-4.43-2.61c0,1.43,.76,2.46,1.91,2.46,1.5,0,1.96-1,1.96-2.55s-.48-2.46-1.92-2.46-1.94,1.19-1.94,2.55Z"/>
    <path d="M514.72,158.52c.01,1.55,.79,2.51,1.94,2.51s1.51-.64,1.73-1.13h.61c-.25,.79-.89,1.69-2.36,1.69-1.82,0-2.53-1.57-2.53-3.09,0-1.72,.85-3.19,2.6-3.19,1.85,0,2.43,1.6,2.43,2.72,0,.17,0,.34-.01,.49h-4.41Zm3.8-.53c-.01-1.19-.66-2.12-1.83-2.12-1.24,0-1.8,.86-1.93,2.12h3.77Z"/>
    <path d="M520.61,156.96c0-.53,0-1.03-.01-1.51h.59c.02,.19,.04,.97,.02,1.14,.26-.61,.76-1.28,1.99-1.28,1.07,0,2.01,.6,2.01,2.25v3.89h-.6v-3.79c0-1.07-.44-1.76-1.49-1.76-1.43,0-1.92,1.19-1.92,2.49v3.06h-.6v-4.49Z"/>
    <path d="M527.32,158.52c.01,1.55,.79,2.51,1.94,2.51s1.51-.64,1.73-1.13h.61c-.25,.79-.89,1.69-2.36,1.69-1.82,0-2.53-1.57-2.53-3.09,0-1.72,.85-3.19,2.6-3.19,1.85,0,2.43,1.6,2.43,2.72,0,.17,0,.34-.01,.49h-4.41Zm3.8-.53c-.01-1.19-.66-2.12-1.83-2.12-1.24,0-1.8,.86-1.93,2.12h3.77Z"/>
    <path d="M532.41,155.45h1.12v-1.87h.6v1.87h1.43v.56h-1.43v3.9c0,.67,.14,1.06,.72,1.06,.18,0,.43-.01,.62-.07v.53c-.2,.08-.49,.11-.74,.11-.77,0-1.2-.38-1.2-1.34v-4.17h-1.12v-.56Z"/>
    <path d="M536.78,152.61h.6v1.16h-.6v-1.16Zm0,2.84h.6v6h-.6v-6Z"/>
    <path d="M543.76,159.68c-.29,1.06-.98,1.91-2.33,1.91-1.5,0-2.57-1.12-2.57-3.12,0-1.64,.88-3.17,2.64-3.17,1.52,0,2.15,1.08,2.25,1.92h-.61c-.18-.7-.63-1.36-1.65-1.36-1.27,0-1.99,1.08-1.99,2.58s.67,2.58,1.93,2.58c.88,0,1.4-.44,1.71-1.34h.61Z"/>
    <path d="M552.9,152.61v7.11c0,.58,0,1.13,.01,1.73h-.58c-.02-.14-.04-.71-.04-1.01-.3,.73-.97,1.15-2.02,1.15-1.56,0-2.49-1.27-2.49-3.07s1.02-3.21,2.65-3.21c1.2,0,1.68,.52,1.86,.9v-3.6h.6Zm-4.47,5.89c0,1.64,.85,2.53,1.88,2.53,1.58,0,2.01-1.09,2.01-2.72s-.37-2.44-1.91-2.44c-1.19,0-1.99,.95-1.99,2.63Z"/>
    <path d="M554.87,152.61h.6v1.16h-.6v-1.16Zm0,2.84h.6v6h-.6v-6Z"/>
    <path d="M557.34,155.45c.97,2.75,1.64,4.62,1.87,5.38h.01c.13-.44,.8-2.23,1.97-5.38h.64l-2.27,6h-.72l-2.14-6h.64Z"/>
    <path d="M563.14,158.52c.01,1.55,.79,2.51,1.94,2.51s1.51-.64,1.73-1.13h.61c-.25,.79-.89,1.69-2.36,1.69-1.82,0-2.53-1.57-2.53-3.09,0-1.72,.85-3.19,2.6-3.19,1.85,0,2.43,1.6,2.43,2.72,0,.17,0,.34-.01,.49h-4.41Zm3.8-.53c-.01-1.19-.66-2.12-1.83-2.12-1.24,0-1.8,.86-1.93,2.12h3.77Z"/>
    <path d="M569.03,157.08c0-1.01-.01-1.44-.01-1.63h.59c.01,.19,.02,.58,.02,1.34,.35-.9,1.12-1.44,2.09-1.49v.65c-1.25,.08-2.09,.95-2.09,2.38v3.12h-.6v-4.37Z"/>
    <path d="M572.82,152.61h.6v1.16h-.6v-1.16Zm0,2.84h.6v6h-.6v-6Z"/>
    <path d="M575.33,159.79c.2,.78,.76,1.25,1.7,1.25,1.07,0,1.5-.49,1.5-1.16s-.29-1.02-1.63-1.34c-1.55-.37-1.93-.84-1.93-1.63s.62-1.6,1.98-1.6,2,.83,2.1,1.68h-.6c-.11-.5-.5-1.13-1.52-1.13s-1.34,.52-1.34,1c0,.55,.29,.83,1.48,1.12,1.69,.41,2.11,.96,2.11,1.86,0,1.09-.89,1.76-2.15,1.76-1.37,0-2.13-.72-2.3-1.8h.61Z"/>
    <path d="M580.66,152.61h.6v1.16h-.6v-1.16Zm0,2.84h.6v6h-.6v-6Z"/>
    <path d="M582.41,155.45h1.12v-1.87h.6v1.87h1.43v.56h-1.43v3.9c0,.67,.14,1.06,.72,1.06,.18,0,.43-.01,.62-.07v.53c-.2,.08-.49,.11-.74,.11-.77,0-1.2-.38-1.2-1.34v-4.17h-1.12v-.56Z"/>
    <path d="M586.98,155.45c1.21,3.43,1.74,4.85,1.94,5.49h.01c.24-.73,.72-2.12,1.88-5.49h.62l-2.25,6.34c-.64,1.78-1.07,2.17-2.15,2.17-.22,0-.36-.01-.55-.04v-.6c.18,.02,.35,.04,.54,.04,.86,0,1.14-.42,1.58-1.66l-2.29-6.26h.66Z"/>
    <path d="M484.85,171.72h-4.28v3.53h4.69l-.1,.6h-5.24v-8.4h5.15v.6h-4.5v3.07h4.28v.6Z"/>
    <path d="M486.57,169.85c.97,2.75,1.64,4.62,1.87,5.38h.01c.13-.44,.8-2.23,1.97-5.38h.64l-2.27,6h-.72l-2.13-6h.64Z"/>
    <path d="M497.09,172.84c0,1.67-.92,3.15-2.71,3.15-1.62,0-2.63-1.33-2.63-3.14,0-1.71,.95-3.14,2.69-3.14,1.59,0,2.65,1.25,2.65,3.13Zm-4.7,.01c0,1.43,.77,2.58,2.04,2.58s2.03-1.07,2.03-2.58c0-1.42-.72-2.58-2.05-2.58s-2.02,1.14-2.02,2.58Z"/>
    <path d="M498.58,175.85v-8.84h.6v8.84h-.6Z"/>
    <path d="M505.64,174.1c0,.59,.01,1.52,.01,1.75h-.58c-.02-.16-.04-.55-.04-1.04-.25,.71-.86,1.19-1.93,1.19-.86,0-1.97-.34-1.97-2.17v-3.97h.59v3.83c0,.88,.28,1.73,1.46,1.73,1.34,0,1.85-.76,1.85-2.47v-3.08h.6v4.25Z"/>
    <path d="M506.85,169.85h1.12v-1.87h.6v1.87h1.43v.56h-1.43v3.9c0,.67,.14,1.06,.72,1.06,.18,0,.43-.01,.62-.07v.53c-.2,.08-.49,.11-.74,.11-.77,0-1.2-.38-1.2-1.34v-4.17h-1.12v-.56Z"/>
    <path d="M511.22,167.01h.6v1.16h-.6v-1.16Zm0,2.84h.6v6h-.6v-6Z"/>
    <path d="M518.64,172.84c0,1.67-.92,3.15-2.71,3.15-1.62,0-2.63-1.33-2.63-3.14,0-1.71,.95-3.14,2.69-3.14,1.59,0,2.65,1.25,2.65,3.13Zm-4.7,.01c0,1.43,.77,2.58,2.04,2.58s2.03-1.07,2.03-2.58c0-1.42-.72-2.58-2.05-2.58s-2.01,1.14-2.01,2.58Z"/>
    <path d="M520.13,171.36c0-.53,0-1.03-.01-1.51h.59c.02,.19,.04,.97,.02,1.14,.26-.61,.76-1.28,1.99-1.28,1.07,0,2.01,.6,2.01,2.25v3.89h-.6v-3.79c0-1.07-.44-1.76-1.49-1.76-1.43,0-1.92,1.19-1.92,2.49v3.06h-.6v-4.49Z"/>
    <path d="M530.75,174.71c0,.53,.05,.95,.08,1.14h-.58c-.05-.14-.08-.41-.11-.92-.2,.44-.73,1.07-1.97,1.07-1.39,0-1.99-.9-1.99-1.8,0-1.32,1.02-1.92,2.82-1.92h1.14v-.61c0-.6-.18-1.4-1.55-1.4-1.21,0-1.39,.64-1.52,1.13h-.6c.07-.66,.48-1.68,2.13-1.68,1.37,0,2.13,.58,2.13,1.9v3.11Zm-.59-1.92h-1.18c-1.33,0-2.16,.35-2.16,1.38,0,.76,.54,1.27,1.38,1.27,1.71,0,1.96-1.14,1.96-2.43v-.22Z"/>
    <path d="M532.73,171.48c0-1.01-.01-1.44-.01-1.63h.59c.01,.19,.02,.58,.02,1.34,.35-.9,1.12-1.44,2.09-1.49v.65c-1.25,.08-2.09,.95-2.09,2.38v3.12h-.6v-4.37Z"/>
    <path d="M536.84,169.85c1.21,3.43,1.74,4.85,1.94,5.49h.01c.24-.73,.72-2.12,1.88-5.49h.62l-2.25,6.34c-.63,1.78-1.07,2.17-2.15,2.17-.22,0-.36-.01-.55-.04v-.6c.18,.02,.35,.04,.54,.04,.86,0,1.14-.42,1.58-1.66l-2.29-6.26h.66Z"/>
    <path d="M550.2,167.01v7.11c0,.58,0,1.13,.01,1.73h-.58c-.02-.14-.04-.71-.04-1.01-.3,.73-.97,1.15-2.01,1.15-1.56,0-2.5-1.27-2.5-3.07s1.02-3.21,2.65-3.21c1.2,0,1.68,.52,1.86,.9v-3.6h.6Zm-4.47,5.89c0,1.64,.85,2.53,1.88,2.53,1.58,0,2.02-1.09,2.02-2.72s-.37-2.44-1.91-2.44c-1.19,0-1.99,.95-1.99,2.63Z"/>
    <path d="M552.17,167.01h.6v1.16h-.6v-1.16Zm0,2.84h.6v6h-.6v-6Z"/>
    <path d="M554.68,174.19c.2,.78,.76,1.25,1.7,1.25,1.07,0,1.5-.49,1.5-1.16s-.29-1.02-1.63-1.34c-1.55-.37-1.93-.84-1.93-1.63s.62-1.6,1.98-1.6,2,.83,2.1,1.68h-.6c-.11-.5-.5-1.13-1.52-1.13s-1.34,.52-1.34,1c0,.55,.29,.83,1.48,1.12,1.69,.41,2.11,.96,2.11,1.86,0,1.09-.89,1.76-2.15,1.76-1.37,0-2.13-.72-2.3-1.8h.61Z"/>
    <path d="M559.07,169.85h1.12v-1.87h.6v1.87h1.43v.56h-1.43v3.9c0,.67,.14,1.06,.72,1.06,.18,0,.43-.01,.62-.07v.53c-.2,.08-.49,.11-.74,.11-.77,0-1.2-.38-1.2-1.34v-4.17h-1.12v-.56Z"/>
    <path d="M563.44,167.01h.6v1.16h-.6v-1.16Zm0,2.84h.6v6h-.6v-6Z"/>
    <path d="M566.01,171.36c0-.53,0-1.03-.01-1.51h.59c.02,.19,.04,.97,.02,1.14,.26-.61,.76-1.28,1.99-1.28,1.07,0,2.01,.6,2.01,2.25v3.89h-.6v-3.79c0-1.07-.44-1.76-1.49-1.76-1.43,0-1.92,1.19-1.92,2.49v3.06h-.6v-4.49Z"/>
    <path d="M577,174.08c-.29,1.06-.98,1.91-2.33,1.91-1.5,0-2.57-1.12-2.57-3.12,0-1.64,.88-3.17,2.64-3.17,1.52,0,2.15,1.08,2.25,1.92h-.61c-.18-.7-.64-1.36-1.66-1.36-1.27,0-1.99,1.08-1.99,2.58s.67,2.58,1.93,2.58c.88,0,1.4-.44,1.71-1.34h.61Z"/>
    <path d="M577.64,169.85h1.12v-1.87h.6v1.87h1.43v.56h-1.43v3.9c0,.67,.14,1.06,.72,1.06,.18,0,.43-.01,.62-.07v.53c-.2,.08-.49,.11-.74,.11-.77,0-1.2-.38-1.2-1.34v-4.17h-1.12v-.56Z"/>
    <path d="M582,167.01h.6v1.16h-.6v-1.16Zm0,2.84h.6v6h-.6v-6Z"/>
    <path d="M584.48,169.85c.97,2.75,1.64,4.62,1.87,5.38h.01c.13-.44,.8-2.23,1.97-5.38h.64l-2.27,6h-.72l-2.13-6h.63Z"/>
    <path d="M590.27,172.92c.01,1.55,.79,2.51,1.94,2.51s1.51-.64,1.73-1.13h.61c-.25,.79-.89,1.69-2.36,1.69-1.82,0-2.53-1.57-2.53-3.09,0-1.72,.85-3.19,2.6-3.19,1.85,0,2.43,1.6,2.43,2.72,0,.17,0,.34-.01,.49h-4.41Zm3.8-.53c-.01-1.19-.66-2.12-1.83-2.12-1.24,0-1.8,.86-1.93,2.12h3.77Z"/>
    <path d="M596.16,171.36c0-.53,0-1.03-.01-1.51h.59c.02,.19,.04,.97,.02,1.14,.26-.61,.76-1.28,1.99-1.28,1.07,0,2.01,.6,2.01,2.25v3.89h-.6v-3.79c0-1.07-.44-1.76-1.49-1.76-1.43,0-1.92,1.19-1.92,2.49v3.06h-.6v-4.49Z"/>
    <path d="M602.87,172.92c.01,1.55,.79,2.51,1.94,2.51s1.51-.64,1.73-1.13h.61c-.25,.79-.89,1.69-2.36,1.69-1.82,0-2.53-1.57-2.53-3.09,0-1.72,.85-3.19,2.6-3.19,1.85,0,2.43,1.6,2.43,2.72,0,.17,0,.34-.01,.49h-4.41Zm3.8-.53c-.01-1.19-.66-2.12-1.83-2.12-1.24,0-1.8,.86-1.93,2.12h3.77Z"/>
    <path d="M608.91,174.19c.2,.78,.76,1.25,1.7,1.25,1.07,0,1.5-.49,1.5-1.16s-.29-1.02-1.63-1.34c-1.55-.37-1.93-.84-1.93-1.63s.62-1.6,1.98-1.6,2,.83,2.1,1.68h-.6c-.11-.5-.5-1.13-1.52-1.13s-1.34,.52-1.34,1c0,.55,.29,.83,1.48,1.12,1.69,.41,2.11,.96,2.11,1.86,0,1.09-.89,1.76-2.15,1.76-1.37,0-2.13-.72-2.3-1.8h.61Z"/>
    <path d="M614.38,174.19c.2,.78,.76,1.25,1.7,1.25,1.07,0,1.5-.49,1.5-1.16s-.29-1.02-1.63-1.34c-1.55-.37-1.93-.84-1.93-1.63s.62-1.6,1.98-1.6,2,.83,2.1,1.68h-.6c-.11-.5-.5-1.13-1.52-1.13s-1.34,.52-1.34,1c0,.55,.29,.83,1.48,1.12,1.69,.41,2.11,.96,2.11,1.86,0,1.09-.89,1.76-2.15,1.76-1.37,0-2.13-.72-2.3-1.8h.61Z"/>
  </g>
  <g>
    <path d="M426.5,287.42v-8.4h.96c1.31,2.02,4.38,6.71,4.91,7.62h.01c-.07-1.21-.06-2.45-.06-3.81v-3.8h.66v8.4h-.89c-1.25-1.94-4.37-6.82-4.96-7.75h-.01c.06,1.1,.05,2.33,.05,3.85v3.9h-.66Z"/>
    <path d="M435.28,284.5c.01,1.55,.79,2.51,1.94,2.51s1.51-.64,1.73-1.13h.61c-.25,.79-.89,1.69-2.36,1.69-1.82,0-2.53-1.57-2.53-3.09,0-1.71,.85-3.19,2.6-3.19,1.85,0,2.43,1.6,2.43,2.72,0,.17,0,.34-.01,.49h-4.41Zm3.8-.53c-.01-1.19-.66-2.12-1.83-2.12-1.24,0-1.8,.86-1.93,2.12h3.77Z"/>
    <path d="M446.08,284.42c0,1.67-.92,3.15-2.71,3.15-1.62,0-2.63-1.33-2.63-3.14,0-1.71,.95-3.14,2.69-3.14,1.59,0,2.65,1.25,2.65,3.13Zm-4.7,.01c0,1.43,.77,2.58,2.04,2.58s2.03-1.07,2.03-2.58c0-1.42-.72-2.58-2.05-2.58s-2.02,1.14-2.02,2.58Z"/>
    <path d="M446.68,281.43h1.12v-1.87h.6v1.87h1.43v.56h-1.43v3.9c0,.67,.14,1.06,.72,1.06,.18,0,.43-.01,.62-.07v.53c-.2,.08-.49,.11-.74,.11-.77,0-1.2-.38-1.2-1.34v-4.17h-1.12v-.56Z"/>
    <path d="M450.94,283.06c0-1.01-.01-1.44-.01-1.63h.59c.01,.19,.02,.58,.02,1.34,.35-.9,1.12-1.44,2.09-1.49v.65c-1.25,.08-2.09,.95-2.09,2.38v3.12h-.6v-4.37Z"/>
    <path d="M459.58,284.42c0,1.67-.92,3.15-2.71,3.15-1.62,0-2.63-1.33-2.63-3.14,0-1.71,.95-3.14,2.69-3.14,1.59,0,2.65,1.25,2.65,3.13Zm-4.7,.01c0,1.43,.77,2.58,2.04,2.58s2.03-1.07,2.03-2.58c0-1.42-.72-2.58-2.05-2.58s-2.01,1.14-2.01,2.58Z"/>
    <path d="M461.67,286.54v3.29h-.6v-6.92c0-.49,0-1.02-.01-1.47h.59c.02,.23,.02,.59,.02,1.08,.37-.72,1.03-1.22,2.11-1.22,1.42,0,2.4,1.19,2.4,2.99,0,2.16-1.15,3.3-2.6,3.3-1.06,0-1.61-.47-1.91-1.03Zm3.87-2.24c0-1.39-.67-2.43-1.86-2.43-1.45,0-2.05,.91-2.05,2.54s.47,2.6,1.97,2.6c1.25,0,1.94-1.05,1.94-2.71Z"/>
    <path d="M467.73,278.59h.6v1.16h-.6v-1.16Zm0,2.84h.6v6h-.6v-6Z"/>
    <path d="M474.72,285.66c-.29,1.06-.98,1.91-2.33,1.91-1.5,0-2.57-1.12-2.57-3.12,0-1.64,.88-3.17,2.64-3.17,1.52,0,2.15,1.08,2.25,1.92h-.61c-.18-.7-.64-1.36-1.66-1.36-1.27,0-1.99,1.08-1.99,2.58s.67,2.58,1.93,2.58c.88,0,1.4-.44,1.71-1.34h.61Z"/>
    <path d="M476.28,285.77c.2,.78,.76,1.25,1.7,1.25,1.07,0,1.5-.49,1.5-1.16s-.29-1.02-1.63-1.34c-1.55-.37-1.93-.84-1.93-1.63s.62-1.6,1.98-1.6,2,.83,2.1,1.68h-.6c-.11-.5-.5-1.13-1.52-1.13s-1.34,.52-1.34,1c0,.55,.29,.83,1.47,1.12,1.69,.41,2.11,.96,2.11,1.86,0,1.09-.89,1.76-2.15,1.76-1.37,0-2.13-.72-2.3-1.8h.61Z"/>
    <path d="M427.37,298.92l-1.07,2.9h-.66l3.08-8.4h.77l3.21,8.4h-.71l-1.09-2.9h-3.54Zm3.32-.6c-.93-2.5-1.42-3.69-1.58-4.26h-.01c-.2,.64-.74,2.12-1.5,4.26h3.09Z"/>
    <path d="M434,297.38c0-.52,0-1.08-.01-1.55h.59c.01,.2,.04,.72,.02,1.07,.25-.6,.8-1.21,1.8-1.21,.84,0,1.5,.42,1.74,1.19,.3-.62,.9-1.19,1.96-1.19,.92,0,1.88,.53,1.88,2.19v3.95h-.6v-3.87c0-.8-.29-1.68-1.4-1.68s-1.69,.93-1.69,2.1v3.45h-.59v-3.86c0-.88-.26-1.69-1.37-1.69-1.16,0-1.73,1.03-1.73,2.25v3.3h-.6v-4.45Z"/>
    <path d="M447.99,300.69c0,.53,.05,.95,.08,1.14h-.58c-.05-.14-.08-.41-.11-.92-.2,.44-.73,1.07-1.97,1.07-1.39,0-1.99-.9-1.99-1.8,0-1.32,1.02-1.92,2.82-1.92h1.14v-.61c0-.6-.18-1.4-1.55-1.4-1.21,0-1.39,.64-1.52,1.13h-.6c.07-.66,.48-1.68,2.13-1.68,1.37,0,2.13,.58,2.13,1.89v3.11Zm-.59-1.92h-1.18c-1.33,0-2.16,.35-2.16,1.38,0,.76,.54,1.27,1.38,1.27,1.71,0,1.96-1.14,1.96-2.43v-.22Z"/>
    <path d="M449.25,301.27l3.79-4.88h-3.6v-.56h4.29v.58l-3.74,4.86h3.87l-.14,.56h-4.47v-.55Z"/>
    <path d="M459.93,298.81c0,1.67-.92,3.15-2.71,3.15-1.62,0-2.63-1.33-2.63-3.14,0-1.71,.95-3.14,2.69-3.14,1.59,0,2.65,1.25,2.65,3.13Zm-4.7,.01c0,1.43,.77,2.58,2.04,2.58s2.03-1.07,2.03-2.58c0-1.42-.72-2.58-2.05-2.58s-2.01,1.14-2.01,2.58Z"/>
    <path d="M461.42,297.34c0-.53,0-1.03-.01-1.51h.59c.02,.19,.04,.97,.02,1.14,.26-.61,.76-1.28,1.99-1.28,1.07,0,2.01,.6,2.01,2.25v3.89h-.6v-3.79c0-1.07-.44-1.76-1.49-1.76-1.43,0-1.92,1.19-1.92,2.49v3.06h-.6v-4.49Z"/>
    <path d="M468,292.99h.6v1.16h-.6v-1.16Zm0,2.84h.6v6h-.6v-6Z"/>
    <path d="M474.6,300.69c0,.53,.05,.95,.08,1.14h-.58c-.05-.14-.08-.41-.11-.92-.2,.44-.73,1.07-1.97,1.07-1.39,0-1.99-.9-1.99-1.8,0-1.32,1.02-1.92,2.82-1.92h1.14v-.61c0-.6-.18-1.4-1.55-1.4-1.21,0-1.39,.64-1.52,1.13h-.6c.07-.66,.48-1.68,2.13-1.68,1.37,0,2.13,.58,2.13,1.89v3.11Zm-.59-1.92h-1.18c-1.33,0-2.16,.35-2.16,1.38,0,.76,.54,1.27,1.38,1.27,1.71,0,1.96-1.14,1.96-2.43v-.22Z"/>
    <path d="M426.5,307.83h3c1.54,0,2.59,.85,2.59,2.34s-1.04,2.4-2.67,2.4h-2.25v3.66h-.66v-8.4Zm.66,4.14h2.31c1.36,0,1.92-.72,1.92-1.77,0-1.13-.74-1.76-1.87-1.76h-2.36v3.54Z"/>
    <path d="M433.54,316.22v-8.84h.6v8.84h-.6Z"/>
    <path d="M440.13,315.09c0,.53,.05,.95,.08,1.14h-.58c-.05-.14-.08-.41-.11-.92-.2,.44-.73,1.07-1.97,1.07-1.39,0-1.99-.9-1.99-1.8,0-1.32,1.02-1.92,2.82-1.92h1.14v-.61c0-.6-.18-1.4-1.55-1.4-1.21,0-1.39,.64-1.52,1.13h-.6c.07-.66,.48-1.68,2.13-1.68,1.37,0,2.13,.58,2.13,1.9v3.11Zm-.59-1.92h-1.18c-1.33,0-2.16,.35-2.16,1.38,0,.76,.54,1.27,1.38,1.27,1.71,0,1.96-1.14,1.96-2.43v-.22Z"/>
    <path d="M442.12,311.74c0-.53,0-1.03-.01-1.51h.59c.02,.19,.04,.97,.02,1.14,.26-.61,.76-1.28,1.99-1.28,1.07,0,2.01,.6,2.01,2.25v3.89h-.6v-3.79c0-1.07-.44-1.76-1.49-1.76-1.43,0-1.92,1.19-1.92,2.5v3.06h-.6v-4.49Z"/>
    <path d="M447.76,310.23h1.12v-1.87h.6v1.87h1.43v.56h-1.43v3.9c0,.67,.14,1.06,.72,1.06,.18,0,.43-.01,.62-.07v.53c-.2,.08-.49,.11-.74,.11-.77,0-1.2-.38-1.2-1.34v-4.17h-1.12v-.56Z"/>
    <path d="M454.74,312.87v.59h-3.02v-.59h3.02Z"/>
    <path d="M456.44,307.39h.6v1.16h-.6v-1.16Zm0,2.84h.6v6h-.6v-6Z"/>
    <path d="M459.01,311.74c0-.53,0-1.03-.01-1.51h.59c.02,.19,.04,.97,.02,1.14,.26-.61,.76-1.28,1.99-1.28,1.07,0,2.01,.6,2.01,2.25v3.89h-.6v-3.79c0-1.07-.44-1.76-1.49-1.76-1.43,0-1.92,1.19-1.92,2.5v3.06h-.6v-4.49Z"/>
    <path d="M465.55,314.57c.2,.78,.76,1.25,1.7,1.25,1.07,0,1.5-.49,1.5-1.16s-.29-1.02-1.63-1.34c-1.55-.37-1.93-.84-1.93-1.63s.62-1.6,1.98-1.6,2,.83,2.1,1.68h-.6c-.11-.5-.5-1.13-1.52-1.13s-1.34,.52-1.34,1c0,.55,.29,.83,1.47,1.12,1.69,.41,2.11,.96,2.11,1.86,0,1.09-.89,1.76-2.15,1.76-1.37,0-2.13-.72-2.3-1.8h.61Z"/>
    <path d="M471.01,313.3c.01,1.55,.79,2.51,1.94,2.51s1.51-.64,1.73-1.13h.61c-.25,.79-.89,1.69-2.36,1.69-1.82,0-2.53-1.57-2.53-3.09,0-1.71,.85-3.19,2.6-3.19,1.85,0,2.43,1.6,2.43,2.72,0,.17,0,.34-.01,.49h-4.41Zm3.8-.53c-.01-1.19-.66-2.12-1.83-2.12-1.24,0-1.8,.86-1.93,2.12h3.77Z"/>
    <path d="M481.38,314.46c-.29,1.06-.98,1.91-2.33,1.91-1.5,0-2.57-1.12-2.57-3.12,0-1.64,.88-3.17,2.64-3.17,1.52,0,2.15,1.08,2.25,1.92h-.61c-.18-.7-.64-1.36-1.66-1.36-1.27,0-1.99,1.08-1.99,2.58s.67,2.58,1.93,2.58c.88,0,1.4-.44,1.71-1.34h.61Z"/>
    <path d="M482.01,310.23h1.12v-1.87h.6v1.87h1.43v.56h-1.43v3.9c0,.67,.14,1.06,.72,1.06,.18,0,.43-.01,.62-.07v.53c-.2,.08-.49,.11-.74,.11-.77,0-1.2-.38-1.2-1.34v-4.17h-1.12v-.56Z"/>
    <path d="M489.5,307.39h.6v1.16h-.6v-1.16Zm0,2.84h.6v6h-.6v-6Z"/>
    <path d="M492.07,311.74c0-.53,0-1.03-.01-1.51h.59c.02,.19,.04,.97,.02,1.14,.26-.61,.76-1.28,1.99-1.28,1.07,0,2.02,.6,2.02,2.25v3.89h-.6v-3.79c0-1.07-.44-1.76-1.49-1.76-1.43,0-1.92,1.19-1.92,2.5v3.06h-.6v-4.49Z"/>
    <path d="M497.71,310.23h1.12v-1.87h.6v1.87h1.43v.56h-1.43v3.9c0,.67,.14,1.06,.72,1.06,.18,0,.43-.01,.62-.07v.53c-.2,.08-.49,.11-.74,.11-.77,0-1.2-.38-1.2-1.34v-4.17h-1.12v-.56Z"/>
    <path d="M502.14,313.3c.01,1.55,.79,2.51,1.94,2.51s1.51-.64,1.73-1.13h.61c-.25,.79-.89,1.69-2.36,1.69-1.82,0-2.53-1.57-2.53-3.09,0-1.71,.85-3.19,2.6-3.19,1.85,0,2.43,1.6,2.43,2.72,0,.17,0,.34-.01,.49h-4.41Zm3.8-.53c-.01-1.19-.66-2.12-1.83-2.12-1.24,0-1.8,.86-1.93,2.12h3.77Z"/>
    <path d="M508.03,311.86c0-1.01-.01-1.44-.01-1.63h.59c.01,.19,.02,.58,.02,1.34,.35-.9,1.12-1.44,2.09-1.49v.65c-1.25,.08-2.09,.95-2.09,2.38v3.12h-.6v-4.37Z"/>
    <path d="M515.83,315.09c0,.53,.05,.95,.08,1.14h-.58c-.05-.14-.08-.41-.11-.92-.2,.44-.73,1.07-1.97,1.07-1.39,0-1.99-.9-1.99-1.8,0-1.32,1.02-1.92,2.82-1.92h1.14v-.61c0-.6-.18-1.4-1.55-1.4-1.21,0-1.39,.64-1.52,1.13h-.6c.07-.66,.48-1.68,2.13-1.68,1.37,0,2.14,.58,2.14,1.9v3.11Zm-.59-1.92h-1.18c-1.33,0-2.16,.35-2.16,1.38,0,.76,.54,1.27,1.38,1.27,1.71,0,1.96-1.14,1.96-2.43v-.22Z"/>
    <path d="M522.22,314.46c-.29,1.06-.98,1.91-2.33,1.91-1.5,0-2.57-1.12-2.57-3.12,0-1.64,.88-3.17,2.64-3.17,1.52,0,2.15,1.08,2.25,1.92h-.61c-.18-.7-.64-1.36-1.66-1.36-1.27,0-1.99,1.08-1.99,2.58s.67,2.58,1.93,2.58c.88,0,1.4-.44,1.71-1.34h.61Z"/>
    <path d="M522.86,310.23h1.12v-1.87h.6v1.87h1.43v.56h-1.43v3.9c0,.67,.14,1.06,.72,1.06,.18,0,.43-.01,.62-.07v.53c-.2,.08-.49,.11-.74,.11-.77,0-1.2-.38-1.2-1.34v-4.17h-1.12v-.56Z"/>
    <path d="M527.23,307.39h.6v1.16h-.6v-1.16Zm0,2.84h.6v6h-.6v-6Z"/>
    <path d="M534.65,313.21c0,1.67-.92,3.15-2.71,3.15-1.62,0-2.63-1.33-2.63-3.14,0-1.71,.95-3.14,2.69-3.14,1.59,0,2.65,1.25,2.65,3.13Zm-4.7,.01c0,1.43,.77,2.58,2.04,2.58s2.03-1.07,2.03-2.58c0-1.42-.72-2.58-2.05-2.58s-2.01,1.14-2.01,2.58Z"/>
    <path d="M536.14,311.74c0-.53,0-1.03-.01-1.51h.59c.02,.19,.04,.97,.02,1.14,.26-.61,.76-1.28,1.99-1.28,1.07,0,2.01,.6,2.01,2.25v3.89h-.6v-3.79c0-1.07-.44-1.76-1.49-1.76-1.43,0-1.92,1.19-1.92,2.5v3.06h-.6v-4.49Z"/>
    <path d="M542.68,314.57c.2,.78,.76,1.25,1.7,1.25,1.07,0,1.5-.49,1.5-1.16s-.29-1.02-1.63-1.34c-1.55-.37-1.93-.84-1.93-1.63s.62-1.6,1.98-1.6,2,.83,2.1,1.68h-.6c-.11-.5-.5-1.13-1.52-1.13s-1.34,.52-1.34,1c0,.55,.29,.83,1.48,1.12,1.69,.41,2.11,.96,2.11,1.86,0,1.09-.89,1.76-2.15,1.76-1.37,0-2.13-.72-2.3-1.8h.61Z"/>
  </g>
  <g>
    <path d="M130.32,355.59l-1.07,2.9h-.66l3.08-8.4h.77l3.21,8.4h-.71l-1.09-2.9h-3.54Zm3.32-.6c-.94-2.5-1.42-3.69-1.58-4.26h-.01c-.2,.64-.74,2.12-1.5,4.26h3.09Z"/>
    <path d="M137.25,356.84c.2,.78,.76,1.25,1.7,1.25,1.07,0,1.5-.49,1.5-1.16s-.29-1.02-1.63-1.34c-1.55-.37-1.93-.84-1.93-1.63s.62-1.59,1.98-1.59,2,.83,2.1,1.68h-.6c-.11-.5-.5-1.13-1.52-1.13s-1.34,.52-1.34,1c0,.55,.29,.83,1.48,1.12,1.69,.41,2.11,.96,2.11,1.86,0,1.09-.89,1.76-2.15,1.76-1.37,0-2.13-.72-2.3-1.8h.61Z"/>
    <path d="M142.72,356.84c.2,.78,.76,1.25,1.7,1.25,1.07,0,1.5-.49,1.5-1.16s-.29-1.02-1.63-1.34c-1.55-.37-1.93-.84-1.93-1.63s.62-1.59,1.98-1.59,2,.83,2.1,1.68h-.6c-.11-.5-.5-1.13-1.52-1.13s-1.34,.52-1.34,1c0,.55,.29,.83,1.48,1.12,1.69,.41,2.11,.96,2.11,1.86,0,1.09-.89,1.76-2.15,1.76-1.37,0-2.13-.72-2.3-1.8h.61Z"/>
    <path d="M148.18,355.56c.01,1.55,.79,2.51,1.94,2.51s1.51-.64,1.73-1.13h.61c-.25,.79-.89,1.69-2.36,1.69-1.82,0-2.53-1.57-2.53-3.09,0-1.72,.85-3.19,2.6-3.19,1.85,0,2.43,1.59,2.43,2.72,0,.17,0,.33-.01,.49h-4.41Zm3.8-.53c-.01-1.19-.66-2.12-1.83-2.12-1.24,0-1.8,.86-1.93,2.12h3.77Z"/>
    <path d="M154.22,356.84c.2,.78,.76,1.25,1.7,1.25,1.07,0,1.5-.49,1.5-1.16s-.29-1.02-1.63-1.34c-1.55-.37-1.93-.84-1.93-1.63s.62-1.59,1.98-1.59,2,.83,2.1,1.68h-.6c-.11-.5-.5-1.13-1.52-1.13s-1.34,.52-1.34,1c0,.55,.29,.83,1.48,1.12,1.69,.41,2.11,.96,2.11,1.86,0,1.09-.89,1.76-2.15,1.76-1.37,0-2.13-.72-2.3-1.8h.61Z"/>
    <path d="M159.69,356.84c.2,.78,.76,1.25,1.7,1.25,1.07,0,1.5-.49,1.5-1.16s-.29-1.02-1.63-1.34c-1.55-.37-1.93-.84-1.93-1.63s.62-1.59,1.98-1.59,2,.83,2.1,1.68h-.6c-.11-.5-.5-1.13-1.52-1.13s-1.34,.52-1.34,1c0,.55,.29,.83,1.48,1.12,1.69,.41,2.11,.96,2.11,1.86,0,1.09-.89,1.76-2.15,1.76-1.37,0-2.13-.72-2.3-1.8h.61Z"/>
    <path d="M164.93,354.04c0-.52,0-1.08-.01-1.55h.59c.01,.2,.04,.72,.02,1.07,.25-.6,.8-1.21,1.8-1.21,.84,0,1.5,.42,1.74,1.19,.3-.62,.9-1.19,1.96-1.19,.92,0,1.88,.53,1.88,2.19v3.95h-.6v-3.87c0-.8-.29-1.68-1.4-1.68s-1.69,.93-1.69,2.1v3.45h-.59v-3.86c0-.88-.26-1.69-1.37-1.69-1.16,0-1.73,1.03-1.73,2.25v3.3h-.6v-4.45Z"/>
    <path d="M175.01,355.56c.01,1.55,.79,2.51,1.94,2.51s1.51-.64,1.73-1.13h.61c-.25,.79-.89,1.69-2.36,1.69-1.82,0-2.53-1.57-2.53-3.09,0-1.72,.85-3.19,2.6-3.19,1.85,0,2.43,1.59,2.43,2.72,0,.17,0,.33-.01,.49h-4.41Zm3.8-.53c-.01-1.19-.66-2.12-1.83-2.12-1.24,0-1.8,.86-1.93,2.12h3.77Z"/>
    <path d="M180.9,354.01c0-.53,0-1.03-.01-1.51h.59c.02,.19,.04,.97,.02,1.14,.26-.61,.76-1.28,1.99-1.28,1.07,0,2.01,.6,2.01,2.25v3.89h-.6v-3.79c0-1.07-.44-1.76-1.49-1.76-1.43,0-1.92,1.19-1.92,2.49v3.06h-.6v-4.49Z"/>
    <path d="M186.54,352.49h1.12v-1.87h.6v1.87h1.43v.56h-1.43v3.9c0,.67,.14,1.06,.72,1.06,.18,0,.43-.01,.62-.07v.53c-.2,.08-.49,.11-.74,.11-.77,0-1.2-.38-1.2-1.34v-4.17h-1.12v-.56Z"/>
    <path d="M130.32,369.99l-1.07,2.9h-.66l3.08-8.4h.77l3.21,8.4h-.71l-1.09-2.9h-3.54Zm3.32-.6c-.94-2.49-1.42-3.69-1.58-4.26h-.01c-.2,.64-.74,2.12-1.5,4.26h3.09Z"/>
    <path d="M136.96,368.53c0-1.01-.01-1.44-.01-1.63h.59c.01,.19,.02,.58,.02,1.34,.35-.9,1.12-1.44,2.09-1.49v.65c-1.25,.08-2.09,.95-2.09,2.38v3.12h-.6v-4.37Z"/>
    <path d="M140.88,369.96c.01,1.55,.79,2.51,1.94,2.51s1.51-.63,1.73-1.13h.61c-.25,.79-.89,1.69-2.36,1.69-1.82,0-2.53-1.57-2.53-3.09,0-1.71,.85-3.19,2.6-3.19,1.85,0,2.43,1.6,2.43,2.72,0,.17,0,.34-.01,.49h-4.41Zm3.8-.53c-.01-1.19-.66-2.12-1.83-2.12-1.24,0-1.8,.86-1.93,2.12h3.77Z"/>
    <path d="M150.89,371.75c0,.53,.05,.95,.08,1.14h-.58c-.05-.14-.08-.41-.11-.92-.2,.44-.73,1.07-1.97,1.07-1.39,0-1.99-.9-1.99-1.8,0-1.32,1.02-1.92,2.82-1.92h1.14v-.61c0-.6-.18-1.4-1.55-1.4-1.21,0-1.39,.64-1.52,1.13h-.6c.07-.66,.48-1.68,2.13-1.68,1.37,0,2.13,.58,2.13,1.9v3.11Zm-.59-1.92h-1.18c-1.33,0-2.16,.35-2.16,1.38,0,.76,.54,1.27,1.38,1.27,1.71,0,1.96-1.14,1.96-2.43v-.22Z"/>
    <path d="M156.59,372v3.29h-.6v-6.92c0-.49,0-1.02-.01-1.47h.59c.02,.23,.02,.59,.02,1.08,.37-.72,1.03-1.22,2.11-1.22,1.42,0,2.4,1.19,2.4,2.99,0,2.16-1.15,3.3-2.6,3.3-1.06,0-1.61-.47-1.91-1.03Zm3.87-2.24c0-1.39-.67-2.43-1.86-2.43-1.45,0-2.05,.91-2.05,2.54s.47,2.6,1.97,2.6c1.25,0,1.94-1.05,1.94-2.71Z"/>
    <path d="M162.6,368.53c0-1.01-.01-1.44-.01-1.63h.59c.01,.19,.02,.58,.02,1.34,.35-.9,1.12-1.44,2.09-1.49v.65c-1.25,.08-2.09,.95-2.09,2.38v3.12h-.6v-4.37Z"/>
    <path d="M166.4,364.05h.6v1.16h-.6v-1.16Zm0,2.84h.6v6h-.6v-6Z"/>
    <path d="M173.82,369.88c0,1.67-.92,3.15-2.71,3.15-1.62,0-2.63-1.33-2.63-3.14,0-1.71,.95-3.14,2.69-3.14,1.59,0,2.65,1.25,2.65,3.13Zm-4.7,.01c0,1.43,.77,2.58,2.04,2.58s2.03-1.07,2.03-2.58c0-1.42-.72-2.58-2.05-2.58s-2.02,1.14-2.02,2.58Z"/>
    <path d="M175.31,368.53c0-1.01-.01-1.44-.01-1.63h.59c.01,.19,.02,.58,.02,1.34,.35-.9,1.12-1.44,2.09-1.49v.65c-1.25,.08-2.09,.95-2.09,2.38v3.12h-.6v-4.37Z"/>
    <path d="M179.1,364.05h.6v1.16h-.6v-1.16Zm0,2.84h.6v6h-.6v-6Z"/>
    <path d="M181.05,372.34l3.79-4.88h-3.6v-.56h4.29v.58l-3.74,4.86h3.87l-.14,.56h-4.47v-.55Z"/>
    <path d="M191.02,371.75c0,.53,.05,.95,.08,1.14h-.58c-.05-.14-.08-.41-.11-.92-.2,.44-.73,1.07-1.97,1.07-1.39,0-1.99-.9-1.99-1.8,0-1.32,1.02-1.92,2.82-1.92h1.14v-.61c0-.6-.18-1.4-1.55-1.4-1.21,0-1.39,.64-1.52,1.13h-.6c.07-.66,.48-1.68,2.13-1.68,1.37,0,2.13,.58,2.13,1.9v3.11Zm-.59-1.92h-1.18c-1.33,0-2.16,.35-2.16,1.38,0,.76,.54,1.27,1.38,1.27,1.71,0,1.96-1.14,1.96-2.43v-.22Z"/>
    <path d="M192.04,366.89h1.12v-1.87h.6v1.87h1.43v.56h-1.43v3.9c0,.67,.14,1.06,.72,1.06,.18,0,.43-.01,.62-.07v.53c-.2,.08-.49,.11-.74,.11-.77,0-1.2-.38-1.2-1.34v-4.17h-1.12v-.56Z"/>
    <path d="M196.41,364.05h.6v1.16h-.6v-1.16Zm0,2.84h.6v6h-.6v-6Z"/>
    <path d="M203.83,369.88c0,1.67-.92,3.15-2.71,3.15-1.62,0-2.63-1.33-2.63-3.14,0-1.71,.95-3.14,2.69-3.14,1.59,0,2.65,1.25,2.65,3.13Zm-4.7,.01c0,1.43,.77,2.58,2.04,2.58s2.03-1.07,2.03-2.58c0-1.42-.72-2.58-2.05-2.58s-2.01,1.14-2.01,2.58Z"/>
    <path d="M205.32,368.41c0-.53,0-1.03-.01-1.51h.59c.02,.19,.04,.97,.02,1.14,.26-.61,.76-1.28,1.99-1.28,1.07,0,2.01,.6,2.01,2.25v3.89h-.6v-3.79c0-1.07-.44-1.76-1.49-1.76-1.43,0-1.92,1.19-1.92,2.5v3.06h-.6v-4.49Z"/>
    <path d="M129.52,385.04c.25,1.12,1,1.78,2.37,1.78,1.54,0,2.12-.77,2.12-1.68s-.42-1.54-2.27-1.99c-1.78-.44-2.54-1.02-2.54-2.23,0-1.1,.8-2.13,2.6-2.13s2.63,1.13,2.73,2.15h-.67c-.19-.9-.78-1.55-2.1-1.55-1.21,0-1.87,.56-1.87,1.5s.55,1.28,2.1,1.67c2.36,.59,2.71,1.54,2.71,2.54,0,1.24-.9,2.3-2.84,2.3-2.1,0-2.87-1.22-3.02-2.35h.67Z"/>
    <path d="M140.77,385.53c-.29,1.06-.98,1.91-2.33,1.91-1.5,0-2.57-1.12-2.57-3.12,0-1.64,.88-3.17,2.64-3.17,1.52,0,2.15,1.08,2.25,1.92h-.61c-.18-.7-.64-1.36-1.65-1.36-1.27,0-1.99,1.08-1.99,2.58s.67,2.58,1.93,2.58c.88,0,1.4-.44,1.71-1.34h.61Z"/>
    <path d="M142.32,378.45h.6v1.16h-.6v-1.16Zm0,2.84h.6v6h-.6v-6Z"/>
    <path d="M145.02,384.36c.01,1.55,.79,2.51,1.94,2.51s1.51-.64,1.73-1.13h.61c-.25,.79-.89,1.69-2.36,1.69-1.82,0-2.53-1.57-2.53-3.09,0-1.72,.85-3.19,2.6-3.19,1.85,0,2.43,1.59,2.43,2.72,0,.17,0,.33-.01,.49h-4.41Zm3.8-.53c-.01-1.19-.66-2.12-1.83-2.12-1.24,0-1.8,.86-1.93,2.12h3.77Z"/>
    <path d="M150.92,382.81c0-.53,0-1.03-.01-1.51h.59c.02,.19,.04,.97,.02,1.14,.26-.61,.76-1.28,1.99-1.28,1.07,0,2.01,.6,2.01,2.25v3.89h-.6v-3.79c0-1.07-.44-1.76-1.49-1.76-1.43,0-1.92,1.19-1.92,2.49v3.06h-.6v-4.49Z"/>
    <path d="M156.56,381.29h1.12v-1.87h.6v1.87h1.43v.56h-1.43v3.9c0,.67,.14,1.06,.72,1.06,.18,0,.43-.01,.62-.07v.53c-.2,.08-.49,.11-.74,.11-.77,0-1.2-.38-1.2-1.34v-4.17h-1.12v-.56Z"/>
    <path d="M160.92,378.45h.6v1.16h-.6v-1.16Zm0,2.84h.6v6h-.6v-6Z"/>
    <path d="M163.79,387.29v-5.43h-1.03v-.56h1.03v-.85c0-1.01,.29-2.11,1.63-2.11,.18,0,.44,.04,.59,.08v.58c-.18-.05-.47-.07-.65-.07-.71,0-.97,.5-.97,1.55v.83h1.31v.56h-1.31v5.43h-.6Z"/>
    <path d="M166.8,378.45h.6v1.16h-.6v-1.16Zm0,2.84h.6v6h-.6v-6Z"/>
    <path d="M173.79,385.53c-.29,1.06-.98,1.91-2.33,1.91-1.5,0-2.57-1.12-2.57-3.12,0-1.64,.88-3.17,2.64-3.17,1.52,0,2.15,1.08,2.25,1.92h-.61c-.18-.7-.64-1.36-1.65-1.36-1.27,0-1.99,1.08-1.99,2.58s.67,2.58,1.93,2.58c.88,0,1.4-.44,1.71-1.34h.61Z"/>
    <path d="M183.16,384.28c0,1.67-.92,3.15-2.71,3.15-1.62,0-2.63-1.33-2.63-3.14,0-1.71,.95-3.14,2.69-3.14,1.59,0,2.65,1.25,2.65,3.13Zm-4.7,.01c0,1.43,.77,2.58,2.04,2.58s2.03-1.07,2.03-2.58c0-1.42-.72-2.58-2.05-2.58s-2.02,1.14-2.02,2.58Z"/>
    <path d="M189.13,385.54c0,.59,.01,1.52,.01,1.75h-.58c-.02-.16-.04-.55-.04-1.04-.25,.71-.86,1.19-1.93,1.19-.86,0-1.97-.34-1.97-2.17v-3.97h.59v3.83c0,.88,.28,1.73,1.46,1.73,1.34,0,1.85-.75,1.85-2.47v-3.08h.6v4.25Z"/>
    <path d="M190.35,381.29h1.12v-1.87h.6v1.87h1.43v.56h-1.43v3.9c0,.67,.14,1.06,.72,1.06,.18,0,.43-.01,.62-.07v.53c-.2,.08-.49,.11-.74,.11-.77,0-1.2-.38-1.2-1.34v-4.17h-1.12v-.56Z"/>
    <path d="M194.61,382.92c0-1.01-.01-1.44-.01-1.63h.59c.01,.19,.02,.58,.02,1.34,.35-.9,1.12-1.44,2.09-1.49v.65c-1.25,.08-2.09,.95-2.09,2.38v3.12h-.6v-4.37Z"/>
    <path d="M198.53,384.36c.01,1.55,.79,2.51,1.94,2.51s1.51-.64,1.73-1.13h.61c-.25,.79-.89,1.69-2.36,1.69-1.82,0-2.53-1.57-2.53-3.09,0-1.72,.85-3.19,2.6-3.19,1.85,0,2.43,1.59,2.43,2.72,0,.17,0,.33-.01,.49h-4.41Zm3.8-.53c-.01-1.19-.66-2.12-1.83-2.12-1.24,0-1.8,.86-1.93,2.12h3.77Z"/>
    <path d="M208.54,386.15c0,.53,.05,.95,.08,1.14h-.58c-.05-.14-.08-.41-.11-.92-.2,.44-.73,1.07-1.97,1.07-1.39,0-1.99-.9-1.99-1.8,0-1.32,1.02-1.92,2.82-1.92h1.14v-.61c0-.6-.18-1.4-1.55-1.4-1.21,0-1.39,.64-1.52,1.13h-.6c.07-.66,.48-1.68,2.13-1.68,1.37,0,2.14,.58,2.14,1.89v3.11Zm-.59-1.92h-1.18c-1.33,0-2.16,.35-2.16,1.38,0,.76,.54,1.27,1.38,1.27,1.71,0,1.96-1.14,1.96-2.43v-.22Z"/>
    <path d="M214.93,385.53c-.29,1.06-.98,1.91-2.33,1.91-1.5,0-2.57-1.12-2.57-3.12,0-1.64,.88-3.17,2.64-3.17,1.52,0,2.15,1.08,2.25,1.92h-.61c-.18-.7-.64-1.36-1.66-1.36-1.27,0-1.99,1.08-1.99,2.58s.67,2.58,1.93,2.58c.88,0,1.4-.44,1.71-1.34h.61Z"/>
    <path d="M216.93,378.45v3.85c.34-.62,.92-1.15,1.98-1.15,.85,0,2.03,.43,2.03,2.33v3.81h-.6v-3.69c0-1.19-.54-1.86-1.54-1.86-1.19,0-1.87,.73-1.87,2.21v3.35h-.6v-8.84h.6Z"/>
  </g>
  <g>
    <path d="M33.96,2.39V12.77h-1.95V2.39h1.95Z"/>
    <path d="M36.56,12.77V2.39h2.45c1.36,2.36,4.04,6.89,4.56,8.02h.03c-.11-1.17-.11-2.91-.11-4.61V2.39h1.78V12.77h-2.32c-1.2-2.1-4.1-7.18-4.66-8.36h-.03c.08,1,.09,3,.09,4.87v3.5h-1.79Z"/>
    <path d="M50.04,4h-3.22v-1.61h8.38v1.61h-3.21V12.77h-1.95V4Z"/>
    <path d="M63.55,8.16h-5.03v2.99h5.54l-.24,1.61h-7.2V2.39h7.15v1.61h-5.26v2.55h5.03v1.61Z"/>
    <path d="M67.67,8.47v4.29h-1.91V2.39h4.38c2.22,0,3.41,1.22,3.41,2.82,0,1.38-.76,2.15-1.6,2.45,.63,.2,1.39,.77,1.39,2.61v.49c0,.7,0,1.54,.15,2h-1.86c-.18-.45-.2-1.24-.2-2.29v-.18c0-1.25-.33-1.82-2.07-1.82h-1.7Zm0-1.57h2.01c1.35,0,1.9-.51,1.9-1.48s-.61-1.46-1.81-1.46h-2.1v2.94Z"/>
    <path d="M82.59,8.16h-5.03v2.99h5.54l-.24,1.61h-7.2V2.39h7.15v1.61h-5.26v2.55h5.03v1.61Z"/>
    <path d="M86.17,9.78c.25,1.11,1.03,1.64,2.34,1.64s1.9-.57,1.9-1.41c0-.91-.5-1.35-2.38-1.8-2.69-.64-3.44-1.6-3.44-3.02,0-1.72,1.28-2.95,3.69-2.95,2.66,0,3.73,1.46,3.87,2.93h-1.96c-.13-.74-.56-1.45-1.96-1.45-1.03,0-1.64,.44-1.64,1.27s.49,1.13,2.21,1.54c3,.71,3.61,1.85,3.61,3.26,0,1.82-1.37,3.12-4.04,3.12s-3.92-1.34-4.16-3.13h1.96Z"/>
    <path d="M96.33,4h-3.22v-1.61h8.38v1.61h-3.21V12.77h-1.95V4Z"/>
    <path d="M104.31,9.78c.25,1.11,1.03,1.64,2.34,1.64s1.9-.57,1.9-1.41c0-.91-.5-1.35-2.38-1.8-2.69-.64-3.44-1.6-3.44-3.02,0-1.72,1.28-2.95,3.69-2.95,2.66,0,3.73,1.46,3.87,2.93h-1.96c-.13-.74-.56-1.45-1.96-1.45-1.03,0-1.64,.44-1.64,1.27s.49,1.13,2.21,1.54c3,.71,3.61,1.85,3.61,3.26,0,1.82-1.37,3.12-4.04,3.12s-3.92-1.34-4.16-3.13h1.96Z"/>
  </g>
</svg>