<?xml version="1.0" encoding="utf-8"?>
<!-- Generator: Adobe Illustrator 24.1.1, SVG Export Plug-In . SVG Version: 6.00 Build 0)  -->
<svg version="1.1" id="Camada_1" xmlns="http://www.w3.org/2000/svg" xmlns:xlink="http://www.w3.org/1999/xlink" x="0px" y="0px"
	 viewBox="0 0 700 500" style="enable-background:new 0 0 700 500;" xml:space="preserve">
<style type="text/css">
	.st0{fill:none;stroke:#D96A6E;stroke-width:0.5;stroke-miterlimit:10;}
</style>
<circle class="st0" cx="269.8" cy="206.4" r="174.4"/>
<circle class="st0" cx="506.3" cy="171.4" r="101.3"/>
<circle class="st0" cx="162.1" cy="376.3" r="91.5"/>
<ellipse class="st0" cx="464.4" cy="302.8" rx="75.7" ry="73.5"/>
<g>
	<g>
		<path d="M14.4,22.3V32h-2.1v-9.7H14.4z"/>
		<path d="M16.7,32v-9.7h2.6c1.2,2.2,3.4,6.1,3.9,7.1h0c-0.1-1-0.1-2.7-0.1-4.3v-2.9H25V32h-2.5c-1-1.9-3.5-6.4-4-7.5h0
			c0.1,0.8,0.1,2.8,0.1,4.6V32H16.7z"/>
		<path d="M29.2,24h-2.9v-1.7h7.9V24h-2.9V32h-2.1V24z"/>
		<path d="M42.2,27.8h-4.6v2.5h5.1L42.4,32h-6.9v-9.7h6.8V24h-4.8v2.1h4.6V27.8z"/>
		<path d="M46.2,28.1V32h-2v-9.7h4.2c2.1,0,3.2,1.2,3.2,2.7c0,1.3-0.7,2-1.4,2.3c0.5,0.2,1.2,0.7,1.2,2.4v0.5c0,0.6,0,1.4,0.1,1.8
			h-2c-0.2-0.4-0.2-1.1-0.2-2.2v-0.1c0-1.1-0.3-1.6-1.8-1.6H46.2z M46.2,26.4H48c1.1,0,1.6-0.4,1.6-1.2c0-0.8-0.5-1.2-1.5-1.2h-1.8
			V26.4z"/>
		<path d="M60.1,27.8h-4.6v2.5h5.1L60.3,32h-6.9v-9.7h6.8V24h-4.8v2.1h4.6V27.8z"/>
		<path d="M63.5,29.1c0.2,1,0.9,1.4,2,1.4c1.1,0,1.6-0.4,1.6-1.1c0-0.8-0.5-1.1-2.1-1.5c-2.6-0.6-3.3-1.6-3.3-2.9
			c0-1.7,1.3-2.8,3.5-2.8c2.6,0,3.6,1.4,3.7,2.8h-2.1c-0.1-0.6-0.4-1.2-1.7-1.2c-0.8,0-1.4,0.4-1.4,1c0,0.7,0.4,0.9,2,1.3
			c2.8,0.7,3.4,1.7,3.4,3.1c0,1.8-1.3,3-3.9,3c-2.5,0-3.7-1.2-4-3H63.5z"/>
		<path d="M72.4,29.1c0.2,1,0.9,1.4,2,1.4c1.1,0,1.6-0.4,1.6-1.1c0-0.8-0.5-1.1-2.1-1.5c-2.6-0.6-3.3-1.6-3.3-2.9
			c0-1.7,1.3-2.8,3.5-2.8c2.6,0,3.6,1.4,3.7,2.8h-2.1c-0.1-0.6-0.4-1.2-1.7-1.2c-0.8,0-1.4,0.4-1.4,1c0,0.7,0.4,0.9,2,1.3
			c2.8,0.7,3.4,1.7,3.4,3.1c0,1.8-1.3,3-3.9,3c-2.5,0-3.7-1.2-4-3H72.4z"/>
		<path d="M86.5,27.8h-4.6v2.5H87L86.7,32h-6.9v-9.7h6.8V24h-4.8v2.1h4.6V27.8z"/>
		<path d="M89.9,29.1c0.2,1,0.9,1.4,2,1.4c1.1,0,1.6-0.4,1.6-1.1c0-0.8-0.5-1.1-2.1-1.5c-2.6-0.6-3.3-1.6-3.3-2.9
			c0-1.7,1.3-2.8,3.5-2.8c2.6,0,3.6,1.4,3.7,2.8h-2.1c-0.1-0.6-0.4-1.2-1.7-1.2c-0.8,0-1.4,0.4-1.4,1c0,0.7,0.4,0.9,2,1.3
			c2.8,0.7,3.4,1.7,3.4,3.1c0,1.8-1.3,3-3.9,3c-2.5,0-3.7-1.2-4-3H89.9z"/>
	</g>
</g>
<g>
	<g>
		<path d="M181.2,109.7h4.2c2.3,0,3.2,1.2,3.2,2.5c0,1.1-0.6,1.8-1.2,2.1c0.7,0.2,1.5,0.9,1.5,2.2c0,1.7-1.3,2.9-3.4,2.9h-4.4V109.7
			z M185.2,113.5c1,0,1.4-0.4,1.4-1.1c0-0.7-0.5-1.1-1.3-1.1h-2v2.2H185.2z M183.2,117.8h1.9c1.1,0,1.6-0.5,1.6-1.3
			c0-0.8-0.5-1.3-1.7-1.3h-1.9V117.8z"/>
		<path d="M192.7,109.7v9.7h-2.1v-9.7H192.7z"/>
		<path d="M203.9,114.5c0,2.7-1.6,5-4.8,5c-3,0-4.6-2.2-4.6-5c0-2.8,1.8-5,4.8-5C202.1,109.6,203.9,111.6,203.9,114.5z M196.7,114.5
			c0,1.9,0.8,3.3,2.5,3.3c1.9,0,2.5-1.6,2.5-3.3c0-1.8-0.7-3.3-2.5-3.3C197.5,111.3,196.7,112.6,196.7,114.5z"/>
		<path d="M205.7,109.7h3.8c2.8,0,4.7,1.9,4.7,4.7c0,2.8-1.8,4.9-4.7,4.9h-3.7V109.7z M207.8,117.7h1.6c1.9,0,2.7-1.4,2.7-3.3
			c0-1.6-0.8-3-2.7-3h-1.6V117.7z"/>
		<path d="M218.1,109.7v9.7H216v-9.7H218.1z"/>
		<path d="M222.7,119.4l-3.4-9.7h2.2l1.4,4.5c0.4,1.3,0.8,2.5,1,3.5h0c0.2-0.9,0.6-2.1,1-3.5l1.5-4.5h2.1l-3.5,9.7H222.7z"/>
		<path d="M236.4,115.2h-4.6v2.5h5.1l-0.2,1.7h-6.9v-9.7h6.8v1.7h-4.8v2.1h4.6V115.2z"/>
		<path d="M240.5,115.5v3.9h-2v-9.7h4.2c2.1,0,3.2,1.2,3.2,2.7c0,1.3-0.7,2-1.4,2.3c0.5,0.2,1.2,0.7,1.2,2.4v0.5
			c0,0.6,0,1.4,0.1,1.8h-2c-0.2-0.4-0.2-1.1-0.2-2.2v-0.1c0-1.1-0.3-1.6-1.8-1.6H240.5z M240.5,113.9h1.8c1.1,0,1.6-0.4,1.6-1.2
			c0-0.8-0.5-1.2-1.5-1.2h-1.8V113.9z"/>
		<path d="M249.1,116.6c0.2,1,0.9,1.4,2,1.4c1.1,0,1.6-0.4,1.6-1.1c0-0.8-0.5-1.1-2.1-1.5c-2.6-0.6-3.3-1.6-3.3-2.9
			c0-1.7,1.3-2.8,3.5-2.8c2.6,0,3.6,1.4,3.7,2.8h-2.1c-0.1-0.6-0.4-1.2-1.7-1.2c-0.8,0-1.4,0.4-1.4,1c0,0.7,0.4,0.9,2,1.3
			c2.8,0.7,3.4,1.7,3.4,3.1c0,1.8-1.3,3-3.9,3c-2.5,0-3.7-1.2-4-3H249.1z"/>
		<path d="M258.7,109.7v9.7h-2.1v-9.7H258.7z"/>
		<path d="M261,109.7h3.8c2.8,0,4.7,1.9,4.7,4.7c0,2.8-1.8,4.9-4.7,4.9H261V109.7z M263.1,117.7h1.6c1.9,0,2.7-1.4,2.7-3.3
			c0-1.6-0.8-3-2.7-3h-1.6V117.7z"/>
		<path d="M273.1,117.2l-0.8,2.2h-2.1l3.3-9.7h2.6l3.4,9.7h-2.2l-0.8-2.2H273.1z M276.2,115.4c-0.7-2-1.1-3.3-1.4-4.2h0
			c-0.2,1-0.7,2.5-1.3,4.2H276.2z"/>
		<path d="M280.9,109.7h3.8c2.8,0,4.7,1.9,4.7,4.7c0,2.8-1.8,4.9-4.7,4.9h-3.7V109.7z M283,117.7h1.6c1.9,0,2.7-1.4,2.7-3.3
			c0-1.6-0.8-3-2.7-3H283V117.7z"/>
		<path d="M297.9,115.2h-4.6v2.5h5.1l-0.2,1.7h-6.9v-9.7h6.8v1.7h-4.8v2.1h4.6V115.2z"/>
	</g>
</g>
<g>
	<g>
		<path d="M178.5,155.1h2.8c2.3,0,3.9,1.6,3.9,4.1c0,2.5-1.6,4.3-3.9,4.3h-2.8V155.1z M179.2,162.9h2c2.2,0,3.3-1.6,3.3-3.6
			c0-1.8-1-3.6-3.3-3.6h-2V162.9z"/>
		<path d="M186.9,154.7h0.6v1.2h-0.6V154.7z M186.9,157.5h0.6v6h-0.6V157.5z"/>
		<path d="M189.4,161.8c0.2,0.8,0.8,1.2,1.7,1.2c1.1,0,1.5-0.5,1.5-1.2c0-0.7-0.3-1-1.6-1.3c-1.5-0.4-1.9-0.8-1.9-1.6
			c0-0.8,0.6-1.6,2-1.6s2,0.8,2.1,1.7h-0.6c-0.1-0.5-0.5-1.1-1.5-1.1c-1,0-1.3,0.5-1.3,1c0,0.6,0.3,0.8,1.5,1.1
			c1.7,0.4,2.1,1,2.1,1.9c0,1.1-0.9,1.8-2.1,1.8c-1.4,0-2.1-0.7-2.3-1.8H189.4z"/>
		<path d="M193.9,157.5h1.1v-1.9h0.6v1.9h1.4v0.6h-1.4v3.9c0,0.7,0.1,1.1,0.7,1.1c0.2,0,0.4,0,0.6-0.1v0.5c-0.2,0.1-0.5,0.1-0.7,0.1
			c-0.8,0-1.2-0.4-1.2-1.3v-4.2h-1.1V157.5z"/>
		<path d="M198.2,159.1c0-1,0-1.4,0-1.6h0.6c0,0.2,0,0.6,0,1.3c0.3-0.9,1.1-1.4,2.1-1.5v0.6c-1.2,0.1-2.1,0.9-2.1,2.4v3.1h-0.6
			V159.1z"/>
		<path d="M202.1,154.7h0.6v1.2h-0.6V154.7z M202.1,157.5h0.6v6h-0.6V157.5z"/>
		<path d="M204.7,154.7h0.6v3.9c0.3-0.6,0.9-1.2,2.1-1.2c1.4,0,2.5,1.2,2.5,3c0,1.9-0.9,3.3-2.6,3.3c-1,0-1.6-0.4-1.9-1.1
			c0,0.4,0,0.8,0,0.9h-0.6c0-0.7,0-1.4,0-2.1V154.7z M209.2,160.4c0-1.5-0.7-2.5-1.9-2.5c-1.5,0-2,1-2,2.6c0,1.4,0.5,2.6,2,2.6
			C208.4,163.1,209.2,162.1,209.2,160.4z"/>
		<path d="M215.8,161.7c0,0.6,0,1.5,0,1.8h-0.6c0-0.2,0-0.6,0-1c-0.3,0.7-0.9,1.2-1.9,1.2c-0.9,0-2-0.3-2-2.2v-4h0.6v3.8
			c0,0.9,0.3,1.7,1.5,1.7c1.3,0,1.8-0.8,1.8-2.5v-3.1h0.6V161.7z"/>
		<path d="M217.8,154.7h0.6v1.2h-0.6V154.7z M217.8,157.5h0.6v6h-0.6V157.5z"/>
		<path d="M224.7,161.7c-0.3,1.1-1,1.9-2.3,1.9c-1.5,0-2.6-1.1-2.6-3.1c0-1.6,0.9-3.2,2.6-3.2c1.5,0,2.1,1.1,2.3,1.9h-0.6
			c-0.2-0.7-0.6-1.4-1.7-1.4c-1.3,0-2,1.1-2,2.6c0,1.4,0.7,2.6,1.9,2.6c0.9,0,1.4-0.4,1.7-1.3H224.7z M222.9,163.5l-0.5,0.7
			c0.4,0,1.2,0.3,1.2,1.1c0,0.9-0.8,1.1-1.3,1.1c-0.4,0-0.7-0.1-0.9-0.2v-0.6c0.2,0.1,0.6,0.2,0.9,0.2c0.5,0,0.7-0.2,0.7-0.5
			c0-0.5-0.7-0.6-1.4-0.6v-0.3l0.7-1L222.9,163.5z"/>
		<path d="M230.2,162.4c0,0.5,0,0.9,0.1,1.1h-0.6c0-0.1-0.1-0.4-0.1-0.9c-0.2,0.4-0.7,1.1-2,1.1c-1.4,0-2-0.9-2-1.8
			c0-1.3,1-1.9,2.8-1.9c0.5,0,0.9,0,1.1,0v-0.6c0-0.6-0.2-1.4-1.5-1.4c-1.2,0-1.4,0.6-1.5,1.1H226c0.1-0.7,0.5-1.7,2.1-1.7
			c1.4,0,2.1,0.6,2.1,1.9V162.4z M229.7,160.4c-0.2,0-0.8,0-1.2,0c-1.3,0-2.2,0.3-2.2,1.4c0,0.8,0.5,1.3,1.4,1.3c1.7,0,2-1.1,2-2.4
			V160.4z M226.5,156.1v-0.2c0-0.8,0.3-1,0.9-1c0.6,0,1.3,0.7,1.7,0.7c0.3,0,0.4-0.1,0.4-0.6v-0.1h0.5v0.2c0,0.8-0.3,1.1-0.9,1.1
			c-0.6,0-1.2-0.7-1.7-0.7c-0.2,0-0.3,0.1-0.3,0.5v0.2H226.5z"/>
		<path d="M237.1,160.5c0,1.7-0.9,3.2-2.7,3.2c-1.6,0-2.6-1.3-2.6-3.1c0-1.7,0.9-3.1,2.7-3.1C236,157.4,237.1,158.6,237.1,160.5z
			 M232.4,160.5c0,1.4,0.8,2.6,2,2.6c1.3,0,2-1.1,2-2.6c0-1.4-0.7-2.6-2.1-2.6C233,157.9,232.4,159.1,232.4,160.5z"/>
		<path d="M246.3,163.1c0,1.9-0.9,2.9-2.6,2.9c-1.6,0-2.2-0.9-2.4-1.8h0.6c0.2,0.8,0.9,1.2,1.8,1.2c1.6,0,2-1,2-2.5v-0.6
			c-0.3,0.8-0.9,1.2-2,1.2c-1.4,0-2.5-1.1-2.5-3c0-2,1.2-3.1,2.6-3.1c1.2,0,1.8,0.6,1.9,1.1c0-0.3,0-0.8,0-0.9h0.6
			c0,0.2,0,1.2,0,1.7V163.1z M241.9,160.5c0,1.4,0.8,2.5,1.9,2.5c1.5,0,2-1,2-2.6c0-1.6-0.5-2.5-1.9-2.5
			C242.4,157.9,241.9,159.1,241.9,160.5z"/>
		<path d="M248.4,160.6c0,1.5,0.8,2.5,1.9,2.5c1.1,0,1.5-0.6,1.7-1.1h0.6c-0.3,0.8-0.9,1.7-2.4,1.7c-1.8,0-2.5-1.6-2.5-3.1
			c0-1.7,0.9-3.2,2.6-3.2c1.8,0,2.4,1.6,2.4,2.7c0,0.2,0,0.3,0,0.5H248.4z M252.2,160c0-1.2-0.7-2.1-1.8-2.1c-1.2,0-1.8,0.9-1.9,2.1
			H252.2z"/>
		<path d="M259.1,160.5c0,1.7-0.9,3.2-2.7,3.2c-1.6,0-2.6-1.3-2.6-3.1c0-1.7,0.9-3.1,2.7-3.1C258.1,157.4,259.1,158.6,259.1,160.5z
			 M254.4,160.5c0,1.4,0.8,2.6,2,2.6c1.3,0,2-1.1,2-2.6c0-1.4-0.7-2.6-2.1-2.6C255.1,157.9,254.4,159.1,254.4,160.5z"/>
		<path d="M265.2,163.1c0,1.9-0.9,2.9-2.6,2.9c-1.6,0-2.2-0.9-2.4-1.8h0.6c0.2,0.8,0.9,1.2,1.8,1.2c1.6,0,2-1,2-2.5v-0.6
			c-0.3,0.8-0.9,1.2-2,1.2c-1.4,0-2.5-1.1-2.5-3c0-2,1.2-3.1,2.6-3.1c1.2,0,1.8,0.6,1.9,1.1c0-0.3,0-0.8,0-0.9h0.6
			c0,0.2,0,1.2,0,1.7V163.1z M260.8,160.5c0,1.4,0.8,2.5,1.9,2.5c1.5,0,2-1,2-2.6c0-1.6-0.5-2.5-1.9-2.5
			C261.3,157.9,260.8,159.1,260.8,160.5z"/>
		<path d="M267.2,159.1c0-1,0-1.4,0-1.6h0.6c0,0.2,0,0.6,0,1.3c0.3-0.9,1.1-1.4,2.1-1.5v0.6c-1.2,0.1-2.1,0.9-2.1,2.4v3.1h-0.6
			V159.1z"/>
		<path d="M275.2,162.4c0,0.5,0,0.9,0.1,1.1h-0.6c0-0.1-0.1-0.4-0.1-0.9c-0.2,0.4-0.7,1.1-2,1.1c-1.4,0-2-0.9-2-1.8
			c0-1.3,1-1.9,2.8-1.9c0.5,0,0.9,0,1.1,0v-0.6c0-0.6-0.2-1.4-1.5-1.4c-1.2,0-1.4,0.6-1.5,1.1h-0.6c0.1-0.7,0.5-1.7,2.1-1.7
			c1.4,0,2.1,0.6,2.1,1.9V162.4z M274.6,160.4c-0.2,0-0.8,0-1.2,0c-1.3,0-2.2,0.3-2.2,1.4c0,0.8,0.5,1.3,1.4,1.3c1.7,0,2-1.1,2-2.4
			V160.4z M275,154.5l-1.8,1.9h-0.6l1.6-1.9H275z"/>
		<path d="M277.3,163.5v-5.4h-1v-0.6h1v-0.9c0-1,0.3-2.1,1.6-2.1c0.2,0,0.4,0,0.6,0.1v0.6c-0.2,0-0.5-0.1-0.6-0.1
			c-0.7,0-1,0.5-1,1.5v0.8h1.3v0.6h-1.3v5.4H277.3z"/>
		<path d="M280.2,154.7h0.6v1.2h-0.6V154.7z M280.2,157.5h0.6v6h-0.6V157.5z"/>
		<path d="M287.1,161.7c-0.3,1.1-1,1.9-2.3,1.9c-1.5,0-2.6-1.1-2.6-3.1c0-1.6,0.9-3.2,2.6-3.2c1.5,0,2.1,1.1,2.3,1.9h-0.6
			c-0.2-0.7-0.6-1.4-1.7-1.4c-1.3,0-2,1.1-2,2.6c0,1.4,0.7,2.6,1.9,2.6c0.9,0,1.4-0.4,1.7-1.3H287.1z"/>
		<path d="M292.7,162.4c0,0.5,0,0.9,0.1,1.1h-0.6c0-0.1-0.1-0.4-0.1-0.9c-0.2,0.4-0.7,1.1-2,1.1c-1.4,0-2-0.9-2-1.8
			c0-1.3,1-1.9,2.8-1.9c0.5,0,0.9,0,1.1,0v-0.6c0-0.6-0.2-1.4-1.5-1.4c-1.2,0-1.4,0.6-1.5,1.1h-0.6c0.1-0.7,0.5-1.7,2.1-1.7
			c1.4,0,2.1,0.6,2.1,1.9V162.4z M292.1,160.4c-0.2,0-0.8,0-1.2,0c-1.3,0-2.2,0.3-2.2,1.4c0,0.8,0.5,1.3,1.4,1.3c1.7,0,2-1.1,2-2.4
			V160.4z"/>
		<path d="M179.2,174v3.9h-0.7v-8.4h3c1.7,0,2.5,0.9,2.5,2.2c0,1.1-0.6,1.8-1.6,2c0.9,0.2,1.4,0.8,1.4,2.2v0.3c0,0.6,0,1.4,0.1,1.7
			h-0.7c-0.2-0.4-0.1-1-0.1-1.8v-0.2c0-1.4-0.4-2-2-2H179.2z M179.2,173.4h2c1.5,0,2.2-0.6,2.2-1.7c0-1-0.7-1.6-2-1.6h-2.2V173.4z"
			/>
		<path d="M185.9,169.1h0.6v1.2h-0.6V169.1z M185.9,171.9h0.6v6h-0.6V171.9z"/>
		<path d="M192.5,176.9c-0.3,0.7-0.9,1.2-2.1,1.2c-1.4,0-2.5-1.1-2.5-3.1c0-2.1,1.2-3.2,2.6-3.2c1.2,0,1.8,0.6,1.9,1
			c0-0.3,0-0.6,0-0.9h0.6c0,0.7,0,1.1,0,1.7v6.7h-0.6V176.9z M188.6,174.9c0,1.3,0.6,2.5,1.9,2.5c1.5,0,2-1,2-2.6
			c0-1.6-0.4-2.5-1.9-2.5C189.3,172.3,188.6,173.4,188.6,174.9z"/>
		<path d="M199.5,176.1c0,0.6,0,1.5,0,1.8H199c0-0.2,0-0.6,0-1c-0.3,0.7-0.9,1.2-1.9,1.2c-0.9,0-2-0.3-2-2.2v-4h0.6v3.8
			c0,0.9,0.3,1.7,1.5,1.7c1.3,0,1.8-0.8,1.8-2.5v-3.1h0.6V176.1z"/>
		<path d="M201.6,175c0,1.5,0.8,2.5,1.9,2.5c1.1,0,1.5-0.6,1.7-1.1h0.6c-0.3,0.8-0.9,1.7-2.4,1.7c-1.8,0-2.5-1.6-2.5-3.1
			c0-1.7,0.9-3.2,2.6-3.2c1.8,0,2.4,1.6,2.4,2.7c0,0.2,0,0.3,0,0.5H201.6z M205.4,174.4c0-1.2-0.7-2.1-1.8-2.1
			c-1.2,0-1.8,0.9-1.9,2.1H205.4z"/>
		<path d="M206.8,177.3l3.8-4.9H207v-0.6h4.3v0.6l-3.7,4.9h3.9l-0.1,0.6h-4.5V177.3z"/>
		<path d="M216.7,176.8c0,0.5,0,0.9,0.1,1.1h-0.6c0-0.1-0.1-0.4-0.1-0.9c-0.2,0.4-0.7,1.1-2,1.1c-1.4,0-2-0.9-2-1.8
			c0-1.3,1-1.9,2.8-1.9c0.5,0,0.9,0,1.1,0v-0.6c0-0.6-0.2-1.4-1.5-1.4c-1.2,0-1.4,0.6-1.5,1.1h-0.6c0.1-0.7,0.5-1.7,2.1-1.7
			c1.4,0,2.1,0.6,2.1,1.9V176.8z M216.2,174.8c-0.2,0-0.8,0-1.2,0c-1.3,0-2.2,0.3-2.2,1.4c0,0.8,0.5,1.3,1.4,1.3c1.7,0,2-1.1,2-2.4
			V174.8z"/>
		<path d="M226.5,169.1v7.1c0,0.6,0,1.1,0,1.7h-0.6c0-0.1,0-0.7,0-1c-0.3,0.7-1,1.2-2,1.2c-1.6,0-2.5-1.3-2.5-3.1
			c0-1.8,1-3.2,2.7-3.2c1.2,0,1.7,0.5,1.9,0.9v-3.6H226.5z M222,174.9c0,1.6,0.9,2.5,1.9,2.5c1.6,0,2-1.1,2-2.7
			c0-1.5-0.4-2.4-1.9-2.4C222.8,172.3,222,173.3,222,174.9z"/>
		<path d="M228.6,175c0,1.5,0.8,2.5,1.9,2.5c1.1,0,1.5-0.6,1.7-1.1h0.6c-0.3,0.8-0.9,1.7-2.4,1.7c-1.8,0-2.5-1.6-2.5-3.1
			c0-1.7,0.9-3.2,2.6-3.2c1.8,0,2.4,1.6,2.4,2.7c0,0.2,0,0.3,0,0.5H228.6z M232.4,174.4c0-1.2-0.7-2.1-1.8-2.1
			c-1.2,0-1.8,0.9-1.9,2.1H232.4z"/>
		<path d="M242.7,173.8h-4.3v3.5h4.7l-0.1,0.6h-5.2v-8.4h5.1v0.6h-4.5v3.1h4.3V173.8z"/>
		<path d="M244.6,176.2c0.2,0.8,0.8,1.2,1.7,1.2c1.1,0,1.5-0.5,1.5-1.2c0-0.7-0.3-1-1.6-1.3c-1.5-0.4-1.9-0.8-1.9-1.6
			c0-0.8,0.6-1.6,2-1.6c1.4,0,2,0.8,2.1,1.7h-0.6c-0.1-0.5-0.5-1.1-1.5-1.1c-1,0-1.3,0.5-1.3,1c0,0.6,0.3,0.8,1.5,1.1
			c1.7,0.4,2.1,1,2.1,1.9c0,1.1-0.9,1.8-2.1,1.8c-1.4,0-2.1-0.7-2.3-1.8H244.6z"/>
		<path d="M250.5,177v3.3h-0.6v-6.9c0-0.5,0-1,0-1.5h0.6c0,0.2,0,0.6,0,1.1c0.4-0.7,1-1.2,2.1-1.2c1.4,0,2.4,1.2,2.4,3
			c0,2.2-1.2,3.3-2.6,3.3C251.4,178,250.8,177.6,250.5,177z M254.4,174.8c0-1.4-0.7-2.4-1.9-2.4c-1.5,0-2.1,0.9-2.1,2.5
			c0,1.6,0.5,2.6,2,2.6C253.7,177.5,254.4,176.4,254.4,174.8z"/>
		<path d="M256.7,175c0,1.5,0.8,2.5,1.9,2.5c1.1,0,1.5-0.6,1.7-1.1h0.6c-0.3,0.8-0.9,1.7-2.4,1.7c-1.8,0-2.5-1.6-2.5-3.1
			c0-1.7,0.9-3.2,2.6-3.2c1.8,0,2.4,1.6,2.4,2.7c0,0.2,0,0.3,0,0.5H256.7z M260.5,174.4c0-1.2-0.7-2.1-1.8-2.1
			c-1.2,0-1.8,0.9-1.9,2.1H260.5z M260.5,168.9l-1.8,1.9h-0.6l1.6-1.9H260.5z"/>
		<path d="M267,176.1c-0.3,1.1-1,1.9-2.3,1.9c-1.5,0-2.6-1.1-2.6-3.1c0-1.6,0.9-3.2,2.6-3.2c1.5,0,2.1,1.1,2.3,1.9h-0.6
			c-0.2-0.7-0.6-1.4-1.7-1.4c-1.3,0-2,1.1-2,2.6c0,1.4,0.7,2.6,1.9,2.6c0.9,0,1.4-0.4,1.7-1.3H267z"/>
		<path d="M268.4,169.1h0.6v1.2h-0.6V169.1z M268.4,171.9h0.6v6h-0.6V171.9z"/>
		<path d="M271.1,175c0,1.5,0.8,2.5,1.9,2.5c1.1,0,1.5-0.6,1.7-1.1h0.6c-0.3,0.8-0.9,1.7-2.4,1.7c-1.8,0-2.5-1.6-2.5-3.1
			c0-1.7,0.9-3.2,2.6-3.2c1.8,0,2.4,1.6,2.4,2.7c0,0.2,0,0.3,0,0.5H271.1z M274.9,174.4c0-1.2-0.7-2.1-1.8-2.1
			c-1.2,0-1.8,0.9-1.9,2.1H274.9z"/>
		<path d="M277,176.2c0.2,0.8,0.8,1.2,1.7,1.2c1.1,0,1.5-0.5,1.5-1.2c0-0.7-0.3-1-1.6-1.3c-1.5-0.4-1.9-0.8-1.9-1.6
			c0-0.8,0.6-1.6,2-1.6s2,0.8,2.1,1.7h-0.6c-0.1-0.5-0.5-1.1-1.5-1.1c-1,0-1.3,0.5-1.3,1c0,0.6,0.3,0.8,1.5,1.1
			c1.7,0.4,2.1,1,2.1,1.9c0,1.1-0.9,1.8-2.1,1.8c-1.4,0-2.1-0.7-2.3-1.8H277z"/>
		<path d="M183.5,188.2h-4.3v3.5h4.7l-0.1,0.6h-5.2v-8.4h5.1v0.6h-4.5v3.1h4.3V188.2z"/>
		<path d="M185.3,187.8c0-0.5,0-1,0-1.5h0.6c0,0.2,0,1,0,1.1c0.3-0.6,0.8-1.3,2-1.3c1.1,0,2,0.6,2,2.3v3.9h-0.6v-3.8
			c0-1.1-0.4-1.8-1.5-1.8c-1.4,0-1.9,1.2-1.9,2.5v3.1h-0.6V187.8z"/>
		<path d="M196.6,183.5v7.1c0,0.6,0,1.1,0,1.7H196c0-0.1,0-0.7,0-1c-0.3,0.7-1,1.2-2,1.2c-1.6,0-2.5-1.3-2.5-3.1
			c0-1.8,1-3.2,2.7-3.2c1.2,0,1.7,0.5,1.9,0.9v-3.6H196.6z M192.1,189.3c0,1.6,0.9,2.5,1.9,2.5c1.6,0,2-1.1,2-2.7
			c0-1.5-0.4-2.4-1.9-2.4C192.9,186.7,192.1,187.7,192.1,189.3z"/>
		<path d="M198.7,189.4c0,1.5,0.8,2.5,1.9,2.5c1.1,0,1.5-0.6,1.7-1.1h0.6c-0.3,0.8-0.9,1.7-2.4,1.7c-1.8,0-2.5-1.6-2.5-3.1
			c0-1.7,0.9-3.2,2.6-3.2c1.8,0,2.4,1.6,2.4,2.7c0,0.2,0,0.3,0,0.5H198.7z M202.5,188.8c0-1.2-0.7-2.1-1.8-2.1
			c-1.2,0-1.8,0.9-1.9,2.1H202.5z"/>
		<path d="M204.5,187.8c0-0.5,0-1.1,0-1.5h0.6c0,0.2,0,0.7,0,1.1c0.3-0.6,0.8-1.2,1.8-1.2c0.8,0,1.5,0.4,1.7,1.2
			c0.3-0.6,0.9-1.2,2-1.2c0.9,0,1.9,0.5,1.9,2.2v3.9h-0.6v-3.9c0-0.8-0.3-1.7-1.4-1.7c-1.2,0-1.7,0.9-1.7,2.1v3.5h-0.6v-3.9
			c0-0.9-0.3-1.7-1.4-1.7c-1.2,0-1.7,1-1.7,2.3v3.3h-0.6V187.8z"/>
		<path d="M214.5,183.5h0.6v1.2h-0.6V183.5z M214.5,186.3h0.6v6h-0.6V186.3z"/>
		<path d="M217.1,190.6c0.2,0.8,0.8,1.2,1.7,1.2c1.1,0,1.5-0.5,1.5-1.2c0-0.7-0.3-1-1.6-1.3c-1.5-0.4-1.9-0.8-1.9-1.6
			c0-0.8,0.6-1.6,2-1.6c1.4,0,2,0.8,2.1,1.7h-0.6c-0.1-0.5-0.5-1.1-1.5-1.1c-1,0-1.3,0.5-1.3,1c0,0.6,0.3,0.8,1.5,1.1
			c1.7,0.4,2.1,1,2.1,1.9c0,1.1-0.9,1.8-2.1,1.8c-1.4,0-2.1-0.7-2.3-1.8H217.1z"/>
		<path d="M222.4,187.8c0-0.5,0-1.1,0-1.5h0.6c0,0.2,0,0.7,0,1.1c0.3-0.6,0.8-1.2,1.8-1.2c0.8,0,1.5,0.4,1.7,1.2
			c0.3-0.6,0.9-1.2,2-1.2c0.9,0,1.9,0.5,1.9,2.2v3.9h-0.6v-3.9c0-0.8-0.3-1.7-1.4-1.7c-1.2,0-1.7,0.9-1.7,2.1v3.5h-0.6v-3.9
			c0-0.9-0.3-1.7-1.4-1.7c-1.2,0-1.7,1-1.7,2.3v3.3h-0.6V187.8z"/>
		<path d="M237.2,189.3c0,1.7-0.9,3.2-2.7,3.2c-1.6,0-2.6-1.3-2.6-3.1c0-1.7,0.9-3.1,2.7-3.1C236.1,186.2,237.2,187.4,237.2,189.3z
			 M232.5,189.3c0,1.4,0.8,2.6,2,2.6c1.3,0,2-1.1,2-2.6c0-1.4-0.7-2.6-2.1-2.6C233.1,186.7,232.5,187.9,232.5,189.3z"/>
	</g>
</g>
<g>
	<g>
		<path d="M111.4,348c-0.4,1.8-1.7,3.1-4.2,3.1c-3.1,0-4.5-2.2-4.5-4.9c0-2.6,1.5-5,4.6-5c2.6,0,3.8,1.5,4.1,3.1h-2.1
			c-0.2-0.7-0.7-1.5-2-1.5c-1.7,0-2.4,1.5-2.4,3.3c0,1.6,0.6,3.4,2.4,3.4c1.4,0,1.8-0.9,2-1.5H111.4z"/>
		<path d="M122,346.1c0,2.7-1.6,5-4.8,5c-3,0-4.6-2.2-4.6-5c0-2.8,1.8-5,4.8-5C120.2,341.1,122,343.1,122,346.1z M114.8,346.1
			c0,1.9,0.8,3.3,2.5,3.3c1.9,0,2.5-1.6,2.5-3.3c0-1.8-0.7-3.3-2.5-3.3C115.6,342.8,114.8,344.2,114.8,346.1z"/>
		<path d="M123.8,350.9v-9.7h2.6c1.2,2.2,3.4,6.1,3.9,7.1h0c-0.1-1-0.1-2.7-0.1-4.3v-2.9h1.9v9.7h-2.5c-1-1.9-3.5-6.4-4-7.5h0
			c0.1,0.8,0.1,2.8,0.1,4.6v2.9H123.8z"/>
		<path d="M135.8,348.1c0.2,1,0.9,1.4,2,1.4c1.1,0,1.6-0.4,1.6-1.1c0-0.8-0.5-1.1-2.1-1.5c-2.6-0.6-3.3-1.6-3.3-2.9
			c0-1.7,1.3-2.8,3.5-2.8c2.6,0,3.6,1.4,3.7,2.8h-2.1c-0.1-0.6-0.4-1.2-1.7-1.2c-0.8,0-1.4,0.4-1.4,1c0,0.7,0.4,0.9,2,1.3
			c2.8,0.7,3.4,1.7,3.4,3.1c0,1.8-1.3,3-3.9,3c-2.5,0-3.7-1.2-4-3H135.8z"/>
		<path d="M149.9,346.8h-4.6v2.5h5.1l-0.2,1.7h-6.9v-9.7h6.8v1.7h-4.8v2.1h4.6V346.8z"/>
		<path d="M154,347.1v3.9h-2v-9.7h4.2c2.1,0,3.2,1.2,3.2,2.7c0,1.3-0.7,2-1.4,2.3c0.5,0.2,1.2,0.7,1.2,2.4v0.5c0,0.6,0,1.4,0.1,1.8
			h-2c-0.2-0.4-0.2-1.1-0.2-2.2v-0.1c0-1.1-0.3-1.6-1.8-1.6H154z M154,345.4h1.8c1.1,0,1.6-0.4,1.6-1.2c0-0.8-0.5-1.2-1.5-1.2H154
			V345.4z"/>
		<path d="M163.5,350.9l-3.4-9.7h2.2l1.4,4.5c0.4,1.3,0.8,2.5,1,3.5h0c0.2-0.9,0.6-2.1,1-3.5l1.5-4.5h2.1l-3.5,9.7H163.5z"/>
		<path d="M172.4,348.7l-0.8,2.2h-2.1l3.3-9.7h2.6l3.4,9.7h-2.2l-0.8-2.2H172.4z M175.5,347c-0.7-2-1.1-3.3-1.4-4.2h0
			c-0.2,1-0.7,2.5-1.3,4.2H175.5z"/>
		<path d="M188.4,348c-0.4,1.8-1.7,3.1-4.2,3.1c-3.1,0-4.5-2.2-4.5-4.9c0-2.6,1.5-5,4.6-5c2.6,0,3.8,1.5,4.1,3.1h-2.1
			c-0.2-0.7-0.7-1.5-2-1.5c-1.7,0-2.4,1.5-2.4,3.3c0,1.6,0.6,3.4,2.4,3.4c1.4,0,1.8-0.9,2-1.5H188.4z M185.3,350.9l-0.6,0.6
			c0.5,0.1,1.2,0.4,1.2,1.3c0,1.2-1.1,1.5-2,1.5c-0.4,0-0.8-0.1-1-0.1v-1.1c0.2,0,0.6,0.1,0.8,0.1c0.5,0,0.6-0.1,0.6-0.4
			c0-0.4-0.6-0.5-1.2-0.5v-0.5l1-1.1L185.3,350.9z"/>
		<path d="M192,348.7l-0.8,2.2h-2.1l3.3-9.7h2.6l3.4,9.7h-2.2l-0.8-2.2H192z M191.3,340.3v-0.5c0-1.1,0.5-1.5,1.4-1.5
			c0.9,0,1.7,0.6,2.1,0.6c0.2,0,0.4-0.1,0.4-0.5v-0.1h1.3v0.4c0,1.3-0.5,1.7-1.4,1.7c-0.8,0-1.6-0.6-2.1-0.6c-0.2,0-0.3,0.1-0.3,0.3
			v0.2H191.3z M195.1,347c-0.7-2-1.1-3.3-1.4-4.2h0c-0.2,1-0.7,2.5-1.3,4.2H195.1z"/>
		<path d="M208.7,346.1c0,2.7-1.6,5-4.8,5c-3,0-4.6-2.2-4.6-5c0-2.8,1.8-5,4.8-5C206.9,341.1,208.7,343.1,208.7,346.1z M201.5,346.1
			c0,1.9,0.8,3.3,2.5,3.3c1.9,0,2.5-1.6,2.5-3.3c0-1.8-0.7-3.3-2.5-3.3C202.3,342.8,201.5,344.2,201.5,346.1z"/>
	</g>
</g>
<g>
	<g>
		<path d="M113.1,374.6l-1.1,2.9h-0.7l3.1-8.4h0.8l3.2,8.4h-0.7l-1.1-2.9H113.1z M116.4,374c-0.9-2.5-1.4-3.7-1.6-4.3h0
			c-0.2,0.6-0.7,2.1-1.5,4.3H116.4z"/>
		<path d="M119.6,371.5c1,2.7,1.6,4.6,1.9,5.4h0c0.1-0.4,0.8-2.2,2-5.4h0.6l-2.3,6h-0.7l-2.1-6H119.6z"/>
		<path d="M129.3,376.4c0,0.5,0,0.9,0.1,1.1h-0.6c0-0.1-0.1-0.4-0.1-0.9c-0.2,0.4-0.7,1.1-2,1.1c-1.4,0-2-0.9-2-1.8
			c0-1.3,1-1.9,2.8-1.9c0.5,0,0.9,0,1.1,0v-0.6c0-0.6-0.2-1.4-1.5-1.4c-1.2,0-1.4,0.6-1.5,1.1h-0.6c0.1-0.7,0.5-1.7,2.1-1.7
			c1.4,0,2.1,0.6,2.1,1.9V376.4z M128.8,374.5c-0.2,0-0.8,0-1.2,0c-1.3,0-2.2,0.3-2.2,1.4c0,0.8,0.5,1.3,1.4,1.3c1.7,0,2-1.1,2-2.4
			V374.5z"/>
		<path d="M131.3,377.5v-8.8h0.6v8.8H131.3z"/>
		<path d="M133.9,368.7h0.6v1.2h-0.6V368.7z M133.9,371.5h0.6v6h-0.6V371.5z"/>
		<path d="M140.6,376.4c0,0.5,0,0.9,0.1,1.1h-0.6c0-0.1-0.1-0.4-0.1-0.9c-0.2,0.4-0.7,1.1-2,1.1c-1.4,0-2-0.9-2-1.8
			c0-1.3,1-1.9,2.8-1.9c0.5,0,0.9,0,1.1,0v-0.6c0-0.6-0.2-1.4-1.5-1.4c-1.2,0-1.4,0.6-1.5,1.1h-0.6c0.1-0.7,0.5-1.7,2.1-1.7
			c1.4,0,2.1,0.6,2.1,1.9V376.4z M140,374.5c-0.2,0-0.8,0-1.2,0c-1.3,0-2.2,0.3-2.2,1.4c0,0.8,0.5,1.3,1.4,1.3c1.7,0,2-1.1,2-2.4
			V374.5z"/>
		<path d="M147,375.8c-0.3,1.1-1,1.9-2.3,1.9c-1.5,0-2.6-1.1-2.6-3.1c0-1.6,0.9-3.2,2.6-3.2c1.5,0,2.1,1.1,2.3,1.9h-0.6
			c-0.2-0.7-0.6-1.4-1.7-1.4c-1.3,0-2,1.1-2,2.6c0,1.4,0.7,2.6,1.9,2.6c0.9,0,1.4-0.4,1.7-1.3H147z M145.1,377.5l-0.5,0.7
			c0.4,0,1.2,0.3,1.2,1.1c0,0.9-0.8,1.1-1.3,1.1c-0.4,0-0.7-0.1-0.9-0.2v-0.6c0.2,0.1,0.6,0.2,0.9,0.2c0.5,0,0.7-0.2,0.7-0.5
			c0-0.5-0.7-0.6-1.4-0.6v-0.3l0.7-1L145.1,377.5z"/>
		<path d="M152.5,376.4c0,0.5,0,0.9,0.1,1.1H152c0-0.1-0.1-0.4-0.1-0.9c-0.2,0.4-0.7,1.1-2,1.1c-1.4,0-2-0.9-2-1.8
			c0-1.3,1-1.9,2.8-1.9c0.5,0,0.9,0,1.1,0v-0.6c0-0.6-0.2-1.4-1.5-1.4c-1.2,0-1.4,0.6-1.5,1.1h-0.6c0.1-0.7,0.5-1.7,2.1-1.7
			c1.4,0,2.1,0.6,2.1,1.9V376.4z M151.9,374.5c-0.2,0-0.8,0-1.2,0c-1.3,0-2.2,0.3-2.2,1.4c0,0.8,0.5,1.3,1.4,1.3c1.7,0,2-1.1,2-2.4
			V374.5z M148.7,370.2V370c0-0.8,0.3-1,0.9-1c0.6,0,1.3,0.7,1.7,0.7c0.3,0,0.4-0.1,0.4-0.6v-0.1h0.5v0.2c0,0.8-0.3,1.1-0.9,1.1
			c-0.6,0-1.2-0.7-1.7-0.7c-0.2,0-0.3,0.1-0.3,0.5v0.2H148.7z"/>
		<path d="M159.3,374.5c0,1.7-0.9,3.2-2.7,3.2c-1.6,0-2.6-1.3-2.6-3.1c0-1.7,0.9-3.1,2.7-3.1C158.3,371.4,159.3,372.7,159.3,374.5z
			 M154.6,374.5c0,1.4,0.8,2.6,2,2.6c1.3,0,2-1.1,2-2.6c0-1.4-0.7-2.6-2.1-2.6C155.3,372,154.6,373.1,154.6,374.5z"/>
		<path d="M112.2,383.6h3c1.5,0,2.6,0.9,2.6,2.3c0,1.5-1,2.4-2.7,2.4h-2.3v3.7h-0.7V383.6z M112.9,387.7h2.3c1.4,0,1.9-0.7,1.9-1.8
			c0-1.1-0.7-1.8-1.9-1.8h-2.4V387.7z"/>
		<path d="M119.4,387.6c0-1,0-1.4,0-1.6h0.6c0,0.2,0,0.6,0,1.3c0.3-0.9,1.1-1.4,2.1-1.5v0.6c-1.2,0.1-2.1,0.9-2.1,2.4v3.1h-0.6
			V387.6z"/>
		<path d="M123.3,383.1h0.6v1.2h-0.6V383.1z M123.3,385.9h0.6v6h-0.6V385.9z"/>
		<path d="M130.7,388.9c0,1.7-0.9,3.2-2.7,3.2c-1.6,0-2.6-1.3-2.6-3.1c0-1.7,0.9-3.1,2.7-3.1C129.6,385.8,130.7,387.1,130.7,388.9z
			 M126,388.9c0,1.4,0.8,2.6,2,2.6c1.3,0,2-1.1,2-2.6c0-1.4-0.7-2.6-2.1-2.6C126.6,386.4,126,387.5,126,388.9z"/>
		<path d="M132.2,387.6c0-1,0-1.4,0-1.6h0.6c0,0.2,0,0.6,0,1.3c0.3-0.9,1.1-1.4,2.1-1.5v0.6c-1.2,0.1-2.1,0.9-2.1,2.4v3.1h-0.6
			V387.6z"/>
		<path d="M136.1,383.1h0.6v1.2h-0.6V383.1z M136.1,385.9h0.6v6h-0.6V385.9z"/>
		<path d="M137.9,391.4l3.8-4.9h-3.6v-0.6h4.3v0.6l-3.7,4.9h3.9l-0.1,0.6h-4.5V391.4z"/>
		<path d="M147.8,390.8c0,0.5,0,0.9,0.1,1.1h-0.6c0-0.1-0.1-0.4-0.1-0.9c-0.2,0.4-0.7,1.1-2,1.1c-1.4,0-2-0.9-2-1.8
			c0-1.3,1-1.9,2.8-1.9c0.5,0,0.9,0,1.1,0v-0.6c0-0.6-0.2-1.4-1.5-1.4c-1.2,0-1.4,0.6-1.5,1.1h-0.6c0.1-0.7,0.5-1.7,2.1-1.7
			c1.4,0,2.1,0.6,2.1,1.9V390.8z M147.3,388.9c-0.2,0-0.8,0-1.2,0c-1.3,0-2.2,0.3-2.2,1.4c0,0.8,0.5,1.3,1.4,1.3c1.7,0,2-1.1,2-2.4
			V388.9z"/>
		<path d="M154.2,390.2c-0.3,1.1-1,1.9-2.3,1.9c-1.5,0-2.6-1.1-2.6-3.1c0-1.6,0.9-3.2,2.6-3.2c1.5,0,2.1,1.1,2.3,1.9h-0.6
			c-0.2-0.7-0.6-1.4-1.7-1.4c-1.3,0-2,1.1-2,2.6c0,1.4,0.7,2.6,1.9,2.6c0.9,0,1.4-0.4,1.7-1.3H154.2z M152.4,391.9l-0.5,0.7
			c0.4,0,1.2,0.3,1.2,1.1c0,0.9-0.8,1.1-1.3,1.1c-0.4,0-0.7-0.1-0.9-0.2v-0.6c0.2,0.1,0.6,0.2,0.9,0.2c0.5,0,0.7-0.2,0.7-0.5
			c0-0.5-0.7-0.6-1.4-0.6v-0.3l0.7-1L152.4,391.9z"/>
		<path d="M159.7,390.8c0,0.5,0,0.9,0.1,1.1h-0.6c0-0.1-0.1-0.4-0.1-0.9c-0.2,0.4-0.7,1.1-2,1.1c-1.4,0-2-0.9-2-1.8
			c0-1.3,1-1.9,2.8-1.9c0.5,0,0.9,0,1.1,0v-0.6c0-0.6-0.2-1.4-1.5-1.4c-1.2,0-1.4,0.6-1.5,1.1h-0.6c0.1-0.7,0.5-1.7,2.1-1.7
			c1.4,0,2.1,0.6,2.1,1.9V390.8z M159.2,388.9c-0.2,0-0.8,0-1.2,0c-1.3,0-2.2,0.3-2.2,1.4c0,0.8,0.5,1.3,1.4,1.3c1.7,0,2-1.1,2-2.4
			V388.9z M156,384.6v-0.2c0-0.8,0.3-1,0.9-1c0.6,0,1.3,0.7,1.7,0.7c0.3,0,0.4-0.1,0.4-0.6v-0.1h0.5v0.2c0,0.8-0.3,1.1-0.9,1.1
			c-0.6,0-1.2-0.7-1.7-0.7c-0.2,0-0.3,0.1-0.3,0.5v0.2H156z"/>
		<path d="M166.6,388.9c0,1.7-0.9,3.2-2.7,3.2c-1.6,0-2.6-1.3-2.6-3.1c0-1.7,0.9-3.1,2.7-3.1C165.5,385.8,166.6,387.1,166.6,388.9z
			 M161.9,388.9c0,1.4,0.8,2.6,2,2.6c1.3,0,2-1.1,2-2.6c0-1.4-0.7-2.6-2.1-2.6C162.5,386.4,161.9,387.5,161.9,388.9z"/>
		<path d="M175.8,383.1v7.1c0,0.6,0,1.1,0,1.7h-0.6c0-0.1,0-0.7,0-1c-0.3,0.7-1,1.2-2,1.2c-1.6,0-2.5-1.3-2.5-3.1
			c0-1.8,1-3.2,2.7-3.2c1.2,0,1.7,0.5,1.9,0.9v-3.6H175.8z M171.4,389c0,1.6,0.9,2.5,1.9,2.5c1.6,0,2-1.1,2-2.7
			c0-1.5-0.4-2.4-1.9-2.4C172.2,386.4,171.4,387.3,171.4,389z"/>
		<path d="M177.9,389c0,1.5,0.8,2.5,1.9,2.5c1.1,0,1.5-0.6,1.7-1.1h0.6c-0.3,0.8-0.9,1.7-2.4,1.7c-1.8,0-2.5-1.6-2.5-3.1
			c0-1.7,0.9-3.2,2.6-3.2c1.8,0,2.4,1.6,2.4,2.7c0,0.2,0,0.3,0,0.5H177.9z M181.7,388.5c0-1.2-0.7-2.1-1.8-2.1
			c-1.2,0-1.8,0.9-1.9,2.1H181.7z"/>
		<path d="M191.1,390.8c0,0.5,0,0.9,0.1,1.1h-0.6c0-0.1-0.1-0.4-0.1-0.9c-0.2,0.4-0.7,1.1-2,1.1c-1.4,0-2-0.9-2-1.8
			c0-1.3,1-1.9,2.8-1.9c0.5,0,0.9,0,1.1,0v-0.6c0-0.6-0.2-1.4-1.5-1.4c-1.2,0-1.4,0.6-1.5,1.1h-0.6c0.1-0.7,0.5-1.7,2.1-1.7
			c1.4,0,2.1,0.6,2.1,1.9V390.8z M190.5,388.9c-0.2,0-0.8,0-1.2,0c-1.3,0-2.2,0.3-2.2,1.4c0,0.8,0.5,1.3,1.4,1.3c1.7,0,2-1.1,2-2.4
			V388.9z M190.9,383l-1.8,1.9h-0.6l1.6-1.9H190.9z"/>
		<path d="M193,387.6c0-1,0-1.4,0-1.6h0.6c0,0.2,0,0.6,0,1.3c0.3-0.9,1.1-1.4,2.1-1.5v0.6c-1.2,0.1-2.1,0.9-2.1,2.4v3.1H193V387.6z"
			/>
		<path d="M197.1,389c0,1.5,0.8,2.5,1.9,2.5c1.1,0,1.5-0.6,1.7-1.1h0.6c-0.3,0.8-0.9,1.7-2.4,1.7c-1.8,0-2.5-1.6-2.5-3.1
			c0-1.7,0.9-3.2,2.6-3.2c1.8,0,2.4,1.6,2.4,2.7c0,0.2,0,0.3,0,0.5H197.1z M200.9,388.5c0-1.2-0.7-2.1-1.8-2.1
			c-1.2,0-1.8,0.9-1.9,2.1H200.9z"/>
		<path d="M207.1,390.8c0,0.5,0,0.9,0.1,1.1h-0.6c0-0.1-0.1-0.4-0.1-0.9c-0.2,0.4-0.7,1.1-2,1.1c-1.4,0-2-0.9-2-1.8
			c0-1.3,1-1.9,2.8-1.9c0.5,0,0.9,0,1.1,0v-0.6c0-0.6-0.2-1.4-1.5-1.4c-1.2,0-1.4,0.6-1.5,1.1h-0.6c0.1-0.7,0.5-1.7,2.1-1.7
			c1.4,0,2.1,0.6,2.1,1.9V390.8z M206.5,388.9c-0.2,0-0.8,0-1.2,0c-1.3,0-2.2,0.3-2.2,1.4c0,0.8,0.5,1.3,1.4,1.3c1.7,0,2-1.1,2-2.4
			V388.9z"/>
		<path d="M112.2,398h2.8c2.3,0,3.9,1.6,3.9,4.1c0,2.5-1.6,4.3-3.9,4.3h-2.8V398z M112.9,405.7h2c2.2,0,3.3-1.6,3.3-3.6
			c0-1.8-1-3.6-3.3-3.6h-2V405.7z"/>
		<path d="M120.6,397.5h0.6v1.2h-0.6V397.5z M120.6,400.3h0.6v6h-0.6V400.3z"/>
		<path d="M123,400.3c1,2.7,1.6,4.6,1.9,5.4h0c0.1-0.4,0.8-2.2,2-5.4h0.6l-2.3,6h-0.7l-2.1-6H123z"/>
		<path d="M133.1,404.6c0,0.6,0,1.5,0,1.8h-0.6c0-0.2,0-0.6,0-1c-0.3,0.7-0.9,1.2-1.9,1.2c-0.9,0-2-0.3-2-2.2v-4h0.6v3.8
			c0,0.9,0.3,1.7,1.5,1.7c1.3,0,1.8-0.8,1.8-2.5v-3.1h0.6V404.6z"/>
		<path d="M135.1,406.3v-8.8h0.6v8.8H135.1z"/>
		<path d="M142.2,405.9c0,1.9-0.9,2.9-2.6,2.9c-1.6,0-2.2-0.9-2.4-1.8h0.6c0.2,0.8,0.9,1.2,1.8,1.2c1.6,0,2-1,2-2.5v-0.6
			c-0.3,0.8-0.9,1.2-2,1.2c-1.4,0-2.5-1.1-2.5-3c0-2,1.2-3.1,2.6-3.1c1.2,0,1.8,0.6,1.9,1.1c0-0.3,0-0.8,0-0.9h0.6
			c0,0.2,0,1.2,0,1.7V405.9z M137.8,403.3c0,1.4,0.8,2.5,1.9,2.5c1.5,0,2-1,2-2.6c0-1.6-0.5-2.5-1.9-2.5
			C138.4,400.8,137.8,402,137.8,403.3z"/>
		<path d="M148.3,405.2c0,0.5,0,0.9,0.1,1.1h-0.6c0-0.1-0.1-0.4-0.1-0.9c-0.2,0.4-0.7,1.1-2,1.1c-1.4,0-2-0.9-2-1.8
			c0-1.3,1-1.9,2.8-1.9c0.5,0,0.9,0,1.1,0v-0.6c0-0.6-0.2-1.4-1.5-1.4c-1.2,0-1.4,0.6-1.5,1.1h-0.6c0.1-0.7,0.5-1.7,2.1-1.7
			c1.4,0,2.1,0.6,2.1,1.9V405.2z M147.7,403.3c-0.2,0-0.8,0-1.2,0c-1.3,0-2.2,0.3-2.2,1.4c0,0.8,0.5,1.3,1.4,1.3c1.7,0,2-1.1,2-2.4
			V403.3z"/>
		<path d="M154.7,404.6c-0.3,1.1-1,1.9-2.3,1.9c-1.5,0-2.6-1.1-2.6-3.1c0-1.6,0.9-3.2,2.6-3.2c1.5,0,2.1,1.1,2.3,1.9h-0.6
			c-0.2-0.7-0.6-1.4-1.7-1.4c-1.3,0-2,1.1-2,2.6c0,1.4,0.7,2.6,1.9,2.6c0.9,0,1.4-0.4,1.7-1.3H154.7z M152.8,406.3l-0.5,0.7
			c0.4,0,1.2,0.3,1.2,1.1c0,0.9-0.8,1.1-1.3,1.1c-0.4,0-0.7-0.1-0.9-0.2v-0.6c0.2,0.1,0.6,0.2,0.9,0.2c0.5,0,0.7-0.2,0.7-0.5
			c0-0.5-0.7-0.6-1.4-0.6v-0.3l0.7-1L152.8,406.3z"/>
		<path d="M160.2,405.2c0,0.5,0,0.9,0.1,1.1h-0.6c0-0.1-0.1-0.4-0.1-0.9c-0.2,0.4-0.7,1.1-2,1.1c-1.4,0-2-0.9-2-1.8
			c0-1.3,1-1.9,2.8-1.9c0.5,0,0.9,0,1.1,0v-0.6c0-0.6-0.2-1.4-1.5-1.4c-1.2,0-1.4,0.6-1.5,1.1H156c0.1-0.7,0.5-1.7,2.1-1.7
			c1.4,0,2.1,0.6,2.1,1.9V405.2z M159.6,403.3c-0.2,0-0.8,0-1.2,0c-1.3,0-2.2,0.3-2.2,1.4c0,0.8,0.5,1.3,1.4,1.3c1.7,0,2-1.1,2-2.4
			V403.3z M156.5,399v-0.2c0-0.8,0.3-1,0.9-1c0.6,0,1.3,0.7,1.7,0.7c0.3,0,0.4-0.1,0.4-0.6v-0.1h0.5v0.2c0,0.8-0.3,1.1-0.9,1.1
			c-0.6,0-1.2-0.7-1.7-0.7c-0.2,0-0.3,0.1-0.3,0.5v0.2H156.5z"/>
		<path d="M167.1,403.3c0,1.7-0.9,3.2-2.7,3.2c-1.6,0-2.6-1.3-2.6-3.1c0-1.7,0.9-3.1,2.7-3.1C166,400.2,167.1,401.5,167.1,403.3z
			 M162.4,403.3c0,1.4,0.8,2.6,2,2.6c1.3,0,2-1.1,2-2.6c0-1.4-0.7-2.6-2.1-2.6C163,400.8,162.4,401.9,162.4,403.3z"/>
		<path d="M176.1,404.6c-0.3,1.1-1,1.9-2.3,1.9c-1.5,0-2.6-1.1-2.6-3.1c0-1.6,0.9-3.2,2.6-3.2c1.5,0,2.1,1.1,2.3,1.9h-0.6
			c-0.2-0.7-0.6-1.4-1.7-1.4c-1.3,0-2,1.1-2,2.6c0,1.4,0.7,2.6,1.9,2.6c0.9,0,1.4-0.4,1.7-1.3H176.1z"/>
		<path d="M177.5,397.5h0.6v1.2h-0.6V397.5z M177.5,400.3h0.6v6h-0.6V400.3z"/>
		<path d="M180.2,403.4c0,1.5,0.8,2.5,1.9,2.5c1.1,0,1.5-0.6,1.7-1.1h0.6c-0.3,0.8-0.9,1.7-2.4,1.7c-1.8,0-2.5-1.6-2.5-3.1
			c0-1.7,0.9-3.2,2.6-3.2c1.8,0,2.4,1.6,2.4,2.7c0,0.2,0,0.3,0,0.5H180.2z M184,402.9c0-1.2-0.7-2.1-1.8-2.1c-1.2,0-1.8,0.9-1.9,2.1
			H184z"/>
		<path d="M186.1,401.9c0-0.5,0-1,0-1.5h0.6c0,0.2,0,1,0,1.1c0.3-0.6,0.8-1.3,2-1.3c1.1,0,2,0.6,2,2.3v3.9h-0.6v-3.8
			c0-1.1-0.4-1.8-1.5-1.8c-1.4,0-1.9,1.2-1.9,2.5v3.1h-0.6V401.9z"/>
		<path d="M191.8,400.3h1.1v-1.9h0.6v1.9h1.4v0.6h-1.4v3.9c0,0.7,0.1,1.1,0.7,1.1c0.2,0,0.4,0,0.6-0.1v0.5c-0.2,0.1-0.5,0.1-0.7,0.1
			c-0.8,0-1.2-0.4-1.2-1.3v-4.2h-1.1V400.3z"/>
		<path d="M198.5,397.4l-1.8,1.9h-0.6l1.6-1.9H198.5z M196.1,400.3h0.6v6h-0.6V400.3z"/>
		<path d="M198.8,406.3v-5.4h-1v-0.6h1v-0.9c0-1,0.3-2.1,1.6-2.1c0.2,0,0.4,0,0.6,0.1v0.6c-0.2,0-0.5-0.1-0.6-0.1
			c-0.7,0-1,0.5-1,1.5v0.8h1.3v0.6h-1.3v5.4H198.8z"/>
		<path d="M201.7,397.5h0.6v1.2h-0.6V397.5z M201.7,400.3h0.6v6h-0.6V400.3z"/>
		<path d="M208.7,404.6c-0.3,1.1-1,1.9-2.3,1.9c-1.5,0-2.6-1.1-2.6-3.1c0-1.6,0.9-3.2,2.6-3.2c1.5,0,2.1,1.1,2.3,1.9h-0.6
			c-0.2-0.7-0.6-1.4-1.7-1.4c-1.3,0-2,1.1-2,2.6c0,1.4,0.7,2.6,1.9,2.6c0.9,0,1.4-0.4,1.7-1.3H208.7z"/>
		<path d="M214.2,405.2c0,0.5,0,0.9,0.1,1.1h-0.6c0-0.1-0.1-0.4-0.1-0.9c-0.2,0.4-0.7,1.1-2,1.1c-1.4,0-2-0.9-2-1.8
			c0-1.3,1-1.9,2.8-1.9c0.5,0,0.9,0,1.1,0v-0.6c0-0.6-0.2-1.4-1.5-1.4c-1.2,0-1.4,0.6-1.5,1.1h-0.6c0.1-0.7,0.5-1.7,2.1-1.7
			c1.4,0,2.1,0.6,2.1,1.9V405.2z M213.6,403.3c-0.2,0-0.8,0-1.2,0c-1.3,0-2.2,0.3-2.2,1.4c0,0.8,0.5,1.3,1.4,1.3c1.7,0,2-1.1,2-2.4
			V403.3z"/>
	</g>
</g>
<g>
	<g>
		<path d="M426.6,130h3.8c2.8,0,4.7,1.9,4.7,4.7c0,2.8-1.8,4.9-4.7,4.9h-3.7V130z M428.6,138h1.6c1.9,0,2.7-1.4,2.7-3.3
			c0-1.6-0.8-3-2.7-3h-1.6V138z"/>
		<path d="M438.9,130v9.7h-2.1V130H438.9z"/>
		<path d="M443.5,139.7l-3.4-9.7h2.2l1.4,4.5c0.4,1.3,0.8,2.5,1,3.5h0c0.2-0.9,0.6-2.1,1-3.5l1.5-4.5h2.1l-3.5,9.7H443.5z"/>
		<path d="M457.3,135.5h-4.6v2.5h5.1l-0.2,1.7h-6.9V130h6.8v1.7h-4.8v2.1h4.6V135.5z"/>
		<path d="M461.3,135.8v3.9h-2V130h4.2c2.1,0,3.2,1.2,3.2,2.7c0,1.3-0.7,2-1.4,2.3c0.5,0.2,1.2,0.7,1.2,2.4v0.5c0,0.6,0,1.4,0.1,1.8
			h-2c-0.2-0.4-0.2-1.1-0.2-2.2v-0.1c0-1.1-0.3-1.6-1.8-1.6H461.3z M461.3,134.1h1.8c1.1,0,1.6-0.4,1.6-1.2c0-0.8-0.5-1.2-1.5-1.2
			h-1.8V134.1z"/>
		<path d="M470,136.8c0.2,1,0.9,1.4,2,1.4c1.1,0,1.6-0.4,1.6-1.1c0-0.8-0.5-1.1-2.1-1.5c-2.6-0.6-3.3-1.6-3.3-2.9
			c0-1.7,1.3-2.8,3.5-2.8c2.6,0,3.6,1.4,3.7,2.8h-2.1c-0.1-0.6-0.4-1.2-1.7-1.2c-0.8,0-1.4,0.4-1.4,1c0,0.7,0.4,0.9,2,1.3
			c2.8,0.7,3.4,1.7,3.4,3.1c0,1.8-1.3,3-3.9,3c-2.5,0-3.7-1.2-4-3H470z"/>
		<path d="M479.5,130v9.7h-2.1V130H479.5z"/>
		<path d="M481.8,130h6.7v1.7h-4.7v2.4h4.4v1.7h-4.4v3.9h-2V130z"/>
		<path d="M492.1,130v9.7H490V130H492.1z"/>
		<path d="M502.6,136.7c-0.4,1.8-1.7,3.1-4.2,3.1c-3.1,0-4.5-2.2-4.5-4.9c0-2.6,1.5-5,4.6-5c2.6,0,3.8,1.5,4.1,3.1h-2.1
			c-0.2-0.7-0.7-1.5-2-1.5c-1.7,0-2.4,1.5-2.4,3.3c0,1.6,0.6,3.4,2.4,3.4c1.4,0,1.8-0.9,2-1.5H502.6z"/>
		<path d="M506.2,137.4l-0.8,2.2h-2.1l3.3-9.7h2.6l3.4,9.7h-2.2l-0.8-2.2H506.2z M509.3,135.7c-0.7-2-1.1-3.3-1.4-4.2h0
			c-0.2,1-0.7,2.5-1.3,4.2H509.3z"/>
		<path d="M522.2,136.7c-0.4,1.8-1.7,3.1-4.2,3.1c-3.1,0-4.5-2.2-4.5-4.9c0-2.6,1.5-5,4.6-5c2.6,0,3.8,1.5,4.1,3.1h-2.1
			c-0.2-0.7-0.7-1.5-2-1.5c-1.7,0-2.4,1.5-2.4,3.3c0,1.6,0.6,3.4,2.4,3.4c1.4,0,1.8-0.9,2-1.5H522.2z M519,139.7l-0.6,0.6
			c0.5,0.1,1.2,0.4,1.2,1.3c0,1.2-1.1,1.5-2,1.5c-0.4,0-0.8-0.1-1-0.1v-1.1c0.2,0,0.6,0.1,0.8,0.1c0.5,0,0.6-0.1,0.6-0.4
			c0-0.4-0.6-0.5-1.2-0.5v-0.5l1-1.1L519,139.7z"/>
		<path d="M525.8,137.4l-0.8,2.2H523l3.3-9.7h2.6l3.4,9.7h-2.2l-0.8-2.2H525.8z M525.1,129.1v-0.5c0-1.1,0.5-1.5,1.4-1.5
			c0.9,0,1.7,0.6,2.1,0.6c0.2,0,0.4-0.1,0.4-0.5v-0.1h1.3v0.4c0,1.3-0.5,1.7-1.4,1.7c-0.8,0-1.6-0.6-2.1-0.6c-0.2,0-0.3,0.1-0.3,0.3
			v0.2H525.1z M528.9,135.7c-0.7-2-1.1-3.3-1.4-4.2h0c-0.2,1-0.7,2.5-1.3,4.2H528.9z"/>
		<path d="M542.5,134.8c0,2.7-1.6,5-4.8,5c-3,0-4.6-2.2-4.6-5c0-2.8,1.8-5,4.8-5C540.7,129.9,542.5,131.9,542.5,134.8z M535.3,134.8
			c0,1.9,0.8,3.3,2.5,3.3c1.9,0,2.5-1.6,2.5-3.3c0-1.8-0.7-3.3-2.5-3.3C536.1,131.6,535.3,132.9,535.3,134.8z"/>
	</g>
</g>
<g>
	<g>
		<path d="M461.8,162.4v3.9h-0.7v-8.4h3c1.7,0,2.5,0.9,2.5,2.2c0,1.1-0.6,1.8-1.6,2c0.9,0.2,1.4,0.8,1.4,2.2v0.3
			c0,0.6,0,1.4,0.1,1.7H466c-0.2-0.4-0.1-1-0.1-1.8v-0.2c0-1.4-0.4-2-2-2H461.8z M461.8,161.8h2c1.5,0,2.2-0.6,2.2-1.7
			c0-1-0.7-1.6-2-1.6h-2.2V161.8z"/>
		<path d="M472.6,165.2c0,0.5,0,0.9,0.1,1.1h-0.6c0-0.1-0.1-0.4-0.1-0.9c-0.2,0.4-0.7,1.1-2,1.1c-1.4,0-2-0.9-2-1.8
			c0-1.3,1-1.9,2.8-1.9c0.5,0,0.9,0,1.1,0v-0.6c0-0.6-0.2-1.4-1.5-1.4c-1.2,0-1.4,0.6-1.5,1.1h-0.6c0.1-0.7,0.5-1.7,2.1-1.7
			c1.4,0,2.1,0.6,2.1,1.9V165.2z M472,163.3c-0.2,0-0.8,0-1.2,0c-1.3,0-2.2,0.3-2.2,1.4c0,0.8,0.5,1.3,1.4,1.3c1.7,0,2-1.1,2-2.4
			V163.3z"/>
		<path d="M479.2,157.5v7.1c0,0.6,0,1.1,0,1.7h-0.6c0-0.1,0-0.7,0-1c-0.3,0.7-1,1.2-2,1.2c-1.6,0-2.5-1.3-2.5-3.1
			c0-1.8,1-3.2,2.7-3.2c1.2,0,1.7,0.5,1.9,0.9v-3.6H479.2z M474.8,163.4c0,1.6,0.9,2.5,1.9,2.5c1.6,0,2-1.1,2-2.7
			c0-1.5-0.4-2.4-1.9-2.4C475.6,160.8,474.8,161.7,474.8,163.4z"/>
		<path d="M481.2,157.5h0.6v1.2h-0.6V157.5z M481.2,160.3h0.6v6h-0.6V160.3z"/>
		<path d="M487.9,165.2c0,0.5,0,0.9,0.1,1.1h-0.6c0-0.1-0.1-0.4-0.1-0.9c-0.2,0.4-0.7,1.1-2,1.1c-1.4,0-2-0.9-2-1.8
			c0-1.3,1-1.9,2.8-1.9c0.5,0,0.9,0,1.1,0v-0.6c0-0.6-0.2-1.4-1.5-1.4c-1.2,0-1.4,0.6-1.5,1.1h-0.6c0.1-0.7,0.5-1.7,2.1-1.7
			c1.4,0,2.1,0.6,2.1,1.9V165.2z M487.3,163.3c-0.2,0-0.8,0-1.2,0c-1.3,0-2.2,0.3-2.2,1.4c0,0.8,0.5,1.3,1.4,1.3c1.7,0,2-1.1,2-2.4
			V163.3z"/>
		<path d="M494.3,164.6c-0.3,1.1-1,1.9-2.3,1.9c-1.5,0-2.6-1.1-2.6-3.1c0-1.6,0.9-3.2,2.6-3.2c1.5,0,2.1,1.1,2.3,1.9h-0.6
			c-0.2-0.7-0.6-1.4-1.7-1.4c-1.3,0-2,1.1-2,2.6c0,1.4,0.7,2.6,1.9,2.6c0.9,0,1.4-0.4,1.7-1.3H494.3z M492.4,166.3l-0.5,0.7
			c0.4,0,1.2,0.3,1.2,1.1c0,0.9-0.8,1.1-1.3,1.1c-0.4,0-0.7-0.1-0.9-0.2v-0.6c0.2,0.1,0.6,0.2,0.9,0.2c0.5,0,0.7-0.2,0.7-0.5
			c0-0.5-0.7-0.6-1.4-0.6v-0.3l0.7-1L492.4,166.3z"/>
		<path d="M500.5,163.3c0,1.7-0.9,3.2-2.7,3.2c-1.6,0-2.6-1.3-2.6-3.1c0-1.7,0.9-3.1,2.7-3.1C499.5,160.2,500.5,161.4,500.5,163.3z
			 M495.8,163.3c0,1.4,0.8,2.6,2,2.6c1.3,0,2-1.1,2-2.6c0-1.4-0.7-2.6-2.1-2.6C496.5,160.8,495.8,161.9,495.8,163.3z M496.1,158.9
			v-0.2c0-0.8,0.3-1,0.9-1c0.6,0,1.3,0.7,1.7,0.7c0.3,0,0.4-0.1,0.4-0.6v-0.1h0.5v0.2c0,0.8-0.3,1.1-0.9,1.1c-0.6,0-1.2-0.7-1.7-0.7
			c-0.2,0-0.3,0.1-0.3,0.5v0.2H496.1z"/>
		<path d="M502.2,163.4c0,1.5,0.8,2.5,1.9,2.5c1.1,0,1.5-0.6,1.7-1.1h0.6c-0.3,0.8-0.9,1.7-2.4,1.7c-1.8,0-2.5-1.6-2.5-3.1
			c0-1.7,0.9-3.2,2.6-3.2c1.8,0,2.4,1.6,2.4,2.7c0,0.2,0,0.3,0,0.5H502.2z M506,162.9c0-1.2-0.7-2.1-1.8-2.1c-1.2,0-1.8,0.9-1.9,2.1
			H506z"/>
		<path d="M508,164.7c0.2,0.8,0.8,1.2,1.7,1.2c1.1,0,1.5-0.5,1.5-1.2c0-0.7-0.3-1-1.6-1.3c-1.5-0.4-1.9-0.8-1.9-1.6
			c0-0.8,0.6-1.6,2-1.6s2,0.8,2.1,1.7h-0.6c-0.1-0.5-0.5-1.1-1.5-1.1c-1,0-1.3,0.5-1.3,1c0,0.6,0.3,0.8,1.5,1.1
			c1.7,0.4,2.1,1,2.1,1.9c0,1.1-0.9,1.8-2.1,1.8c-1.4,0-2.1-0.7-2.3-1.8H508z"/>
		<path d="M461.2,172.3h2.8c2.3,0,3.9,1.6,3.9,4.1c0,2.5-1.6,4.3-3.9,4.3h-2.8V172.3z M461.8,180.1h2c2.2,0,3.3-1.6,3.3-3.6
			c0-1.8-1-3.6-3.3-3.6h-2V180.1z"/>
		<path d="M469.5,171.9h0.6v1.2h-0.6V171.9z M469.5,174.7h0.6v6h-0.6V174.7z"/>
		<path d="M471.9,174.7c1,2.7,1.6,4.6,1.9,5.4h0c0.1-0.4,0.8-2.2,2-5.4h0.6l-2.3,6h-0.7l-2.1-6H471.9z"/>
		<path d="M477.7,177.8c0,1.5,0.8,2.5,1.9,2.5c1.1,0,1.5-0.6,1.7-1.1h0.6c-0.3,0.8-0.9,1.7-2.4,1.7c-1.8,0-2.5-1.6-2.5-3.1
			c0-1.7,0.9-3.2,2.6-3.2c1.8,0,2.4,1.6,2.4,2.7c0,0.2,0,0.3,0,0.5H477.7z M481.5,177.3c0-1.2-0.7-2.1-1.8-2.1
			c-1.2,0-1.8,0.9-1.9,2.1H481.5z"/>
		<path d="M483.6,176.4c0-1,0-1.4,0-1.6h0.6c0,0.2,0,0.6,0,1.3c0.3-0.9,1.1-1.4,2.1-1.5v0.6c-1.2,0.1-2.1,0.9-2.1,2.4v3.1h-0.6
			V176.4z"/>
		<path d="M487.5,179.1c0.2,0.8,0.8,1.2,1.7,1.2c1.1,0,1.5-0.5,1.5-1.2c0-0.7-0.3-1-1.6-1.3c-1.5-0.4-1.9-0.8-1.9-1.6
			c0-0.8,0.6-1.6,2-1.6s2,0.8,2.1,1.7h-0.6c-0.1-0.5-0.5-1.1-1.5-1.1c-1,0-1.3,0.5-1.3,1c0,0.6,0.3,0.8,1.5,1.1
			c1.7,0.4,2.1,1,2.1,1.9c0,1.1-0.9,1.8-2.1,1.8c-1.4,0-2.1-0.7-2.3-1.8H487.5z"/>
		<path d="M492.8,171.9h0.6v1.2h-0.6V171.9z M492.8,174.7h0.6v6h-0.6V174.7z"/>
		<path d="M500,171.9v7.1c0,0.6,0,1.1,0,1.7h-0.6c0-0.1,0-0.7,0-1c-0.3,0.7-1,1.2-2,1.2c-1.6,0-2.5-1.3-2.5-3.1c0-1.8,1-3.2,2.7-3.2
			c1.2,0,1.7,0.5,1.9,0.9v-3.6H500z M495.5,177.8c0,1.6,0.9,2.5,1.9,2.5c1.6,0,2-1.1,2-2.7c0-1.5-0.4-2.4-1.9-2.4
			C496.3,175.2,495.5,176.1,495.5,177.8z"/>
		<path d="M506.1,179.6c0,0.5,0,0.9,0.1,1.1h-0.6c0-0.1-0.1-0.4-0.1-0.9c-0.2,0.4-0.7,1.1-2,1.1c-1.4,0-2-0.9-2-1.8
			c0-1.3,1-1.9,2.8-1.9c0.5,0,0.9,0,1.1,0v-0.6c0-0.6-0.2-1.4-1.5-1.4c-1.2,0-1.4,0.6-1.5,1.1h-0.6c0.1-0.7,0.5-1.7,2.1-1.7
			c1.4,0,2.1,0.6,2.1,1.9V179.6z M505.5,177.7c-0.2,0-0.8,0-1.2,0c-1.3,0-2.2,0.3-2.2,1.4c0,0.8,0.5,1.3,1.4,1.3c1.7,0,2-1.1,2-2.4
			V177.7z"/>
		<path d="M512.7,171.9v7.1c0,0.6,0,1.1,0,1.7h-0.6c0-0.1,0-0.7,0-1c-0.3,0.7-1,1.2-2,1.2c-1.6,0-2.5-1.3-2.5-3.1
			c0-1.8,1-3.2,2.7-3.2c1.2,0,1.7,0.5,1.9,0.9v-3.6H512.7z M508.2,177.8c0,1.6,0.9,2.5,1.9,2.5c1.6,0,2-1.1,2-2.7
			c0-1.5-0.4-2.4-1.9-2.4C509,175.2,508.2,176.1,508.2,177.8z"/>
		<path d="M514.8,177.8c0,1.5,0.8,2.5,1.9,2.5c1.1,0,1.5-0.6,1.7-1.1h0.6c-0.3,0.8-0.9,1.7-2.4,1.7c-1.8,0-2.5-1.6-2.5-3.1
			c0-1.7,0.9-3.2,2.6-3.2c1.8,0,2.4,1.6,2.4,2.7c0,0.2,0,0.3,0,0.5H514.8z M518.6,177.3c0-1.2-0.7-2.1-1.8-2.1
			c-1.2,0-1.8,0.9-1.9,2.1H518.6z"/>
		<path d="M524,180.7v-5.4h-1v-0.6h1v-0.9c0-1,0.3-2.1,1.6-2.1c0.2,0,0.4,0,0.6,0.1v0.6c-0.2,0-0.5-0.1-0.6-0.1c-0.7,0-1,0.5-1,1.5
			v0.8h1.3v0.6h-1.3v5.4H524z"/>
		<path d="M526.8,171.9h0.6v1.2h-0.6V171.9z M526.8,174.7h0.6v6h-0.6V174.7z"/>
		<path d="M529.4,180.7v-8.8h0.6v8.8H529.4z"/>
		<path d="M536.8,177.7c0,1.7-0.9,3.2-2.7,3.2c-1.6,0-2.6-1.3-2.6-3.1c0-1.7,0.9-3.1,2.7-3.1C535.8,174.6,536.8,175.8,536.8,177.7z
			 M532.1,177.7c0,1.4,0.8,2.6,2,2.6c1.3,0,2-1.1,2-2.6c0-1.4-0.7-2.6-2.1-2.6C532.8,175.2,532.1,176.3,532.1,177.7z"/>
		<path d="M542.9,180.3c0,1.9-0.9,2.9-2.6,2.9c-1.6,0-2.2-0.9-2.4-1.8h0.6c0.2,0.8,0.9,1.2,1.8,1.2c1.6,0,2-1,2-2.5v-0.6
			c-0.3,0.8-0.9,1.2-2,1.2c-1.4,0-2.5-1.1-2.5-3c0-2,1.2-3.1,2.6-3.1c1.2,0,1.8,0.6,1.9,1.1c0-0.3,0-0.8,0-0.9h0.6
			c0,0.2,0,1.2,0,1.7V180.3z M538.5,177.7c0,1.4,0.8,2.5,1.9,2.5c1.5,0,2-1,2-2.6c0-1.6-0.5-2.5-1.9-2.5
			C539,175.2,538.5,176.3,538.5,177.7z"/>
		<path d="M545,177.8c0,1.5,0.8,2.5,1.9,2.5c1.1,0,1.5-0.6,1.7-1.1h0.6c-0.3,0.8-0.9,1.7-2.4,1.7c-1.8,0-2.5-1.6-2.5-3.1
			c0-1.7,0.9-3.2,2.6-3.2c1.8,0,2.4,1.6,2.4,2.7c0,0.2,0,0.3,0,0.5H545z M548.8,177.3c0-1.2-0.7-2.1-1.8-2.1c-1.2,0-1.8,0.9-1.9,2.1
			H548.8z"/>
		<path d="M550.9,176.3c0-0.5,0-1,0-1.5h0.6c0,0.2,0,1,0,1.1c0.3-0.6,0.8-1.3,2-1.3c1.1,0,2,0.6,2,2.3v3.9h-0.6v-3.8
			c0-1.1-0.4-1.8-1.5-1.8c-1.4,0-1.9,1.2-1.9,2.5v3.1h-0.6V176.3z"/>
		<path d="M557.6,177.8c0,1.5,0.8,2.5,1.9,2.5c1.1,0,1.5-0.6,1.7-1.1h0.6c-0.3,0.8-0.9,1.7-2.4,1.7c-1.8,0-2.5-1.6-2.5-3.1
			c0-1.7,0.9-3.2,2.6-3.2c1.8,0,2.4,1.6,2.4,2.7c0,0.2,0,0.3,0,0.5H557.6z M561.4,177.3c0-1.2-0.7-2.1-1.8-2.1
			c-1.2,0-1.8,0.9-1.9,2.1H561.4z M561.5,171.8l-1.8,1.9H559l1.6-1.9H561.5z"/>
		<path d="M562.6,174.7h1.1v-1.9h0.6v1.9h1.4v0.6h-1.4v3.9c0,0.7,0.1,1.1,0.7,1.1c0.2,0,0.4,0,0.6-0.1v0.5c-0.2,0.1-0.5,0.1-0.7,0.1
			c-0.8,0-1.2-0.4-1.2-1.3v-4.2h-1.1V174.7z"/>
		<path d="M567,171.9h0.6v1.2H567V171.9z M567,174.7h0.6v6H567V174.7z"/>
		<path d="M573.9,179c-0.3,1.1-1,1.9-2.3,1.9c-1.5,0-2.6-1.1-2.6-3.1c0-1.6,0.9-3.2,2.6-3.2c1.5,0,2.1,1.1,2.3,1.9h-0.6
			c-0.2-0.7-0.6-1.4-1.7-1.4c-1.3,0-2,1.1-2,2.6c0,1.4,0.7,2.6,1.9,2.6c0.9,0,1.4-0.4,1.7-1.3H573.9z"/>
		<path d="M579.5,179.6c0,0.5,0,0.9,0.1,1.1H579c0-0.1-0.1-0.4-0.1-0.9c-0.2,0.4-0.7,1.1-2,1.1c-1.4,0-2-0.9-2-1.8
			c0-1.3,1-1.9,2.8-1.9c0.5,0,0.9,0,1.1,0v-0.6c0-0.6-0.2-1.4-1.5-1.4c-1.2,0-1.4,0.6-1.5,1.1h-0.6c0.1-0.7,0.5-1.7,2.1-1.7
			c1.4,0,2.1,0.6,2.1,1.9V179.6z M578.9,177.7c-0.2,0-0.8,0-1.2,0c-1.3,0-2.2,0.3-2.2,1.4c0,0.8,0.5,1.3,1.4,1.3c1.7,0,2-1.1,2-2.4
			V177.7z"/>
		<path d="M461.2,192.9c0.3,1.1,1,1.8,2.4,1.8c1.5,0,2.1-0.8,2.1-1.7c0-0.9-0.4-1.5-2.3-2c-1.8-0.4-2.5-1-2.5-2.2
			c0-1.1,0.8-2.1,2.6-2.1c1.8,0,2.6,1.1,2.7,2.1h-0.7c-0.2-0.9-0.8-1.5-2.1-1.5c-1.2,0-1.9,0.6-1.9,1.5c0,0.9,0.6,1.3,2.1,1.7
			c2.4,0.6,2.7,1.5,2.7,2.5c0,1.2-0.9,2.3-2.8,2.3c-2.1,0-2.9-1.2-3-2.4H461.2z"/>
		<path d="M468,186.3h0.6v1.2H468V186.3z M468,189.1h0.6v6H468V189.1z"/>
		<path d="M470.6,190.7c0-0.5,0-1,0-1.5h0.6c0,0.2,0,1,0,1.1c0.3-0.6,0.8-1.3,2-1.3c1.1,0,2,0.6,2,2.3v3.9h-0.6v-3.8
			c0-1.1-0.4-1.8-1.5-1.8c-1.4,0-1.9,1.2-1.9,2.5v3.1h-0.6V190.7z"/>
		<path d="M481.7,194.7c0,1.9-0.9,2.9-2.6,2.9c-1.6,0-2.2-0.9-2.4-1.8h0.6c0.2,0.8,0.9,1.2,1.8,1.2c1.6,0,2-1,2-2.5v-0.6
			c-0.3,0.8-0.9,1.2-2,1.2c-1.4,0-2.5-1.1-2.5-3c0-2,1.2-3.1,2.6-3.1c1.2,0,1.8,0.6,1.9,1.1c0-0.3,0-0.8,0-0.9h0.6
			c0,0.2,0,1.2,0,1.7V194.7z M477.3,192.1c0,1.4,0.8,2.5,1.9,2.5c1.5,0,2-1,2-2.6c0-1.6-0.5-2.5-1.9-2.5
			C477.9,189.6,477.3,190.7,477.3,192.1z"/>
		<path d="M488.2,193.4c0,0.6,0,1.5,0,1.8h-0.6c0-0.2,0-0.6,0-1c-0.3,0.7-0.9,1.2-1.9,1.2c-0.9,0-2-0.3-2-2.2v-4h0.6v3.8
			c0,0.9,0.3,1.7,1.5,1.7c1.3,0,1.8-0.8,1.8-2.5v-3.1h0.6V193.4z"/>
		<path d="M490.2,195.1v-8.8h0.6v8.8H490.2z"/>
		<path d="M496.8,194c0,0.5,0,0.9,0.1,1.1h-0.6c0-0.1-0.1-0.4-0.1-0.9c-0.2,0.4-0.7,1.1-2,1.1c-1.4,0-2-0.9-2-1.8
			c0-1.3,1-1.9,2.8-1.9c0.5,0,0.9,0,1.1,0V191c0-0.6-0.2-1.4-1.5-1.4c-1.2,0-1.4,0.6-1.5,1.1h-0.6c0.1-0.7,0.5-1.7,2.1-1.7
			c1.4,0,2.1,0.6,2.1,1.9V194z M496.3,192.1c-0.2,0-0.8,0-1.2,0c-1.3,0-2.2,0.3-2.2,1.4c0,0.8,0.5,1.3,1.4,1.3c1.7,0,2-1.1,2-2.4
			V192.1z"/>
		<path d="M498.8,190.8c0-1,0-1.4,0-1.6h0.6c0,0.2,0,0.6,0,1.3c0.3-0.9,1.1-1.4,2.1-1.5v0.6c-1.2,0.1-2.1,0.9-2.1,2.4v3.1h-0.6
			V190.8z"/>
		<path d="M502.7,186.3h0.6v1.2h-0.6V186.3z M502.7,189.1h0.6v6h-0.6V189.1z"/>
		<path d="M509.9,186.3v7.1c0,0.6,0,1.1,0,1.7h-0.6c0-0.1,0-0.7,0-1c-0.3,0.7-1,1.2-2,1.2c-1.6,0-2.5-1.3-2.5-3.1
			c0-1.8,1-3.2,2.7-3.2c1.2,0,1.7,0.5,1.9,0.9v-3.6H509.9z M505.4,192.2c0,1.6,0.9,2.5,1.9,2.5c1.6,0,2-1.1,2-2.7
			c0-1.5-0.4-2.4-1.9-2.4C506.2,189.6,505.4,190.5,505.4,192.2z"/>
		<path d="M516,194c0,0.5,0,0.9,0.1,1.1h-0.6c0-0.1-0.1-0.4-0.1-0.9c-0.2,0.4-0.7,1.1-2,1.1c-1.4,0-2-0.9-2-1.8c0-1.3,1-1.9,2.8-1.9
			c0.5,0,0.9,0,1.1,0V191c0-0.6-0.2-1.4-1.5-1.4c-1.2,0-1.4,0.6-1.5,1.1h-0.6c0.1-0.7,0.5-1.7,2.1-1.7c1.4,0,2.1,0.6,2.1,1.9V194z
			 M515.4,192.1c-0.2,0-0.8,0-1.2,0c-1.3,0-2.2,0.3-2.2,1.4c0,0.8,0.5,1.3,1.4,1.3c1.7,0,2-1.1,2-2.4V192.1z"/>
		<path d="M522.6,186.3v7.1c0,0.6,0,1.1,0,1.7H522c0-0.1,0-0.7,0-1c-0.3,0.7-1,1.2-2,1.2c-1.6,0-2.5-1.3-2.5-3.1
			c0-1.8,1-3.2,2.7-3.2c1.2,0,1.7,0.5,1.9,0.9v-3.6H522.6z M518.1,192.2c0,1.6,0.9,2.5,1.9,2.5c1.6,0,2-1.1,2-2.7
			c0-1.5-0.4-2.4-1.9-2.4C518.9,189.6,518.1,190.5,518.1,192.2z"/>
		<path d="M524.7,192.2c0,1.5,0.8,2.5,1.9,2.5c1.1,0,1.5-0.6,1.7-1.1h0.6c-0.3,0.8-0.9,1.7-2.4,1.7c-1.8,0-2.5-1.6-2.5-3.1
			c0-1.7,0.9-3.2,2.6-3.2c1.8,0,2.4,1.6,2.4,2.7c0,0.2,0,0.3,0,0.5H524.7z M528.5,191.7c0-1.2-0.7-2.1-1.8-2.1
			c-1.2,0-1.8,0.9-1.9,2.1H528.5z"/>
		<path d="M533.9,192.2c0,1.5,0.8,2.5,1.9,2.5c1.1,0,1.5-0.6,1.7-1.1h0.6c-0.3,0.8-0.9,1.7-2.4,1.7c-1.8,0-2.5-1.6-2.5-3.1
			c0-1.7,0.9-3.2,2.6-3.2c1.8,0,2.4,1.6,2.4,2.7c0,0.2,0,0.3,0,0.5H533.9z M537.7,191.7c0-1.2-0.7-2.1-1.8-2.1
			c-1.2,0-1.8,0.9-1.9,2.1H537.7z"/>
		<path d="M539.6,189.1c1,2.7,1.6,4.6,1.9,5.4h0c0.1-0.4,0.8-2.2,2-5.4h0.6l-2.3,6h-0.7l-2.1-6H539.6z"/>
		<path d="M550.1,192.1c0,1.7-0.9,3.2-2.7,3.2c-1.6,0-2.6-1.3-2.6-3.1c0-1.7,0.9-3.1,2.7-3.1C549.1,189,550.1,190.2,550.1,192.1z
			 M545.4,192.1c0,1.4,0.8,2.6,2,2.6c1.3,0,2-1.1,2-2.6c0-1.4-0.7-2.6-2.1-2.6C546.1,189.6,545.4,190.7,545.4,192.1z"/>
		<path d="M551.6,195.1v-8.8h0.6v8.8H551.6z"/>
		<path d="M558.7,193.4c0,0.6,0,1.5,0,1.8h-0.6c0-0.2,0-0.6,0-1c-0.3,0.7-0.9,1.2-1.9,1.2c-0.9,0-2-0.3-2-2.2v-4h0.6v3.8
			c0,0.9,0.3,1.7,1.5,1.7c1.3,0,1.8-0.8,1.8-2.5v-3.1h0.6V193.4z"/>
		<path d="M559.7,189.1h1.1v-1.9h0.6v1.9h1.4v0.6h-1.4v3.9c0,0.7,0.1,1.1,0.7,1.1c0.2,0,0.4,0,0.6-0.1v0.5c-0.2,0.1-0.5,0.1-0.7,0.1
			c-0.8,0-1.2-0.4-1.2-1.3v-4.2h-1.1V189.1z"/>
		<path d="M564.1,186.3h0.6v1.2h-0.6V186.3z M564.1,189.1h0.6v6h-0.6V189.1z"/>
		<path d="M566.5,189.1c1,2.7,1.6,4.6,1.9,5.4h0c0.1-0.4,0.8-2.2,2-5.4h0.6l-2.3,6H568l-2.1-6H566.5z"/>
		<path d="M576.3,194c0,0.5,0,0.9,0.1,1.1h-0.6c0-0.1-0.1-0.4-0.1-0.9c-0.2,0.4-0.7,1.1-2,1.1c-1.4,0-2-0.9-2-1.8
			c0-1.3,1-1.9,2.8-1.9c0.5,0,0.9,0,1.1,0V191c0-0.6-0.2-1.4-1.5-1.4c-1.2,0-1.4,0.6-1.5,1.1H572c0.1-0.7,0.5-1.7,2.1-1.7
			c1.4,0,2.1,0.6,2.1,1.9V194z M575.7,192.1c-0.2,0-0.8,0-1.2,0c-1.3,0-2.2,0.3-2.2,1.4c0,0.8,0.5,1.3,1.4,1.3c1.7,0,2-1.1,2-2.4
			V192.1z"/>
	</g>
</g>
<g>
	<g>
		<path d="M401.1,279.1c0.2,0.7,0.7,1,1.5,1c0.8,0,1.1-0.3,1.1-0.8c0-0.6-0.3-0.8-1.5-1.1c-1.9-0.4-2.3-1.1-2.3-2.1
			c0-1.2,0.9-2,2.5-2c1.8,0,2.6,1,2.7,2h-1.5c-0.1-0.4-0.3-0.9-1.2-0.9c-0.6,0-1,0.3-1,0.7c0,0.5,0.3,0.7,1.4,0.9
			c2,0.5,2.4,1.2,2.4,2.2c0,1.3-1,2.1-2.8,2.1c-1.8,0-2.7-0.9-2.8-2.1H401.1z"/>
		<path d="M407.9,274.2v6.9h-1.5v-6.9H407.9z"/>
		<path d="M410.6,279.1c0.2,0.7,0.7,1,1.5,1c0.8,0,1.1-0.3,1.1-0.8c0-0.6-0.3-0.8-1.5-1.1c-1.9-0.4-2.3-1.1-2.3-2.1
			c0-1.2,0.9-2,2.5-2c1.8,0,2.6,1,2.7,2H413c-0.1-0.4-0.3-0.9-1.2-0.9c-0.6,0-1,0.3-1,0.7c0,0.5,0.3,0.7,1.4,0.9
			c2,0.5,2.4,1.2,2.4,2.2c0,1.3-1,2.1-2.8,2.1c-1.7,0-2.7-0.9-2.8-2.1H410.6z"/>
		<path d="M417.3,275.4h-2.1v-1.2h5.7v1.2h-2.1v5.7h-1.5V275.4z"/>
		<path d="M426.5,278.1h-3.3v1.8h3.6l-0.2,1.2h-4.9v-6.9h4.9v1.2h-3.4v1.5h3.3V278.1z"/>
		<path d="M433.7,278.5c0-1.2,0-2.5,0-3.3h0c-0.3,1.4-1,3.7-1.7,5.9h-1.3c-0.5-1.9-1.2-4.5-1.5-5.9h0c0.1,0.8,0.1,2.2,0.1,3.4v2.5
			H428v-6.9h2.2c0.5,1.8,1.1,4.1,1.3,5.1h0c0.2-0.9,0.9-3.3,1.5-5.1h2.1v6.9h-1.4V278.5z"/>
		<path d="M438.1,279.5l-0.5,1.6h-1.5l2.3-6.9h1.9l2.4,6.9h-1.6l-0.6-1.6H438.1z M440.3,278.3c-0.5-1.5-0.8-2.4-1-3h0
			c-0.2,0.7-0.5,1.8-0.9,3H440.3z"/>
		<path d="M444.7,279.1c0.2,0.7,0.7,1,1.5,1c0.8,0,1.1-0.3,1.1-0.8c0-0.6-0.3-0.8-1.5-1.1c-1.9-0.4-2.3-1.1-2.3-2.1
			c0-1.2,0.9-2,2.5-2c1.8,0,2.6,1,2.7,2h-1.5c-0.1-0.4-0.3-0.9-1.2-0.9c-0.6,0-1,0.3-1,0.7c0,0.5,0.3,0.7,1.4,0.9
			c2,0.5,2.4,1.2,2.4,2.2c0,1.3-1,2.1-2.8,2.1c-1.7,0-2.7-0.9-2.8-2.1H444.7z"/>
		<path d="M452.5,274.2h2.7c2,0,3.3,1.3,3.3,3.4c0,2-1.3,3.5-3.4,3.5h-2.7V274.2z M454,279.9h1.1c1.3,0,1.9-1,1.9-2.3
			c0-1.1-0.5-2.2-1.9-2.2H454V279.9z"/>
		<path d="M464.6,278.1h-3.3v1.8h3.6l-0.2,1.2h-4.9v-6.9h4.9v1.2h-3.4v1.5h3.3V278.1z"/>
		<path d="M474.2,278.5c0-1.2,0-2.5,0-3.3h0c-0.3,1.4-1,3.7-1.7,5.9h-1.3c-0.5-1.9-1.2-4.5-1.5-5.9h0c0.1,0.8,0.1,2.2,0.1,3.4v2.5
			h-1.4v-6.9h2.2c0.5,1.8,1.1,4.1,1.3,5.1h0c0.2-0.9,0.9-3.3,1.5-5.1h2.1v6.9h-1.4V278.5z"/>
		<path d="M483.6,277.6c0,1.9-1.2,3.6-3.4,3.6c-2.2,0-3.3-1.6-3.3-3.5c0-2,1.3-3.5,3.4-3.5C482.4,274.1,483.6,275.5,483.6,277.6z
			 M478.5,277.6c0,1.3,0.6,2.4,1.8,2.4c1.3,0,1.8-1.1,1.8-2.3c0-1.3-0.5-2.3-1.8-2.3C479,275.3,478.5,276.3,478.5,277.6z"/>
		<path d="M484.9,281.1v-6.9h1.8c0.9,1.5,2.5,4.3,2.8,5.1h0c-0.1-0.7-0.1-1.9-0.1-3v-2h1.4v6.9h-1.8c-0.7-1.3-2.5-4.6-2.8-5.3h0
			c0,0.6,0.1,2,0.1,3.3v2.1H484.9z"/>
		<path d="M493.9,275.4h-2.1v-1.2h5.7v1.2h-2.1v5.7h-1.5V275.4z"/>
		<path d="M499.7,279.5l-0.5,1.6h-1.5l2.3-6.9h1.9l2.4,6.9h-1.6l-0.6-1.6H499.7z M501.9,278.3c-0.5-1.5-0.8-2.4-1-3h0
			c-0.2,0.7-0.5,1.8-0.9,3H501.9z"/>
		<path d="M505.3,281.1v-6.9h1.8c0.9,1.5,2.5,4.3,2.8,5.1h0c-0.1-0.7-0.1-1.9-0.1-3v-2h1.4v6.9h-1.8c-0.7-1.3-2.5-4.6-2.8-5.3h0
			c0,0.6,0.1,2,0.1,3.3v2.1H505.3z"/>
		<path d="M512.8,274.2h1.5v2.7h2.8v-2.7h1.5v6.9h-1.5v-3h-2.8v3h-1.5V274.2z"/>
		<path d="M521.5,279.5l-0.5,1.6h-1.5l2.3-6.9h1.9l2.4,6.9h-1.6l-0.6-1.6H521.5z M523.7,278.3c-0.5-1.5-0.8-2.4-1-3h0
			c-0.2,0.7-0.5,1.8-0.9,3H523.7z"/>
		<path d="M528.1,279.1c0.2,0.7,0.7,1,1.5,1c0.8,0,1.1-0.3,1.1-0.8c0-0.6-0.3-0.8-1.5-1.1c-1.9-0.4-2.3-1.1-2.3-2.1
			c0-1.2,0.9-2,2.5-2c1.8,0,2.6,1,2.7,2h-1.5c-0.1-0.4-0.3-0.9-1.2-0.9c-0.6,0-1,0.3-1,0.7c0,0.5,0.3,0.7,1.4,0.9
			c2,0.5,2.4,1.2,2.4,2.2c0,1.3-1,2.1-2.8,2.1c-1.7,0-2.7-0.9-2.8-2.1H528.1z"/>
	</g>
</g>
<g>
	<g>
		<path d="M421.9,324.2c-0.4,1.3-1.4,2.3-3.2,2.3c-2.4,0-3.7-1.9-3.7-4.3c0-2.3,1.2-4.3,3.7-4.3c1.8,0,2.9,1,3.2,2.4h-0.6
			c-0.4-1.1-1.1-1.8-2.5-1.8c-2.1,0-3,1.9-3,3.7c0,1.8,0.9,3.7,3,3.7c1.4,0,2.1-0.7,2.5-1.7H421.9z"/>
		<path d="M427.5,325.3c0,0.5,0,0.9,0.1,1.1h-0.6c0-0.1-0.1-0.4-0.1-0.9c-0.2,0.4-0.7,1.1-2,1.1c-1.4,0-2-0.9-2-1.8
			c0-1.3,1-1.9,2.8-1.9c0.5,0,0.9,0,1.1,0v-0.6c0-0.6-0.2-1.4-1.5-1.4c-1.2,0-1.4,0.6-1.5,1.1h-0.6c0.1-0.7,0.5-1.7,2.1-1.7
			c1.4,0,2.1,0.6,2.1,1.9V325.3z M427,323.4c-0.2,0-0.8,0-1.2,0c-1.3,0-2.2,0.3-2.2,1.4c0,0.8,0.5,1.3,1.4,1.3c1.7,0,2-1.1,2-2.4
			V323.4z"/>
		<path d="M434.2,317.6v7.1c0,0.6,0,1.1,0,1.7h-0.6c0-0.1,0-0.7,0-1c-0.3,0.7-1,1.2-2,1.2c-1.6,0-2.5-1.3-2.5-3.1
			c0-1.8,1-3.2,2.7-3.2c1.2,0,1.7,0.5,1.9,0.9v-3.6H434.2z M429.7,323.5c0,1.6,0.9,2.5,1.9,2.5c1.6,0,2-1.1,2-2.7
			c0-1.5-0.4-2.4-1.9-2.4C430.5,320.9,429.7,321.9,429.7,323.5z"/>
		<path d="M436.3,323.6c0,1.5,0.8,2.5,1.9,2.5c1.1,0,1.5-0.6,1.7-1.1h0.6c-0.3,0.8-0.9,1.7-2.4,1.7c-1.8,0-2.5-1.6-2.5-3.1
			c0-1.7,0.9-3.2,2.6-3.2c1.8,0,2.4,1.6,2.4,2.7c0,0.2,0,0.3,0,0.5H436.3z M440.1,323c0-1.2-0.7-2.1-1.8-2.1c-1.2,0-1.8,0.9-1.9,2.1
			H440.1z"/>
		<path d="M442.2,317.6h0.6v1.2h-0.6V317.6z M442.2,320.5h0.6v6h-0.6V320.5z"/>
		<path d="M448.8,325.3c0,0.5,0,0.9,0.1,1.1h-0.6c0-0.1-0.1-0.4-0.1-0.9c-0.2,0.4-0.7,1.1-2,1.1c-1.4,0-2-0.9-2-1.8
			c0-1.3,1-1.9,2.8-1.9c0.5,0,0.9,0,1.1,0v-0.6c0-0.6-0.2-1.4-1.5-1.4c-1.2,0-1.4,0.6-1.5,1.1h-0.6c0.1-0.7,0.5-1.7,2.1-1.7
			c1.4,0,2.1,0.6,2.1,1.9V325.3z M448.2,323.4c-0.2,0-0.8,0-1.2,0c-1.3,0-2.2,0.3-2.2,1.4c0,0.8,0.5,1.3,1.4,1.3c1.7,0,2-1.1,2-2.4
			V323.4z"/>
		<path d="M450.8,324.8c0.2,0.8,0.8,1.2,1.7,1.2c1.1,0,1.5-0.5,1.5-1.2c0-0.7-0.3-1-1.6-1.3c-1.5-0.4-1.9-0.8-1.9-1.6
			c0-0.8,0.6-1.6,2-1.6s2,0.8,2.1,1.7h-0.6c-0.1-0.5-0.5-1.1-1.5-1.1c-1,0-1.3,0.5-1.3,1c0,0.6,0.3,0.8,1.5,1.1
			c1.7,0.4,2.1,1,2.1,1.9c0,1.1-0.9,1.8-2.1,1.8c-1.4,0-2.1-0.7-2.3-1.8H450.8z"/>
		<path d="M463.9,317.6v7.1c0,0.6,0,1.1,0,1.7h-0.6c0-0.1,0-0.7,0-1c-0.3,0.7-1,1.2-2,1.2c-1.6,0-2.5-1.3-2.5-3.1
			c0-1.8,1-3.2,2.7-3.2c1.2,0,1.7,0.5,1.9,0.9v-3.6H463.9z M459.4,323.5c0,1.6,0.9,2.5,1.9,2.5c1.6,0,2-1.1,2-2.7
			c0-1.5-0.4-2.4-1.9-2.4C460.2,320.9,459.4,321.9,459.4,323.5z"/>
		<path d="M466,323.6c0,1.5,0.8,2.5,1.9,2.5c1.1,0,1.5-0.6,1.7-1.1h0.6c-0.3,0.8-0.9,1.7-2.4,1.7c-1.8,0-2.5-1.6-2.5-3.1
			c0-1.7,0.9-3.2,2.6-3.2c1.8,0,2.4,1.6,2.4,2.7c0,0.2,0,0.3,0,0.5H466z M469.8,323c0-1.2-0.7-2.1-1.8-2.1c-1.2,0-1.8,0.9-1.9,2.1
			H469.8z"/>
		<path d="M482.5,322.6c0-1.6,0-3.2,0-4.1h0c-0.3,1.1-2,5.3-3.1,7.9h-0.6c-0.8-2.1-2.6-6.7-3-7.9h0c0.1,1,0.1,2.9,0.1,4.4v3.6h-0.6
			v-8.4h1c1.2,2.9,2.6,6.6,2.9,7.6h0c0.2-0.6,1.9-4.8,3-7.6h1v8.4h-0.6V322.6z"/>
		<path d="M490.1,323.5c0,1.7-0.9,3.2-2.7,3.2c-1.6,0-2.6-1.3-2.6-3.1c0-1.7,0.9-3.1,2.7-3.1C489.1,320.3,490.1,321.6,490.1,323.5z
			 M485.4,323.5c0,1.4,0.8,2.6,2,2.6c1.3,0,2-1.1,2-2.6c0-1.4-0.7-2.6-2.1-2.6C486.1,320.9,485.4,322,485.4,323.5z"/>
		<path d="M491.6,322c0-0.5,0-1,0-1.5h0.6c0,0.2,0,1,0,1.1c0.3-0.6,0.8-1.3,2-1.3c1.1,0,2,0.6,2,2.3v3.9h-0.6v-3.8
			c0-1.1-0.4-1.8-1.5-1.8c-1.4,0-1.9,1.2-1.9,2.5v3.1h-0.6V322z"/>
		<path d="M497.3,320.5h1.1v-1.9h0.6v1.9h1.4v0.6H499v3.9c0,0.7,0.1,1.1,0.7,1.1c0.2,0,0.4,0,0.6-0.1v0.5c-0.2,0.1-0.5,0.1-0.7,0.1
			c-0.8,0-1.2-0.4-1.2-1.3V321h-1.1V320.5z"/>
		<path d="M505.8,325.3c0,0.5,0,0.9,0.1,1.1h-0.6c0-0.1-0.1-0.4-0.1-0.9c-0.2,0.4-0.7,1.1-2,1.1c-1.4,0-2-0.9-2-1.8
			c0-1.3,1-1.9,2.8-1.9c0.5,0,0.9,0,1.1,0v-0.6c0-0.6-0.2-1.4-1.5-1.4c-1.2,0-1.4,0.6-1.5,1.1h-0.6c0.1-0.7,0.5-1.7,2.1-1.7
			c1.4,0,2.1,0.6,2.1,1.9V325.3z M505.2,323.4c-0.2,0-0.8,0-1.2,0c-1.3,0-2.2,0.3-2.2,1.4c0,0.8,0.5,1.3,1.4,1.3c1.7,0,2-1.1,2-2.4
			V323.4z"/>
		<path d="M507.8,322c0-0.5,0-1,0-1.5h0.6c0,0.2,0,1,0,1.1c0.3-0.6,0.8-1.3,2-1.3c1.1,0,2,0.6,2,2.3v3.9h-0.6v-3.8
			c0-1.1-0.4-1.8-1.5-1.8c-1.4,0-1.9,1.2-1.9,2.5v3.1h-0.6V322z"/>
		<path d="M514.9,317.6v3.9c0.3-0.6,0.9-1.2,2-1.2c0.9,0,2,0.4,2,2.3v3.8h-0.6v-3.7c0-1.2-0.5-1.9-1.5-1.9c-1.2,0-1.9,0.7-1.9,2.2
			v3.3h-0.6v-8.8H514.9z"/>
		<path d="M525,325.3c0,0.5,0,0.9,0.1,1.1h-0.6c0-0.1-0.1-0.4-0.1-0.9c-0.2,0.4-0.7,1.1-2,1.1c-1.4,0-2-0.9-2-1.8
			c0-1.3,1-1.9,2.8-1.9c0.5,0,0.9,0,1.1,0v-0.6c0-0.6-0.2-1.4-1.5-1.4c-1.2,0-1.4,0.6-1.5,1.1h-0.6c0.1-0.7,0.5-1.7,2.1-1.7
			c1.4,0,2.1,0.6,2.1,1.9V325.3z M524.4,323.4c-0.2,0-0.8,0-1.2,0c-1.3,0-2.2,0.3-2.2,1.4c0,0.8,0.5,1.3,1.4,1.3c1.7,0,2-1.1,2-2.4
			V323.4z"/>
		<path d="M527,324.8c0.2,0.8,0.8,1.2,1.7,1.2c1.1,0,1.5-0.5,1.5-1.2c0-0.7-0.3-1-1.6-1.3c-1.5-0.4-1.9-0.8-1.9-1.6
			c0-0.8,0.6-1.6,2-1.6s2,0.8,2.1,1.7h-0.6c-0.1-0.5-0.5-1.1-1.5-1.1c-1,0-1.3,0.5-1.3,1c0,0.6,0.3,0.8,1.5,1.1
			c1.7,0.4,2.1,1,2.1,1.9c0,1.1-0.9,1.8-2.1,1.8c-1.4,0-2.1-0.7-2.3-1.8H527z"/>
		<path d="M415.6,340.9v-8.4h1c1.3,2,4.4,6.7,4.9,7.6h0c-0.1-1.2-0.1-2.4-0.1-3.8v-3.8h0.7v8.4h-0.9c-1.2-1.9-4.4-6.8-5-7.7h0
			c0.1,1.1,0,2.3,0,3.8v3.9H415.6z"/>
		<path d="M424.4,338c0,1.5,0.8,2.5,1.9,2.5c1.1,0,1.5-0.6,1.7-1.1h0.6c-0.3,0.8-0.9,1.7-2.4,1.7c-1.8,0-2.5-1.6-2.5-3.1
			c0-1.7,0.9-3.2,2.6-3.2c1.8,0,2.4,1.6,2.4,2.7c0,0.2,0,0.3,0,0.5H424.4z M428.2,337.4c0-1.2-0.7-2.1-1.8-2.1
			c-1.2,0-1.8,0.9-1.9,2.1H428.2z"/>
		<path d="M435.1,337.9c0,1.7-0.9,3.2-2.7,3.2c-1.6,0-2.6-1.3-2.6-3.1c0-1.7,0.9-3.1,2.7-3.1C434.1,334.7,435.1,336,435.1,337.9z
			 M430.4,337.9c0,1.4,0.8,2.6,2,2.6c1.3,0,2-1.1,2-2.6c0-1.4-0.7-2.6-2.1-2.6C431.1,335.3,430.4,336.4,430.4,337.9z"/>
		<path d="M435.7,334.9h1.1V333h0.6v1.9h1.4v0.6h-1.4v3.9c0,0.7,0.1,1.1,0.7,1.1c0.2,0,0.4,0,0.6-0.1v0.5c-0.2,0.1-0.5,0.1-0.7,0.1
			c-0.8,0-1.2-0.4-1.2-1.3v-4.2h-1.1V334.9z"/>
		<path d="M440.1,336.5c0-1,0-1.4,0-1.6h0.6c0,0.2,0,0.6,0,1.3c0.3-0.9,1.1-1.4,2.1-1.5v0.6c-1.2,0.1-2.1,0.9-2.1,2.4v3.1h-0.6
			V336.5z"/>
		<path d="M448.8,337.9c0,1.7-0.9,3.2-2.7,3.2c-1.6,0-2.6-1.3-2.6-3.1c0-1.7,0.9-3.1,2.7-3.1C447.8,334.7,448.8,336,448.8,337.9z
			 M444.1,337.9c0,1.4,0.8,2.6,2,2.6c1.3,0,2-1.1,2-2.6c0-1.4-0.7-2.6-2.1-2.6C444.8,335.3,444.1,336.4,444.1,337.9z M448,331.9
			l-1.8,1.9h-0.6l1.6-1.9H448z"/>
		<path d="M450.9,340v3.3h-0.6v-6.9c0-0.5,0-1,0-1.5h0.6c0,0.2,0,0.6,0,1.1c0.4-0.7,1-1.2,2.1-1.2c1.4,0,2.4,1.2,2.4,3
			c0,2.2-1.2,3.3-2.6,3.3C451.8,341,451.2,340.6,450.9,340z M454.8,337.8c0-1.4-0.7-2.4-1.9-2.4c-1.5,0-2.1,0.9-2.1,2.5
			c0,1.6,0.5,2.6,2,2.6C454.1,340.5,454.8,339.4,454.8,337.8z"/>
		<path d="M456.9,332h0.6v1.2h-0.6V332z M456.9,334.9h0.6v6h-0.6V334.9z"/>
		<path d="M463.9,339.1c-0.3,1.1-1,1.9-2.3,1.9c-1.5,0-2.6-1.1-2.6-3.1c0-1.6,0.9-3.2,2.6-3.2c1.5,0,2.1,1.1,2.3,1.9h-0.6
			c-0.2-0.7-0.6-1.4-1.7-1.4c-1.3,0-2,1.1-2,2.6c0,1.4,0.7,2.6,1.9,2.6c0.9,0,1.4-0.4,1.7-1.3H463.9z"/>
		<path d="M470.2,337.9c0,1.7-0.9,3.2-2.7,3.2c-1.6,0-2.6-1.3-2.6-3.1c0-1.7,0.9-3.1,2.7-3.1C469.1,334.7,470.2,336,470.2,337.9z
			 M465.5,337.9c0,1.4,0.8,2.6,2,2.6c1.3,0,2-1.1,2-2.6c0-1.4-0.7-2.6-2.1-2.6C466.1,335.3,465.5,336.4,465.5,337.9z"/>
		<path d="M471.6,339.2c0.2,0.8,0.8,1.2,1.7,1.2c1.1,0,1.5-0.5,1.5-1.2c0-0.7-0.3-1-1.6-1.3c-1.5-0.4-1.9-0.8-1.9-1.6
			c0-0.8,0.6-1.6,2-1.6s2,0.8,2.1,1.7h-0.6c-0.1-0.5-0.5-1.1-1.5-1.1c-1,0-1.3,0.5-1.3,1c0,0.6,0.3,0.8,1.5,1.1
			c1.7,0.4,2.1,1,2.1,1.9c0,1.1-0.9,1.8-2.1,1.8c-1.4,0-2.1-0.7-2.3-1.8H471.6z"/>
	</g>
</g>
</svg>
